<svg width="100" height="100" viewBox="0 0 100 100" fill="none" xmlns="http://www.w3.org/2000/svg">
<rect width="100" height="100" rx="16" fill="#F2F2F2"/>
<path d="M85.4386 3.62012L14.5636 3.62012C8.52022 3.62012 3.62109 8.51924 3.62109 14.5626L3.62109 85.4301C3.62109 91.4735 8.52022 96.3726 14.5636 96.3726H85.4386C91.4819 96.3726 96.3811 91.4735 96.3811 85.4301V14.5626C96.3811 8.51924 91.4819 3.62012 85.4386 3.62012Z" fill="url(#paint0_linear_3400_538)"/>
<path d="M41.4701 47.2094C41.4701 47.2094 49.3451 46.6244 49.3451 37.3919C49.3451 28.1594 42.9026 23.6519 34.7426 23.6519H7.89258L7.89258 75.2519H34.7426C34.7426 75.2519 51.1301 75.7694 51.1301 60.0194C51.1301 60.0194 51.8501 47.2094 41.4701 47.2094ZM19.7201 32.8244H34.7201C34.7201 32.8244 38.3726 32.8244 38.3726 38.1944C38.3726 43.5644 36.2276 44.3444 33.7901 44.3444H19.7276L19.7201 32.8244ZM34.0451 66.0794H19.7276V52.2944H34.7276C34.7276 52.2944 40.1651 52.2194 40.1651 59.3819C40.1801 65.3444 36.2051 66.0194 34.0526 66.0794H34.0451ZM72.9926 36.7844C53.1476 36.7844 53.1701 56.6069 53.1701 56.6069C53.1701 56.6069 51.8051 76.3319 72.9926 76.3319C72.9926 76.3319 90.6476 77.3369 90.6476 62.6144H81.5726C81.5726 62.6144 81.8726 68.1644 73.3226 68.1644C73.3226 68.1644 64.2401 68.7719 64.2401 59.1644H90.9776C90.9776 59.1644 93.8801 36.7844 72.9926 36.7844ZM81.0626 52.2944H64.1126C64.1126 52.2944 65.2226 44.3444 73.1951 44.3444C81.1676 44.3444 81.0626 52.2944 81.0626 52.2944ZM61.8926 26.6969L83.1776 26.6969V33.0494H61.8926V26.6969Z" fill="white"/>
<defs>
<linearGradient id="paint0_linear_3400_538" x1="50.0011" y1="3.62012" x2="50.0011" y2="96.3801" gradientUnits="userSpaceOnUse">
<stop stop-color="#005CFF"/>
<stop offset="1" stop-color="#0047AD"/>
</linearGradient>
</defs>
</svg>
