<svg width="17" height="158" viewBox="0 0 17 158" fill="none" xmlns="http://www.w3.org/2000/svg">
<path d="M1.95705 1.19759C1.98116 0.696458 2.37402 0.282731 2.87426 0.244366C7.12268 -0.0814558 9.87691 -0.0814553 14.1253 0.244367C14.6256 0.282731 15.0184 0.696451 15.0425 1.19757C19.1672 86.8801 15.5741 148.345 15.0592 156.412C15.0257 156.937 14.5924 157.314 14.0671 157.314H2.93246C2.40718 157.314 1.97388 156.937 1.94043 156.412C1.42567 148.345 -2.16585 86.88 1.95705 1.19759Z" fill="url(#paint0_linear_3299_4654)"/>
<mask id="mask0_3299_4654" style="mask-type:alpha" maskUnits="userSpaceOnUse" x="0" y="0" width="17" height="158">
<path d="M1.91485 2.07927C1.96256 1.07699 2.74758 0.249679 3.74862 0.180517C7.2323 -0.0601732 9.7673 -0.0601723 13.251 0.18052C14.252 0.249681 15.037 1.07696 15.0848 2.07923C19.0123 84.566 15.7937 144.428 15.1177 155.475C15.0535 156.524 14.185 157.314 13.1345 157.314H3.86513C2.81457 157.314 1.94607 156.524 1.88193 155.475C1.20619 144.427 -2.01102 84.5658 1.91485 2.07927Z" fill="url(#paint1_linear_3299_4654)"/>
</mask>
<g mask="url(#mask0_3299_4654)">
<line x1="-2" y1="153.313" x2="19" y2="153.313" stroke="#A9AEBC" stroke-width="2"/>
<line x1="-2" y1="149.313" x2="19" y2="149.313" stroke="#A9AEBC" stroke-width="2"/>
<line x1="-2" y1="145.313" x2="19" y2="145.313" stroke="#A9AEBC" stroke-width="2"/>
<line x1="-2" y1="141.313" x2="19" y2="141.313" stroke="#A9AEBC" stroke-width="2"/>
<line x1="-2" y1="137.313" x2="19" y2="137.313" stroke="#A9AEBC" stroke-width="2"/>
<line x1="-2" y1="133.313" x2="19" y2="133.313" stroke="#A9AEBC" stroke-width="2"/>
<line x1="-2" y1="129.313" x2="19" y2="129.313" stroke="#A9AEBC" stroke-width="2"/>
<line x1="-2" y1="125.313" x2="19" y2="125.313" stroke="#A9AEBC" stroke-width="2"/>
<line x1="-2" y1="121.313" x2="19" y2="121.313" stroke="#A9AEBC" stroke-width="2"/>
<line x1="-2" y1="117.313" x2="19" y2="117.313" stroke="#A9AEBC" stroke-width="2"/>
<line x1="-2" y1="113.313" x2="19" y2="113.313" stroke="#A9AEBC" stroke-width="2"/>
<line x1="-2" y1="109.313" x2="19" y2="109.313" stroke="#A9AEBC" stroke-width="2"/>
<line x1="-2" y1="105.313" x2="19" y2="105.313" stroke="#A9AEBC" stroke-width="2"/>
<line x1="-2" y1="101.313" x2="19" y2="101.313" stroke="#A9AEBC" stroke-width="2"/>
<line x1="-2" y1="97.3135" x2="19" y2="97.3135" stroke="#A9AEBC" stroke-width="2"/>
<line x1="-2" y1="93.3135" x2="19" y2="93.3135" stroke="#A9AEBC" stroke-width="2"/>
<line x1="-2" y1="89.3135" x2="19" y2="89.3135" stroke="#A9AEBC" stroke-width="2"/>
<line x1="-2" y1="85.3135" x2="19" y2="85.3135" stroke="#A9AEBC" stroke-width="2"/>
<line x1="-2" y1="81.3135" x2="19" y2="81.3135" stroke="#A9AEBC" stroke-width="2"/>
<line x1="-2" y1="77.3135" x2="19" y2="77.3135" stroke="#A9AEBC" stroke-width="2"/>
<line x1="-2" y1="73.3135" x2="19" y2="73.3135" stroke="#A9AEBC" stroke-width="2"/>
<line x1="-2" y1="69.3135" x2="19" y2="69.3135" stroke="#A9AEBC" stroke-width="2"/>
<line x1="-2" y1="65.3135" x2="19" y2="65.3135" stroke="#A9AEBC" stroke-width="2"/>
<line x1="-2" y1="61.3135" x2="19" y2="61.3135" stroke="#A9AEBC" stroke-width="2"/>
<line x1="-2" y1="57.3135" x2="19" y2="57.3135" stroke="#A9AEBC" stroke-width="2"/>
<line x1="-2" y1="53.3135" x2="19" y2="53.3135" stroke="#A9AEBC" stroke-width="2"/>
<line x1="-2" y1="49.3135" x2="19" y2="49.3135" stroke="#A9AEBC" stroke-width="2"/>
<line x1="-2" y1="45.3135" x2="19" y2="45.3135" stroke="#A9AEBC" stroke-width="2"/>
<line x1="-2" y1="41.3135" x2="19" y2="41.3135" stroke="#A9AEBC" stroke-width="2"/>
<line x1="-2" y1="37.3135" x2="19" y2="37.3135" stroke="#A9AEBC" stroke-width="2"/>
<line x1="-2" y1="33.3135" x2="19" y2="33.3135" stroke="#A9AEBC" stroke-width="2"/>
<line x1="-2" y1="29.3135" x2="19" y2="29.3135" stroke="#A9AEBC" stroke-width="2"/>
<line x1="-2" y1="25.3135" x2="19" y2="25.3135" stroke="#A9AEBC" stroke-width="2"/>
<line x1="-2" y1="21.3135" x2="19" y2="21.3135" stroke="#A9AEBC" stroke-width="2"/>
<line x1="-2" y1="17.3135" x2="19" y2="17.3135" stroke="#A9AEBC" stroke-width="2"/>
<line x1="-2" y1="13.3135" x2="19" y2="13.3135" stroke="#A9AEBC" stroke-width="2"/>
<line x1="-2" y1="9.31348" x2="19" y2="9.31348" stroke="#A9AEBC" stroke-width="2"/>
<line x1="-2" y1="5.31348" x2="19" y2="5.31348" stroke="#A9AEBC" stroke-width="2"/>
</g>
<defs>
<linearGradient id="paint0_linear_3299_4654" x1="8.00001" y1="0.313477" x2="8.00001" y2="160.813" gradientUnits="userSpaceOnUse">
<stop stop-color="#4C5262"/>
<stop offset="0.115576" stop-color="#8C93A5"/>
<stop offset="0.206104" stop-color="#8C93A5"/>
<stop offset="0.36291" stop-color="#5A6174"/>
<stop offset="0.490619" stop-color="#5A6174"/>
<stop offset="0.632876" stop-color="#5A6174"/>
<stop offset="0.752501" stop-color="#8C93A5"/>
<stop offset="0.851112" stop-color="#8C93A5"/>
<stop offset="1" stop-color="#697187"/>
</linearGradient>
<linearGradient id="paint1_linear_3299_4654" x1="8.00001" y1="0.313477" x2="8.00001" y2="160.813" gradientUnits="userSpaceOnUse">
<stop stop-color="#4C5262"/>
<stop offset="0.115576" stop-color="#8C93A5"/>
<stop offset="0.206104" stop-color="#8C93A5"/>
<stop offset="0.36291" stop-color="#5A6174"/>
<stop offset="0.490619" stop-color="#5A6174"/>
<stop offset="0.632876" stop-color="#5A6174"/>
<stop offset="0.752501" stop-color="#8C93A5"/>
<stop offset="0.851112" stop-color="#8C93A5"/>
<stop offset="1" stop-color="#697187"/>
</linearGradient>
</defs>
</svg>
