<svg width="343" height="257" viewBox="0 0 343 257" fill="none" xmlns="http://www.w3.org/2000/svg">
<path d="M10 0.375H332.37C337.686 0.375069 341.995 4.6843 341.995 10V246.777C341.995 252.093 337.686 256.402 332.37 256.402H10C4.68426 256.402 0.375 252.093 0.375 246.777V10C0.375003 4.85032 4.41924 0.645396 9.50488 0.387695L10 0.375Z" stroke="#333843" stroke-width="0.75"/>
<mask id="path-2-inside-1_3634_375" fill="white">
<path d="M0 0H28.5308V28.5308H0V0Z"/>
</mask>
<path d="M28.5308 28.5308V28.9058H28.9058V28.5308H28.5308ZM0 28.5308V28.9058H1.42654V28.5308V28.1558H0V28.5308ZM4.27962 28.5308V28.9058H7.13271V28.5308V28.1558H4.27962V28.5308ZM9.98579 28.5308V28.9058H12.8389V28.5308V28.1558H9.98579V28.5308ZM15.692 28.5308V28.9058H18.545V28.5308V28.1558H15.692V28.5308ZM21.3981 28.5308V28.9058H24.2512V28.5308V28.1558H21.3981V28.5308ZM27.1043 28.5308V28.9058H28.5308V28.5308V28.1558H27.1043V28.5308ZM28.5308 28.5308H28.9058V27.1043H28.5308H28.1558V28.5308H28.5308ZM28.5308 24.2512H28.9058V21.3981H28.5308H28.1558V24.2512H28.5308ZM28.5308 18.545H28.9058V15.692H28.5308H28.1558V18.545H28.5308ZM28.5308 12.8389H28.9058V9.98579H28.5308H28.1558V12.8389H28.5308ZM28.5308 7.13271H28.9058V4.27963H28.5308H28.1558V7.13271H28.5308ZM28.5308 1.42654H28.9058V0H28.5308H28.1558V1.42654H28.5308ZM28.5308 28.5308V29.2808H29.2808V28.5308H28.5308ZM0 28.5308V29.2808H1.42654V28.5308V27.7808H0V28.5308ZM4.27962 28.5308V29.2808H7.13271V28.5308V27.7808H4.27962V28.5308ZM9.98579 28.5308V29.2808H12.8389V28.5308V27.7808H9.98579V28.5308ZM15.692 28.5308V29.2808H18.545V28.5308V27.7808H15.692V28.5308ZM21.3981 28.5308V29.2808H24.2512V28.5308V27.7808H21.3981V28.5308ZM27.1043 28.5308V29.2808H28.5308V28.5308V27.7808H27.1043V28.5308ZM28.5308 28.5308H29.2808V27.1043H28.5308H27.7808V28.5308H28.5308ZM28.5308 24.2512H29.2808V21.3981H28.5308H27.7808V24.2512H28.5308ZM28.5308 18.545H29.2808V15.692H28.5308H27.7808V18.545H28.5308ZM28.5308 12.8389H29.2808V9.98579H28.5308H27.7808V12.8389H28.5308ZM28.5308 7.13271H29.2808V4.27963H28.5308H27.7808V7.13271H28.5308ZM28.5308 1.42654H29.2808V0H28.5308H27.7808V1.42654H28.5308Z" fill="#333843" mask="url(#path-2-inside-1_3634_375)"/>
<mask id="path-4-inside-2_3634_375" fill="white">
<path d="M28.5312 0H57.0621V28.5308H28.5312V0Z"/>
</mask>
<path d="M28.5312 28.5308V28.9058H29.9578V28.5308V28.1558H28.5312V28.5308ZM32.8109 28.5308V28.9058H35.664V28.5308V28.1558H32.8109V28.5308ZM38.517 28.5308V28.9058H41.3701V28.5308V28.1558H38.517V28.5308ZM44.2232 28.5308V28.9058H47.0763V28.5308V28.1558H44.2232V28.5308ZM49.9294 28.5308V28.9058H52.7825V28.5308V28.1558H49.9294V28.5308ZM55.6355 28.5308V28.9058H57.0621V28.5308V28.1558H55.6355V28.5308ZM28.5312 28.5308V29.2808H29.9578V28.5308V27.7808H28.5312V28.5308ZM32.8109 28.5308V29.2808H35.664V28.5308V27.7808H32.8109V28.5308ZM38.517 28.5308V29.2808H41.3701V28.5308V27.7808H38.517V28.5308ZM44.2232 28.5308V29.2808H47.0763V28.5308V27.7808H44.2232V28.5308ZM49.9294 28.5308V29.2808H52.7825V28.5308V27.7808H49.9294V28.5308ZM55.6355 28.5308V29.2808H57.0621V28.5308V27.7808H55.6355V28.5308Z" fill="#333843" mask="url(#path-4-inside-2_3634_375)"/>
<mask id="path-6-inside-3_3634_375" fill="white">
<path d="M57.0625 0H85.5933V28.5308H57.0625V0Z"/>
</mask>
<path d="M85.5933 28.5308V29.2808H86.3433V28.5308H85.5933ZM57.0625 28.5308H56.3125V29.2808H57.0625V28.5308ZM85.5933 0H84.8433V28.5308H85.5933H86.3433V0H85.5933ZM85.5933 28.5308V27.7808H57.0625V28.5308V29.2808H85.5933V28.5308ZM57.0625 28.5308H57.8125V0H57.0625H56.3125V28.5308H57.0625Z" fill="#333843" mask="url(#path-6-inside-3_3634_375)"/>
<mask id="path-8-inside-4_3634_375" fill="white">
<path d="M85.5938 0H114.125V28.5308H85.5938V0Z"/>
</mask>
<path d="M114.125 28.5308V29.2808H114.875V28.5308H114.125ZM114.125 0H113.375V28.5308H114.125H114.875V0H114.125ZM114.125 28.5308V27.7808H85.5938V28.5308V29.2808H114.125V28.5308Z" fill="#333843" mask="url(#path-8-inside-4_3634_375)"/>
<mask id="path-10-inside-5_3634_375" fill="white">
<path d="M114.125 0H142.656V28.5308H114.125V0Z"/>
</mask>
<path d="M142.656 28.5308V29.2808H143.406V28.5308H142.656ZM142.656 0H141.906V28.5308H142.656H143.406V0H142.656ZM142.656 28.5308V27.7808H114.125V28.5308V29.2808H142.656V28.5308Z" fill="#333843" mask="url(#path-10-inside-5_3634_375)"/>
<mask id="path-12-inside-6_3634_375" fill="white">
<path d="M142.652 0H171.183V28.5308H142.652V0Z"/>
</mask>
<path d="M171.183 28.5308V29.2808H171.933V28.5308H171.183ZM171.183 0H170.433V28.5308H171.183H171.933V0H171.183ZM171.183 28.5308V27.7808H142.652V28.5308V29.2808H171.183V28.5308Z" fill="#333843" mask="url(#path-12-inside-6_3634_375)"/>
<mask id="path-14-inside-7_3634_375" fill="white">
<path d="M171.184 0H199.714V28.5308H171.184V0Z"/>
</mask>
<path d="M199.714 28.5308V29.2808H200.464V28.5308H199.714ZM199.714 0H198.964V28.5308H199.714H200.464V0H199.714ZM199.714 28.5308V27.7808H171.184V28.5308V29.2808H199.714V28.5308Z" fill="#333843" mask="url(#path-14-inside-7_3634_375)"/>
<mask id="path-16-inside-8_3634_375" fill="white">
<path d="M199.715 0H228.246V28.5308H199.715V0Z"/>
</mask>
<path d="M228.246 28.5308V29.2808H228.996V28.5308H228.246ZM228.246 0H227.496V28.5308H228.246H228.996V0H228.246ZM228.246 28.5308V27.7808H199.715V28.5308V29.2808H228.246V28.5308Z" fill="#333843" mask="url(#path-16-inside-8_3634_375)"/>
<mask id="path-18-inside-9_3634_375" fill="white">
<path d="M228.246 0H256.777V28.5308H228.246V0Z"/>
</mask>
<path d="M256.777 28.5308V29.2808H257.527V28.5308H256.777ZM256.777 0H256.027V28.5308H256.777H257.527V0H256.777ZM256.777 28.5308V27.7808H228.246V28.5308V29.2808H256.777V28.5308Z" fill="#333843" mask="url(#path-18-inside-9_3634_375)"/>
<mask id="path-20-inside-10_3634_375" fill="white">
<path d="M256.777 0H285.308V28.5308H256.777V0Z"/>
</mask>
<path d="M285.308 28.5308V29.2808H286.058V28.5308H285.308ZM285.308 0H284.558V28.5308H285.308H286.058V0H285.308ZM285.308 28.5308V27.7808H256.777V28.5308V29.2808H285.308V28.5308Z" fill="#333843" mask="url(#path-20-inside-10_3634_375)"/>
<mask id="path-22-inside-11_3634_375" fill="white">
<path d="M285.309 0H313.839V28.5308H285.309V0Z"/>
</mask>
<path d="M285.309 28.5308V28.9058H286.735V28.5308V28.1558H285.309V28.5308ZM289.588 28.5308V28.9058H292.441V28.5308V28.1558H289.588V28.5308ZM295.294 28.5308V28.9058H298.147V28.5308V28.1558H295.294V28.5308ZM301.001 28.5308V28.9058H303.854V28.5308V28.1558H301.001V28.5308ZM306.707 28.5308V28.9058H309.56V28.5308V28.1558H306.707V28.5308ZM312.413 28.5308V28.9058H313.839V28.5308V28.1558H312.413V28.5308ZM285.309 28.5308V29.2808H286.735V28.5308V27.7808H285.309V28.5308ZM289.588 28.5308V29.2808H292.441V28.5308V27.7808H289.588V28.5308ZM295.294 28.5308V29.2808H298.147V28.5308V27.7808H295.294V28.5308ZM301.001 28.5308V29.2808H303.854V28.5308V27.7808H301.001V28.5308ZM306.707 28.5308V29.2808H309.56V28.5308V27.7808H306.707V28.5308ZM312.413 28.5308V29.2808H313.839V28.5308V27.7808H312.413V28.5308Z" fill="#333843" mask="url(#path-22-inside-11_3634_375)"/>
<mask id="path-24-inside-12_3634_375" fill="white">
<path d="M313.84 0H342.371V28.5308H313.84V0Z"/>
</mask>
<path d="M313.84 28.5308H313.465V28.9058H313.84V28.5308ZM313.84 0H313.465V1.42654H313.84H314.215V0H313.84ZM313.84 4.27962H313.465V7.13271H313.84H314.215V4.27962H313.84ZM313.84 9.98579H313.465V12.8389H313.84H314.215V9.98579H313.84ZM313.84 15.692H313.465V18.545H313.84H314.215V15.692H313.84ZM313.84 21.3981H313.465V24.2512H313.84H314.215V21.3981H313.84ZM313.84 27.1043H313.465V28.5308H313.84H314.215V27.1043H313.84ZM313.84 28.5308V28.9058H315.266V28.5308V28.1558H313.84V28.5308ZM318.119 28.5308V28.9058H320.973V28.5308V28.1558H318.119V28.5308ZM323.826 28.5308V28.9058H326.679V28.5308V28.1558H323.826V28.5308ZM329.532 28.5308V28.9058H332.385V28.5308V28.1558H329.532V28.5308ZM335.238 28.5308V28.9058H338.091V28.5308V28.1558H335.238V28.5308ZM340.944 28.5308V28.9058H342.371V28.5308V28.1558H340.944V28.5308ZM313.84 28.5308H313.09V29.2808H313.84V28.5308ZM313.84 0H313.09V1.42654H313.84H314.59V0H313.84ZM313.84 4.27962H313.09V7.13271H313.84H314.59V4.27962H313.84ZM313.84 9.98579H313.09V12.8389H313.84H314.59V9.98579H313.84ZM313.84 15.692H313.09V18.545H313.84H314.59V15.692H313.84ZM313.84 21.3981H313.09V24.2512H313.84H314.59V21.3981H313.84ZM313.84 27.1043H313.09V28.5308H313.84H314.59V27.1043H313.84ZM313.84 28.5308V29.2808H315.266V28.5308V27.7808H313.84V28.5308ZM318.119 28.5308V29.2808H320.973V28.5308V27.7808H318.119V28.5308ZM323.826 28.5308V29.2808H326.679V28.5308V27.7808H323.826V28.5308ZM329.532 28.5308V29.2808H332.385V28.5308V27.7808H329.532V28.5308ZM335.238 28.5308V29.2808H338.091V28.5308V27.7808H335.238V28.5308ZM340.944 28.5308V29.2808H342.371V28.5308V27.7808H340.944V28.5308Z" fill="#333843" mask="url(#path-24-inside-12_3634_375)"/>
<rect x="7.96094" y="7.95361" width="12.6238" height="12.6238" rx="6.31191" fill="#272B2E"/>
<rect x="7.96094" y="7.95361" width="12.6238" height="12.6238" rx="6.31191" stroke="#333843" stroke-width="0.75"/>
<path d="M16.4951 10.8804L17.6562 12.0425L17.9219 12.3071L17.6562 12.5728L15.9639 14.2642L17.9238 16.2241L17.6582 16.4888L16.4971 17.6499L16.2324 17.9155L14.2725 15.9556L12.5791 17.6499L12.3135 17.9155L12.0488 17.6499L10.8867 16.4888L10.6221 16.2241L10.8867 15.9585L12.5811 14.2642L10.624 12.3071L10.8896 12.0425L12.0508 10.8804L12.3154 10.6157L12.5811 10.8804L14.2725 12.5728L15.9648 10.8804L16.2305 10.6157L16.4951 10.8804Z" fill="#191C1E" stroke="#333843" stroke-width="0.75"/>
<rect x="321.871" y="7.95361" width="12.6238" height="12.6238" rx="6.31191" fill="#272B2E"/>
<rect x="321.871" y="7.95361" width="12.6238" height="12.6238" rx="6.31191" stroke="#333843" stroke-width="0.75"/>
<path d="M330.405 10.8804L331.566 12.0425L331.832 12.3071L331.566 12.5728L329.874 14.2642L331.834 16.2241L331.568 16.4888L330.407 17.6499L330.143 17.9155L328.183 15.9556L326.489 17.6499L326.224 17.9155L325.959 17.6499L324.797 16.4888L324.532 16.2241L324.797 15.9585L326.491 14.2642L324.534 12.3071L324.8 12.0425L325.961 10.8804L326.226 10.6157L326.491 10.8804L328.183 12.5728L329.875 10.8804L330.141 10.6157L330.405 10.8804Z" fill="#191C1E" stroke="#333843" stroke-width="0.75"/>
<mask id="path-30-inside-13_3634_375" fill="white">
<path d="M0 28.5308H28.5308V57.0616H0V28.5308Z"/>
</mask>
<path d="M28.5308 57.0616H28.9058V55.6351H28.5308H28.1558V57.0616H28.5308ZM28.5308 52.782H28.9058V49.9289H28.5308H28.1558V52.782H28.5308ZM28.5308 47.0758H28.9058V44.2227H28.5308H28.1558V47.0758H28.5308ZM28.5308 41.3696H28.9058V38.5166H28.5308H28.1558V41.3696H28.5308ZM28.5308 35.6635H28.9058V32.8104H28.5308H28.1558V35.6635H28.5308ZM28.5308 29.9573H28.9058V28.5308H28.5308H28.1558V29.9573H28.5308ZM28.5308 57.0616H29.2808V55.6351H28.5308H27.7808V57.0616H28.5308ZM28.5308 52.782H29.2808V49.9289H28.5308H27.7808V52.782H28.5308ZM28.5308 47.0758H29.2808V44.2227H28.5308H27.7808V47.0758H28.5308ZM28.5308 41.3696H29.2808V38.5166H28.5308H27.7808V41.3696H28.5308ZM28.5308 35.6635H29.2808V32.8104H28.5308H27.7808V35.6635H28.5308ZM28.5308 29.9573H29.2808V28.5308H28.5308H27.7808V29.9573H28.5308Z" fill="#333843" mask="url(#path-30-inside-13_3634_375)"/>
<mask id="path-32-inside-14_3634_375" fill="white">
<path d="M57.0625 28.5308H85.5933V57.0616H57.0625V28.5308Z"/>
</mask>
<path d="M85.5933 28.5308H84.8433V57.0616H85.5933H86.3433V28.5308H85.5933ZM57.0625 57.0616H57.8125V28.5308H57.0625H56.3125V57.0616H57.0625Z" fill="#333843" mask="url(#path-32-inside-14_3634_375)"/>
<mask id="path-34-inside-15_3634_375" fill="white">
<path d="M228.246 28.5308H256.777V57.0616H228.246V28.5308Z"/>
</mask>
<path d="M256.777 28.5308H256.027V57.0616H256.777H257.527V28.5308H256.777Z" fill="#333843" mask="url(#path-34-inside-15_3634_375)"/>
<mask id="path-36-inside-16_3634_375" fill="white">
<path d="M256.777 28.5308H285.308V57.0616H256.777V28.5308Z"/>
</mask>
<path d="M285.308 28.5308H284.558V57.0616H285.308H286.058V28.5308H285.308Z" fill="#333843" mask="url(#path-36-inside-16_3634_375)"/>
<mask id="path-38-inside-17_3634_375" fill="white">
<path d="M313.84 28.5308H342.371V57.0616H313.84V28.5308Z"/>
</mask>
<path d="M313.84 28.5308H313.465V29.9573H313.84H314.215V28.5308H313.84ZM313.84 32.8104H313.465V35.6635H313.84H314.215V32.8104H313.84ZM313.84 38.5166H313.465V41.3696H313.84H314.215V38.5166H313.84ZM313.84 44.2227H313.465V47.0758H313.84H314.215V44.2227H313.84ZM313.84 49.9289H313.465V52.782H313.84H314.215V49.9289H313.84ZM313.84 55.635H313.465V57.0616H313.84H314.215V55.635H313.84ZM313.84 28.5308H313.09V29.9573H313.84H314.59V28.5308H313.84ZM313.84 32.8104H313.09V35.6635H313.84H314.59V32.8104H313.84ZM313.84 38.5166H313.09V41.3696H313.84H314.59V38.5166H313.84ZM313.84 44.2227H313.09V47.0758H313.84H314.59V44.2227H313.84ZM313.84 49.9289H313.09V52.782H313.84H314.59V49.9289H313.84ZM313.84 55.635H313.09V57.0616H313.84H314.59V55.635H313.84Z" fill="#333843" mask="url(#path-38-inside-17_3634_375)"/>
<mask id="path-40-inside-18_3634_375" fill="white">
<path d="M0 57.0615H28.5308V85.5924H0V57.0615Z"/>
</mask>
<path d="M28.5308 85.5924H28.9058V84.1658H28.5308H28.1558V85.5924H28.5308ZM28.5308 81.3127H28.9058V78.4596H28.5308H28.1558V81.3127H28.5308ZM28.5308 75.6066H28.9058V72.7535H28.5308H28.1558V75.6066H28.5308ZM28.5308 69.9004H28.9058V67.0473H28.5308H28.1558V69.9004H28.5308ZM28.5308 64.1942H28.9058V61.3412H28.5308H28.1558V64.1942H28.5308ZM28.5308 58.4881H28.9058V57.0615H28.5308H28.1558V58.4881H28.5308ZM28.5308 85.5924H29.2808V84.1658H28.5308H27.7808V85.5924H28.5308ZM28.5308 81.3127H29.2808V78.4596H28.5308H27.7808V81.3127H28.5308ZM28.5308 75.6066H29.2808V72.7535H28.5308H27.7808V75.6066H28.5308ZM28.5308 69.9004H29.2808V67.0473H28.5308H27.7808V69.9004H28.5308ZM28.5308 64.1942H29.2808V61.3412H28.5308H27.7808V64.1942H28.5308ZM28.5308 58.4881H29.2808V57.0615H28.5308H27.7808V58.4881H28.5308Z" fill="#333843" mask="url(#path-40-inside-18_3634_375)"/>
<mask id="path-42-inside-19_3634_375" fill="white">
<path d="M57.0625 57.0615H85.5933V85.5924H57.0625V57.0615Z"/>
</mask>
<path d="M57.0625 57.0615V56.3115H56.3125V57.0615H57.0625ZM57.0625 57.0615V57.8115H85.5933V57.0615V56.3115H57.0625V57.0615ZM57.0625 85.5924H57.8125V57.0615H57.0625H56.3125V85.5924H57.0625Z" fill="#333843" mask="url(#path-42-inside-19_3634_375)"/>
<mask id="path-44-inside-20_3634_375" fill="white">
<path d="M85.5938 57.0615H114.125V85.5924H85.5938V57.0615Z"/>
</mask>
<path d="M85.5938 57.0615V57.8115H114.125V57.0615V56.3115H85.5938V57.0615Z" fill="#333843" mask="url(#path-44-inside-20_3634_375)"/>
<mask id="path-46-inside-21_3634_375" fill="white">
<path d="M114.125 57.0615H142.656V85.5924H114.125V57.0615Z"/>
</mask>
<path d="M114.125 57.0615V57.8115H142.656V57.0615V56.3115H114.125V57.0615Z" fill="#333843" mask="url(#path-46-inside-21_3634_375)"/>
<mask id="path-48-inside-22_3634_375" fill="white">
<path d="M142.652 57.0615H171.183V85.5924H142.652V57.0615Z"/>
</mask>
<path d="M142.652 57.0615V57.8115H171.183V57.0615V56.3115H142.652V57.0615Z" fill="#333843" mask="url(#path-48-inside-22_3634_375)"/>
<mask id="path-50-inside-23_3634_375" fill="white">
<path d="M171.184 57.0615H199.714V85.5924H171.184V57.0615Z"/>
</mask>
<path d="M171.184 57.0615V57.8115H199.714V57.0615V56.3115H171.184V57.0615Z" fill="#333843" mask="url(#path-50-inside-23_3634_375)"/>
<mask id="path-52-inside-24_3634_375" fill="white">
<path d="M199.715 57.0615H228.246V85.5924H199.715V57.0615Z"/>
</mask>
<path d="M199.715 57.0615V57.8115H228.246V57.0615V56.3115H199.715V57.0615Z" fill="#333843" mask="url(#path-52-inside-24_3634_375)"/>
<mask id="path-54-inside-25_3634_375" fill="white">
<path d="M228.246 57.0615H256.777V85.5924H228.246V57.0615Z"/>
</mask>
<path d="M228.246 57.0615V57.8115H256.777V57.0615V56.3115H228.246V57.0615Z" fill="#333843" mask="url(#path-54-inside-25_3634_375)"/>
<mask id="path-56-inside-26_3634_375" fill="white">
<path d="M256.777 57.0615H285.308V85.5924H256.777V57.0615Z"/>
</mask>
<path d="M285.308 57.0615H286.058V56.3115H285.308V57.0615ZM256.777 57.0615V57.8115H285.308V57.0615V56.3115H256.777V57.0615ZM285.308 57.0615H284.558V85.5924H285.308H286.058V57.0615H285.308Z" fill="#333843" mask="url(#path-56-inside-26_3634_375)"/>
<mask id="path-58-inside-27_3634_375" fill="white">
<path d="M313.84 57.0615H342.371V85.5924H313.84V57.0615Z"/>
</mask>
<path d="M313.84 57.0615H313.465V58.4881H313.84H314.215V57.0615H313.84ZM313.84 61.3411H313.465V64.1942H313.84H314.215V61.3411H313.84ZM313.84 67.0473H313.465V69.9004H313.84H314.215V67.0473H313.84ZM313.84 72.7535H313.465V75.6066H313.84H314.215V72.7535H313.84ZM313.84 78.4596H313.465V81.3127H313.84H314.215V78.4596H313.84ZM313.84 84.1658H313.465V85.5924H313.84H314.215V84.1658H313.84ZM313.84 57.0615H313.09V58.4881H313.84H314.59V57.0615H313.84ZM313.84 61.3411H313.09V64.1942H313.84H314.59V61.3411H313.84ZM313.84 67.0473H313.09V69.9004H313.84H314.59V67.0473H313.84ZM313.84 72.7535H313.09V75.6066H313.84H314.59V72.7535H313.84ZM313.84 78.4596H313.09V81.3127H313.84H314.59V78.4596H313.84ZM313.84 84.1658H313.09V85.5924H313.84H314.59V84.1658H313.84Z" fill="#333843" mask="url(#path-58-inside-27_3634_375)"/>
<mask id="path-60-inside-28_3634_375" fill="white">
<path d="M0 85.5923H28.5308V114.123H0V85.5923Z"/>
</mask>
<path d="M28.5308 114.123H28.9058V112.697H28.5308H28.1558V114.123H28.5308ZM28.5308 109.843H28.9058V106.99H28.5308H28.1558V109.843H28.5308ZM28.5308 104.137H28.9058V101.284H28.5308H28.1558V104.137H28.5308ZM28.5308 98.4312H28.9058V95.5781H28.5308H28.1558V98.4312H28.5308ZM28.5308 92.725H28.9058V89.8719H28.5308H28.1558V92.725H28.5308ZM28.5308 87.0188H28.9058V85.5923H28.5308H28.1558V87.0188H28.5308ZM28.5308 114.123H29.2808V112.697H28.5308H27.7808V114.123H28.5308ZM28.5308 109.843H29.2808V106.99H28.5308H27.7808V109.843H28.5308ZM28.5308 104.137H29.2808V101.284H28.5308H27.7808V104.137H28.5308ZM28.5308 98.4312H29.2808V95.5781H28.5308H27.7808V98.4312H28.5308ZM28.5308 92.725H29.2808V89.8719H28.5308H27.7808V92.725H28.5308ZM28.5308 87.0188H29.2808V85.5923H28.5308H27.7808V87.0188H28.5308Z" fill="#333843" mask="url(#path-60-inside-28_3634_375)"/>
<mask id="path-62-inside-29_3634_375" fill="white">
<path d="M57.0625 85.5923H85.5933V114.123H57.0625V85.5923Z"/>
</mask>
<path d="M57.0625 114.123H57.8125V85.5923H57.0625H56.3125V114.123H57.0625Z" fill="#333843" mask="url(#path-62-inside-29_3634_375)"/>
<mask id="path-64-inside-30_3634_375" fill="white">
<path d="M256.777 85.5923H285.308V114.123H256.777V85.5923Z"/>
</mask>
<path d="M285.308 85.5923H284.558V114.123H285.308H286.058V85.5923H285.308Z" fill="#333843" mask="url(#path-64-inside-30_3634_375)"/>
<mask id="path-66-inside-31_3634_375" fill="white">
<path d="M313.84 85.5923H342.371V114.123H313.84V85.5923Z"/>
</mask>
<path d="M313.84 85.5923H313.465V87.0188H313.84H314.215V85.5923H313.84ZM313.84 89.8719H313.465V92.725H313.84H314.215V89.8719H313.84ZM313.84 95.5781H313.465V98.4312H313.84H314.215V95.5781H313.84ZM313.84 101.284H313.465V104.137H313.84H314.215V101.284H313.84ZM313.84 106.99H313.465V109.843H313.84H314.215V106.99H313.84ZM313.84 112.697H313.465V114.123H313.84H314.215V112.697H313.84ZM313.84 85.5923H313.09V87.0188H313.84H314.59V85.5923H313.84ZM313.84 89.8719H313.09V92.725H313.84H314.59V89.8719H313.84ZM313.84 95.5781H313.09V98.4312H313.84H314.59V95.5781H313.84ZM313.84 101.284H313.09V104.137H313.84H314.59V101.284H313.84ZM313.84 106.99H313.09V109.843H313.84H314.59V106.99H313.84ZM313.84 112.697H313.09V114.123H313.84H314.59V112.697H313.84Z" fill="#333843" mask="url(#path-66-inside-31_3634_375)"/>
<mask id="path-68-inside-32_3634_375" fill="white">
<path d="M0 114.124H28.5308V142.654H0V114.124Z"/>
</mask>
<path d="M28.5308 142.654H28.9058V141.228H28.5308H28.1558V142.654H28.5308ZM28.5308 138.375H28.9058V135.522H28.5308H28.1558V138.375H28.5308ZM28.5308 132.669H28.9058V129.815H28.5308H28.1558V132.669H28.5308ZM28.5308 126.962H28.9058V124.109H28.5308H28.1558V126.962H28.5308ZM28.5308 121.256H28.9058V118.403H28.5308H28.1558V121.256H28.5308ZM28.5308 115.55H28.9058V114.124H28.5308H28.1558V115.55H28.5308ZM28.5308 142.654H29.2808V141.228H28.5308H27.7808V142.654H28.5308ZM28.5308 138.375H29.2808V135.522H28.5308H27.7808V138.375H28.5308ZM28.5308 132.669H29.2808V129.815H28.5308H27.7808V132.669H28.5308ZM28.5308 126.962H29.2808V124.109H28.5308H27.7808V126.962H28.5308ZM28.5308 121.256H29.2808V118.403H28.5308H27.7808V121.256H28.5308ZM28.5308 115.55H29.2808V114.124H28.5308H27.7808V115.55H28.5308Z" fill="#333843" mask="url(#path-68-inside-32_3634_375)"/>
<mask id="path-70-inside-33_3634_375" fill="white">
<path d="M57.0625 114.124H85.5933V142.654H57.0625V114.124Z"/>
</mask>
<path d="M57.0625 142.654H56.3125V143.404H57.0625V142.654ZM85.5933 142.654V141.904H57.0625V142.654V143.404H85.5933V142.654ZM57.0625 142.654H57.8125V114.124H57.0625H56.3125V142.654H57.0625Z" fill="#333843" mask="url(#path-70-inside-33_3634_375)"/>
<mask id="path-72-inside-34_3634_375" fill="white">
<path d="M85.5938 114.124H114.125V142.654H85.5938V114.124Z"/>
</mask>
<path d="M114.125 142.654V141.904H85.5938V142.654V143.404H114.125V142.654Z" fill="#333843" mask="url(#path-72-inside-34_3634_375)"/>
<mask id="path-74-inside-35_3634_375" fill="white">
<path d="M114.125 114.124H142.656V142.654H114.125V114.124Z"/>
</mask>
<path d="M142.656 142.654V141.904H114.125V142.654V143.404H142.656V142.654Z" fill="#333843" mask="url(#path-74-inside-35_3634_375)"/>
<mask id="path-76-inside-36_3634_375" fill="white">
<path d="M142.652 114.124H171.183V142.654H142.652V114.124Z"/>
</mask>
<path d="M171.183 142.654V141.904H142.652V142.654V143.404H171.183V142.654Z" fill="#333843" mask="url(#path-76-inside-36_3634_375)"/>
<mask id="path-78-inside-37_3634_375" fill="white">
<path d="M171.184 114.124H199.714V142.654H171.184V114.124Z"/>
</mask>
<path d="M199.714 142.654V141.904H171.184V142.654V143.404H199.714V142.654Z" fill="#333843" mask="url(#path-78-inside-37_3634_375)"/>
<mask id="path-80-inside-38_3634_375" fill="white">
<path d="M199.715 114.124H228.246V142.654H199.715V114.124Z"/>
</mask>
<path d="M228.246 142.654V141.904H199.715V142.654V143.404H228.246V142.654Z" fill="#333843" mask="url(#path-80-inside-38_3634_375)"/>
<mask id="path-82-inside-39_3634_375" fill="white">
<path d="M228.246 114.124H256.777V142.654H228.246V114.124Z"/>
</mask>
<path d="M256.777 142.654V141.904H228.246V142.654V143.404H256.777V142.654Z" fill="#333843" mask="url(#path-82-inside-39_3634_375)"/>
<mask id="path-84-inside-40_3634_375" fill="white">
<path d="M256.777 114.124H285.308V142.654H256.777V114.124Z"/>
</mask>
<path d="M285.308 142.654V143.404H286.058V142.654H285.308ZM285.308 114.124H284.558V142.654H285.308H286.058V114.124H285.308ZM285.308 142.654V141.904H256.777V142.654V143.404H285.308V142.654Z" fill="#333843" mask="url(#path-84-inside-40_3634_375)"/>
<mask id="path-86-inside-41_3634_375" fill="white">
<path d="M313.84 114.124H342.371V142.654H313.84V114.124Z"/>
</mask>
<path d="M313.84 114.124H313.465V115.55H313.84H314.215V114.124H313.84ZM313.84 118.403H313.465V121.256H313.84H314.215V118.403H313.84ZM313.84 124.109H313.465V126.962H313.84H314.215V124.109H313.84ZM313.84 129.815H313.465V132.669H313.84H314.215V129.815H313.84ZM313.84 135.522H313.465V138.375H313.84H314.215V135.522H313.84ZM313.84 141.228H313.465V142.654H313.84H314.215V141.228H313.84ZM313.84 114.124H313.09V115.55H313.84H314.59V114.124H313.84ZM313.84 118.403H313.09V121.256H313.84H314.59V118.403H313.84ZM313.84 124.109H313.09V126.962H313.84H314.59V124.109H313.84ZM313.84 129.815H313.09V132.669H313.84H314.59V129.815H313.84ZM313.84 135.522H313.09V138.375H313.84H314.59V135.522H313.84ZM313.84 141.228H313.09V142.654H313.84H314.59V141.228H313.84Z" fill="#333843" mask="url(#path-86-inside-41_3634_375)"/>
<mask id="path-88-inside-42_3634_375" fill="white">
<path d="M0 142.654H28.5308V171.185H0V142.654Z"/>
</mask>
<path d="M28.5308 171.185H28.9058V169.759H28.5308H28.1558V171.185H28.5308ZM28.5308 166.906H28.9058V164.052H28.5308H28.1558V166.906H28.5308ZM28.5308 161.199H28.9058V158.346H28.5308H28.1558V161.199H28.5308ZM28.5308 155.493H28.9058V152.64H28.5308H28.1558V155.493H28.5308ZM28.5308 149.787H28.9058V146.934H28.5308H28.1558V149.787H28.5308ZM28.5308 144.081H28.9058V142.654H28.5308H28.1558V144.081H28.5308ZM28.5308 171.185H29.2808V169.759H28.5308H27.7808V171.185H28.5308ZM28.5308 166.906H29.2808V164.052H28.5308H27.7808V166.906H28.5308ZM28.5308 161.199H29.2808V158.346H28.5308H27.7808V161.199H28.5308ZM28.5308 155.493H29.2808V152.64H28.5308H27.7808V155.493H28.5308ZM28.5308 149.787H29.2808V146.934H28.5308H27.7808V149.787H28.5308ZM28.5308 144.081H29.2808V142.654H28.5308H27.7808V144.081H28.5308Z" fill="#333843" mask="url(#path-88-inside-42_3634_375)"/>
<mask id="path-90-inside-43_3634_375" fill="white">
<path d="M57.0625 142.654H85.5933V171.185H57.0625V142.654Z"/>
</mask>
<path d="M85.5933 171.185V171.935H86.3433V171.185H85.5933ZM57.0625 171.185H56.3125V171.935H57.0625V171.185ZM85.5933 142.654H84.8433V171.185H85.5933H86.3433V142.654H85.5933ZM85.5933 171.185V170.435H57.0625V171.185V171.935H85.5933V171.185ZM57.0625 171.185H57.8125V142.654H57.0625H56.3125V171.185H57.0625Z" fill="#333843" mask="url(#path-90-inside-43_3634_375)"/>
<mask id="path-92-inside-44_3634_375" fill="white">
<path d="M85.5938 142.654H114.125V171.185H85.5938V142.654Z"/>
</mask>
<path d="M114.125 171.185V171.935H114.875V171.185H114.125ZM114.125 142.654H113.375V171.185H114.125H114.875V142.654H114.125ZM114.125 171.185V170.435H85.5938V171.185V171.935H114.125V171.185Z" fill="#333843" mask="url(#path-92-inside-44_3634_375)"/>
<mask id="path-94-inside-45_3634_375" fill="white">
<path d="M114.125 142.654H142.656V171.185H114.125V142.654Z"/>
</mask>
<path d="M142.656 171.185V171.935H143.406V171.185H142.656ZM142.656 142.654H141.906V171.185H142.656H143.406V142.654H142.656ZM142.656 171.185V170.435H114.125V171.185V171.935H142.656V171.185Z" fill="#333843" mask="url(#path-94-inside-45_3634_375)"/>
<mask id="path-96-inside-46_3634_375" fill="white">
<path d="M142.652 142.654H171.183V171.185H142.652V142.654Z"/>
</mask>
<path d="M171.183 171.185V171.935H171.933V171.185H171.183ZM171.183 142.654H170.433V171.185H171.183H171.933V142.654H171.183ZM171.183 171.185V170.435H142.652V171.185V171.935H171.183V171.185Z" fill="#333843" mask="url(#path-96-inside-46_3634_375)"/>
<mask id="path-98-inside-47_3634_375" fill="white">
<path d="M171.184 142.654H199.714V171.185H171.184V142.654Z"/>
</mask>
<path d="M199.714 171.185V171.935H200.464V171.185H199.714ZM199.714 142.654H198.964V171.185H199.714H200.464V142.654H199.714ZM199.714 171.185V170.435H171.184V171.185V171.935H199.714V171.185Z" fill="#333843" mask="url(#path-98-inside-47_3634_375)"/>
<mask id="path-100-inside-48_3634_375" fill="white">
<path d="M199.715 142.654H228.246V171.185H199.715V142.654Z"/>
</mask>
<path d="M228.246 171.185V171.935H228.996V171.185H228.246ZM228.246 142.654H227.496V171.185H228.246H228.996V142.654H228.246ZM228.246 171.185V170.435H199.715V171.185V171.935H228.246V171.185Z" fill="#333843" mask="url(#path-100-inside-48_3634_375)"/>
<mask id="path-102-inside-49_3634_375" fill="white">
<path d="M228.246 142.654H256.777V171.185H228.246V142.654Z"/>
</mask>
<path d="M256.777 171.185V171.935H257.527V171.185H256.777ZM256.777 142.654H256.027V171.185H256.777H257.527V142.654H256.777ZM256.777 171.185V170.435H228.246V171.185V171.935H256.777V171.185Z" fill="#333843" mask="url(#path-102-inside-49_3634_375)"/>
<mask id="path-104-inside-50_3634_375" fill="white">
<path d="M256.777 142.654H285.308V171.185H256.777V142.654Z"/>
</mask>
<path d="M285.308 171.185V171.935H286.058V171.185H285.308ZM285.308 142.654H284.558V171.185H285.308H286.058V142.654H285.308ZM285.308 171.185V170.435H256.777V171.185V171.935H285.308V171.185Z" fill="#333843" mask="url(#path-104-inside-50_3634_375)"/>
<mask id="path-106-inside-51_3634_375" fill="white">
<path d="M313.84 142.654H342.371V171.185H313.84V142.654Z"/>
</mask>
<path d="M313.84 142.654H313.465V144.081H313.84H314.215V142.654H313.84ZM313.84 146.934H313.465V149.787H313.84H314.215V146.934H313.84ZM313.84 152.64H313.465V155.493H313.84H314.215V152.64H313.84ZM313.84 158.346H313.465V161.199H313.84H314.215V158.346H313.84ZM313.84 164.052H313.465V166.906H313.84H314.215V164.052H313.84ZM313.84 169.759H313.465V171.185H313.84H314.215V169.759H313.84ZM313.84 142.654H313.09V144.081H313.84H314.59V142.654H313.84ZM313.84 146.934H313.09V149.787H313.84H314.59V146.934H313.84ZM313.84 152.64H313.09V155.493H313.84H314.59V152.64H313.84ZM313.84 158.346H313.09V161.199H313.84H314.59V158.346H313.84ZM313.84 164.052H313.09V166.906H313.84H314.59V164.052H313.84ZM313.84 169.759H313.09V171.185H313.84H314.59V169.759H313.84Z" fill="#333843" mask="url(#path-106-inside-51_3634_375)"/>
<mask id="path-108-inside-52_3634_375" fill="white">
<path d="M0 171.185H28.5308V199.716H0V171.185Z"/>
</mask>
<path d="M28.5308 199.716H28.9058V198.289H28.5308H28.1558V199.716H28.5308ZM28.5308 195.436H28.9058V192.583H28.5308H28.1558V195.436H28.5308ZM28.5308 189.73H28.9058V186.877H28.5308H28.1558V189.73H28.5308ZM28.5308 184.024H28.9058V181.171H28.5308H28.1558V184.024H28.5308ZM28.5308 178.318H28.9058V175.465H28.5308H28.1558V178.318H28.5308ZM28.5308 172.612H28.9058V171.185H28.5308H28.1558V172.612H28.5308ZM28.5308 199.716H29.2808V198.289H28.5308H27.7808V199.716H28.5308ZM28.5308 195.436H29.2808V192.583H28.5308H27.7808V195.436H28.5308ZM28.5308 189.73H29.2808V186.877H28.5308H27.7808V189.73H28.5308ZM28.5308 184.024H29.2808V181.171H28.5308H27.7808V184.024H28.5308ZM28.5308 178.318H29.2808V175.465H28.5308H27.7808V178.318H28.5308ZM28.5308 172.612H29.2808V171.185H28.5308H27.7808V172.612H28.5308Z" fill="#333843" mask="url(#path-108-inside-52_3634_375)"/>
<mask id="path-110-inside-53_3634_375" fill="white">
<path d="M57.0625 171.185H85.5933V199.716H57.0625V171.185Z"/>
</mask>
<path d="M85.5933 199.716V200.466H86.3433V199.716H85.5933ZM57.0625 199.716H56.3125V200.466H57.0625V199.716ZM85.5933 171.185H84.8433V199.716H85.5933H86.3433V171.185H85.5933ZM85.5933 199.716V198.966H57.0625V199.716V200.466H85.5933V199.716ZM57.0625 199.716H57.8125V171.185H57.0625H56.3125V199.716H57.0625Z" fill="#333843" mask="url(#path-110-inside-53_3634_375)"/>
<mask id="path-112-inside-54_3634_375" fill="white">
<path d="M85.5938 171.185H114.125V199.716H85.5938V171.185Z"/>
</mask>
<path d="M114.125 199.716V200.466H114.875V199.716H114.125ZM114.125 171.185H113.375V199.716H114.125H114.875V171.185H114.125ZM114.125 199.716V198.966H85.5938V199.716V200.466H114.125V199.716Z" fill="#333843" mask="url(#path-112-inside-54_3634_375)"/>
<mask id="path-114-inside-55_3634_375" fill="white">
<path d="M114.125 171.185H142.656V199.716H114.125V171.185Z"/>
</mask>
<path d="M142.656 199.716V200.466H143.406V199.716H142.656ZM142.656 171.185H141.906V199.716H142.656H143.406V171.185H142.656ZM142.656 199.716V198.966H114.125V199.716V200.466H142.656V199.716Z" fill="#333843" mask="url(#path-114-inside-55_3634_375)"/>
<mask id="path-116-inside-56_3634_375" fill="white">
<path d="M142.652 171.185H171.183V199.716H142.652V171.185Z"/>
</mask>
<path d="M171.183 199.716V200.466H171.933V199.716H171.183ZM171.183 171.185H170.433V199.716H171.183H171.933V171.185H171.183ZM171.183 199.716V198.966H142.652V199.716V200.466H171.183V199.716Z" fill="#333843" mask="url(#path-116-inside-56_3634_375)"/>
<mask id="path-118-inside-57_3634_375" fill="white">
<path d="M171.184 171.185H199.714V199.716H171.184V171.185Z"/>
</mask>
<path d="M199.714 199.716V200.466H200.464V199.716H199.714ZM199.714 171.185H198.964V199.716H199.714H200.464V171.185H199.714ZM199.714 199.716V198.966H171.184V199.716V200.466H199.714V199.716Z" fill="#333843" mask="url(#path-118-inside-57_3634_375)"/>
<mask id="path-120-inside-58_3634_375" fill="white">
<path d="M199.715 171.185H228.246V199.716H199.715V171.185Z"/>
</mask>
<path d="M228.246 199.716V200.466H228.996V199.716H228.246ZM228.246 171.185H227.496V199.716H228.246H228.996V171.185H228.246ZM228.246 199.716V198.966H199.715V199.716V200.466H228.246V199.716Z" fill="#333843" mask="url(#path-120-inside-58_3634_375)"/>
<mask id="path-122-inside-59_3634_375" fill="white">
<path d="M228.246 171.185H256.777V199.716H228.246V171.185Z"/>
</mask>
<path d="M256.777 199.716V200.466H257.527V199.716H256.777ZM256.777 171.185H256.027V199.716H256.777H257.527V171.185H256.777ZM256.777 199.716V198.966H228.246V199.716V200.466H256.777V199.716Z" fill="#333843" mask="url(#path-122-inside-59_3634_375)"/>
<mask id="path-124-inside-60_3634_375" fill="white">
<path d="M256.777 171.185H285.308V199.716H256.777V171.185Z"/>
</mask>
<path d="M285.308 199.716V200.466H286.058V199.716H285.308ZM285.308 171.185H284.558V199.716H285.308H286.058V171.185H285.308ZM285.308 199.716V198.966H256.777V199.716V200.466H285.308V199.716Z" fill="#333843" mask="url(#path-124-inside-60_3634_375)"/>
<mask id="path-126-inside-61_3634_375" fill="white">
<path d="M313.84 171.185H342.371V199.716H313.84V171.185Z"/>
</mask>
<path d="M313.84 171.185H313.465V172.612H313.84H314.215V171.185H313.84ZM313.84 175.465H313.465V178.318H313.84H314.215V175.465H313.84ZM313.84 181.171H313.465V184.024H313.84H314.215V181.171H313.84ZM313.84 186.877H313.465V189.73H313.84H314.215V186.877H313.84ZM313.84 192.583H313.465V195.436H313.84H314.215V192.583H313.84ZM313.84 198.289H313.465V199.716H313.84H314.215V198.289H313.84ZM313.84 171.185H313.09V172.612H313.84H314.59V171.185H313.84ZM313.84 175.465H313.09V178.318H313.84H314.59V175.465H313.84ZM313.84 181.171H313.09V184.024H313.84H314.59V181.171H313.84ZM313.84 186.877H313.09V189.73H313.84H314.59V186.877H313.84ZM313.84 192.583H313.09V195.436H313.84H314.59V192.583H313.84ZM313.84 198.289H313.09V199.716H313.84H314.59V198.289H313.84Z" fill="#333843" mask="url(#path-126-inside-61_3634_375)"/>
<mask id="path-128-inside-62_3634_375" fill="white">
<path d="M0 199.716H28.5308V228.247H0V199.716Z"/>
</mask>
<path d="M28.5308 228.247V228.622H28.9058V228.247H28.5308ZM0 228.247V228.622H1.42654V228.247V227.872H0V228.247ZM4.27962 228.247V228.622H7.13271V228.247V227.872H4.27962V228.247ZM9.98579 228.247V228.622H12.8389V228.247V227.872H9.98579V228.247ZM15.692 228.247V228.622H18.545V228.247V227.872H15.692V228.247ZM21.3981 228.247V228.622H24.2512V228.247V227.872H21.3981V228.247ZM27.1043 228.247V228.622H28.5308V228.247V227.872H27.1043V228.247ZM28.5308 228.247H28.9058V226.82H28.5308H28.1558V228.247H28.5308ZM28.5308 223.967H28.9058V221.114H28.5308H28.1558V223.967H28.5308ZM28.5308 218.261H28.9058V215.408H28.5308H28.1558V218.261H28.5308ZM28.5308 212.555H28.9058V209.702H28.5308H28.1558V212.555H28.5308ZM28.5308 206.849H28.9058V203.995H28.5308H28.1558V206.849H28.5308ZM28.5308 201.142H28.9058V199.716H28.5308H28.1558V201.142H28.5308ZM28.5308 228.247V228.997H29.2808V228.247H28.5308ZM0 228.247V228.997H1.42654V228.247V227.497H0V228.247ZM4.27962 228.247V228.997H7.13271V228.247V227.497H4.27962V228.247ZM9.98579 228.247V228.997H12.8389V228.247V227.497H9.98579V228.247ZM15.692 228.247V228.997H18.545V228.247V227.497H15.692V228.247ZM21.3981 228.247V228.997H24.2512V228.247V227.497H21.3981V228.247ZM27.1043 228.247V228.997H28.5308V228.247V227.497H27.1043V228.247ZM28.5308 228.247H29.2808V226.82H28.5308H27.7808V228.247H28.5308ZM28.5308 223.967H29.2808V221.114H28.5308H27.7808V223.967H28.5308ZM28.5308 218.261H29.2808V215.408H28.5308H27.7808V218.261H28.5308ZM28.5308 212.555H29.2808V209.702H28.5308H27.7808V212.555H28.5308ZM28.5308 206.849H29.2808V203.995H28.5308H27.7808V206.849H28.5308ZM28.5308 201.142H29.2808V199.716H28.5308H27.7808V201.142H28.5308Z" fill="#333843" mask="url(#path-128-inside-62_3634_375)"/>
<mask id="path-130-inside-63_3634_375" fill="white">
<path d="M28.5312 199.716H57.0621V228.247H28.5312V199.716Z"/>
</mask>
<path d="M28.5312 228.247V228.622H29.9578V228.247V227.872H28.5312V228.247ZM32.8109 228.247V228.622H35.664V228.247V227.872H32.8109V228.247ZM38.517 228.247V228.622H41.3701V228.247V227.872H38.517V228.247ZM44.2232 228.247V228.622H47.0763V228.247V227.872H44.2232V228.247ZM49.9294 228.247V228.622H52.7825V228.247V227.872H49.9294V228.247ZM55.6355 228.247V228.622H57.0621V228.247V227.872H55.6355V228.247ZM28.5312 228.247V228.997H29.9578V228.247V227.497H28.5312V228.247ZM32.8109 228.247V228.997H35.664V228.247V227.497H32.8109V228.247ZM38.517 228.247V228.997H41.3701V228.247V227.497H38.517V228.247ZM44.2232 228.247V228.997H47.0763V228.247V227.497H44.2232V228.247ZM49.9294 228.247V228.997H52.7825V228.247V227.497H49.9294V228.247ZM55.6355 228.247V228.997H57.0621V228.247V227.497H55.6355V228.247Z" fill="#333843" mask="url(#path-130-inside-63_3634_375)"/>
<mask id="path-132-inside-64_3634_375" fill="white">
<path d="M57.0625 199.716H85.5933V228.247H57.0625V199.716Z"/>
</mask>
<path d="M85.5933 228.247V228.997H86.3433V228.247H85.5933ZM57.0625 228.247H56.3125V228.997H57.0625V228.247ZM85.5933 199.716H84.8433V228.247H85.5933H86.3433V199.716H85.5933ZM85.5933 228.247V227.497H57.0625V228.247V228.997H85.5933V228.247ZM57.0625 228.247H57.8125V199.716H57.0625H56.3125V228.247H57.0625Z" fill="#333843" mask="url(#path-132-inside-64_3634_375)"/>
<mask id="path-134-inside-65_3634_375" fill="white">
<path d="M85.5938 199.716H114.125V228.247H85.5938V199.716Z"/>
</mask>
<path d="M114.125 228.247V228.997H114.875V228.247H114.125ZM114.125 199.716H113.375V228.247H114.125H114.875V199.716H114.125ZM114.125 228.247V227.497H85.5938V228.247V228.997H114.125V228.247Z" fill="#333843" mask="url(#path-134-inside-65_3634_375)"/>
<mask id="path-136-inside-66_3634_375" fill="white">
<path d="M114.125 199.716H142.656V228.247H114.125V199.716Z"/>
</mask>
<path d="M142.656 228.247V228.997H143.406V228.247H142.656ZM142.656 199.716H141.906V228.247H142.656H143.406V199.716H142.656ZM142.656 228.247V227.497H114.125V228.247V228.997H142.656V228.247Z" fill="#333843" mask="url(#path-136-inside-66_3634_375)"/>
<mask id="path-138-inside-67_3634_375" fill="white">
<path d="M142.652 199.716H171.183V228.247H142.652V199.716Z"/>
</mask>
<path d="M171.183 228.247V228.997H171.933V228.247H171.183ZM171.183 199.716H170.433V228.247H171.183H171.933V199.716H171.183ZM171.183 228.247V227.497H142.652V228.247V228.997H171.183V228.247Z" fill="#333843" mask="url(#path-138-inside-67_3634_375)"/>
<mask id="path-140-inside-68_3634_375" fill="white">
<path d="M171.184 199.716H199.714V228.247H171.184V199.716Z"/>
</mask>
<path d="M199.714 228.247V228.997H200.464V228.247H199.714ZM199.714 199.716H198.964V228.247H199.714H200.464V199.716H199.714ZM199.714 228.247V227.497H171.184V228.247V228.997H199.714V228.247Z" fill="#333843" mask="url(#path-140-inside-68_3634_375)"/>
<mask id="path-142-inside-69_3634_375" fill="white">
<path d="M199.715 199.716H228.246V228.247H199.715V199.716Z"/>
</mask>
<path d="M228.246 228.247V228.997H228.996V228.247H228.246ZM228.246 199.716H227.496V228.247H228.246H228.996V199.716H228.246ZM228.246 228.247V227.497H199.715V228.247V228.997H228.246V228.247Z" fill="#333843" mask="url(#path-142-inside-69_3634_375)"/>
<mask id="path-144-inside-70_3634_375" fill="white">
<path d="M228.246 199.716H256.777V228.247H228.246V199.716Z"/>
</mask>
<path d="M256.777 228.247V228.997H257.527V228.247H256.777ZM256.777 199.716H256.027V228.247H256.777H257.527V199.716H256.777ZM256.777 228.247V227.497H228.246V228.247V228.997H256.777V228.247Z" fill="#333843" mask="url(#path-144-inside-70_3634_375)"/>
<mask id="path-146-inside-71_3634_375" fill="white">
<path d="M256.777 199.716H285.308V228.247H256.777V199.716Z"/>
</mask>
<path d="M285.308 228.247V228.997H286.058V228.247H285.308ZM285.308 199.716H284.558V228.247H285.308H286.058V199.716H285.308ZM285.308 228.247V227.497H256.777V228.247V228.997H285.308V228.247Z" fill="#333843" mask="url(#path-146-inside-71_3634_375)"/>
<mask id="path-148-inside-72_3634_375" fill="white">
<path d="M285.309 199.716H313.839V228.247H285.309V199.716Z"/>
</mask>
<path d="M285.309 228.247V228.622H286.735V228.247V227.872H285.309V228.247ZM289.588 228.247V228.622H292.441V228.247V227.872H289.588V228.247ZM295.294 228.247V228.622H298.147V228.247V227.872H295.294V228.247ZM301.001 228.247V228.622H303.854V228.247V227.872H301.001V228.247ZM306.707 228.247V228.622H309.56V228.247V227.872H306.707V228.247ZM312.413 228.247V228.622H313.839V228.247V227.872H312.413V228.247ZM285.309 228.247V228.997H286.735V228.247V227.497H285.309V228.247ZM289.588 228.247V228.997H292.441V228.247V227.497H289.588V228.247ZM295.294 228.247V228.997H298.147V228.247V227.497H295.294V228.247ZM301.001 228.247V228.997H303.854V228.247V227.497H301.001V228.247ZM306.707 228.247V228.997H309.56V228.247V227.497H306.707V228.247ZM312.413 228.247V228.997H313.839V228.247V227.497H312.413V228.247Z" fill="#333843" mask="url(#path-148-inside-72_3634_375)"/>
<mask id="path-150-inside-73_3634_375" fill="white">
<path d="M313.84 199.716H342.371V228.247H313.84V199.716Z"/>
</mask>
<path d="M313.84 228.247H313.465V228.622H313.84V228.247ZM313.84 199.716H313.465V201.142H313.84H314.215V199.716H313.84ZM313.84 203.995H313.465V206.849H313.84H314.215V203.995H313.84ZM313.84 209.702H313.465V212.555H313.84H314.215V209.702H313.84ZM313.84 215.408H313.465V218.261H313.84H314.215V215.408H313.84ZM313.84 221.114H313.465V223.967H313.84H314.215V221.114H313.84ZM313.84 226.82H313.465V228.247H313.84H314.215V226.82H313.84ZM313.84 228.247V228.622H315.266V228.247V227.872H313.84V228.247ZM318.119 228.247V228.622H320.973V228.247V227.872H318.119V228.247ZM323.826 228.247V228.622H326.679V228.247V227.872H323.826V228.247ZM329.532 228.247V228.622H332.385V228.247V227.872H329.532V228.247ZM335.238 228.247V228.622H338.091V228.247V227.872H335.238V228.247ZM340.944 228.247V228.622H342.371V228.247V227.872H340.944V228.247ZM313.84 228.247H313.09V228.997H313.84V228.247ZM313.84 199.716H313.09V201.142H313.84H314.59V199.716H313.84ZM313.84 203.995H313.09V206.849H313.84H314.59V203.995H313.84ZM313.84 209.702H313.09V212.555H313.84H314.59V209.702H313.84ZM313.84 215.408H313.09V218.261H313.84H314.59V215.408H313.84ZM313.84 221.114H313.09V223.967H313.84H314.59V221.114H313.84ZM313.84 226.82H313.09V228.247H313.84H314.59V226.82H313.84ZM313.84 228.247V228.997H315.266V228.247V227.497H313.84V228.247ZM318.119 228.247V228.997H320.973V228.247V227.497H318.119V228.247ZM323.826 228.247V228.997H326.679V228.247V227.497H323.826V228.247ZM329.532 228.247V228.997H332.385V228.247V227.497H329.532V228.247ZM335.238 228.247V228.997H338.091V228.247V227.497H335.238V228.247ZM340.944 228.247V228.997H342.371V228.247V227.497H340.944V228.247Z" fill="#333843" mask="url(#path-150-inside-73_3634_375)"/>
<mask id="path-152-inside-74_3634_375" fill="white">
<path d="M0 228.247H28.5308V256.777H0V228.247Z"/>
</mask>
<path d="M28.5308 256.777H28.9058V255.351H28.5308H28.1558V256.777H28.5308ZM28.5308 252.498H28.9058V249.645H28.5308H28.1558V252.498H28.5308ZM28.5308 246.792H28.9058V243.939H28.5308H28.1558V246.792H28.5308ZM28.5308 241.085H28.9058V238.232H28.5308H28.1558V241.085H28.5308ZM28.5308 235.379H28.9058V232.526H28.5308H28.1558V235.379H28.5308ZM28.5308 229.673H28.9058V228.247H28.5308H28.1558V229.673H28.5308ZM28.5308 256.777H29.2808V255.351H28.5308H27.7808V256.777H28.5308ZM28.5308 252.498H29.2808V249.645H28.5308H27.7808V252.498H28.5308ZM28.5308 246.792H29.2808V243.939H28.5308H27.7808V246.792H28.5308ZM28.5308 241.085H29.2808V238.232H28.5308H27.7808V241.085H28.5308ZM28.5308 235.379H29.2808V232.526H28.5308H27.7808V235.379H28.5308ZM28.5308 229.673H29.2808V228.247H28.5308H27.7808V229.673H28.5308Z" fill="#333843" mask="url(#path-152-inside-74_3634_375)"/>
<rect x="7.96094" y="235.954" width="12.6238" height="12.6238" rx="6.31191" fill="#272B2E"/>
<rect x="7.96094" y="235.954" width="12.6238" height="12.6238" rx="6.31191" stroke="#333843" stroke-width="0.75"/>
<path d="M16.4951 238.88L17.6562 240.042L17.9219 240.307L17.6562 240.573L15.9639 242.264L17.9238 244.224L17.6582 244.489L16.4971 245.65L16.2324 245.916L14.2725 243.956L12.5791 245.65L12.3135 245.916L12.0488 245.65L10.8867 244.489L10.6221 244.224L10.8867 243.958L12.5811 242.264L10.624 240.307L10.8896 240.042L12.0508 238.88L12.3154 238.616L12.5811 238.88L14.2725 240.573L15.9648 238.88L16.2305 238.616L16.4951 238.88Z" fill="#191C1E" stroke="#333843" stroke-width="0.75"/>
<mask id="path-156-inside-75_3634_375" fill="white">
<path d="M57.0625 228.247H85.5933V256.777H57.0625V228.247Z"/>
</mask>
<path d="M85.5933 256.777V257.527H86.3433V256.777H85.5933ZM57.0625 256.777H56.3125V257.527H57.0625V256.777ZM85.5933 228.247H84.8433V256.777H85.5933H86.3433V228.247H85.5933ZM85.5933 256.777V256.027H57.0625V256.777V257.527H85.5933V256.777ZM57.0625 256.777H57.8125V228.247H57.0625H56.3125V256.777H57.0625Z" fill="#333843" mask="url(#path-156-inside-75_3634_375)"/>
<mask id="path-158-inside-76_3634_375" fill="white">
<path d="M85.5938 228.247H114.125V256.777H85.5938V228.247Z"/>
</mask>
<path d="M114.125 256.777V257.527H114.875V256.777H114.125ZM114.125 228.247H113.375V256.777H114.125H114.875V228.247H114.125ZM114.125 256.777V256.027H85.5938V256.777V257.527H114.125V256.777Z" fill="#333843" mask="url(#path-158-inside-76_3634_375)"/>
<mask id="path-160-inside-77_3634_375" fill="white">
<path d="M114.125 228.247H142.656V256.777H114.125V228.247Z"/>
</mask>
<path d="M142.656 228.247H141.906V256.777H142.656H143.406V228.247H142.656Z" fill="#333843" mask="url(#path-160-inside-77_3634_375)"/>
<mask id="path-162-inside-78_3634_375" fill="white">
<path d="M142.652 228.247H171.183V256.777H142.652V228.247Z"/>
</mask>
<path d="M171.183 228.247H170.433V256.777H171.183H171.933V228.247H171.183Z" fill="#333843" mask="url(#path-162-inside-78_3634_375)"/>
<mask id="path-164-inside-79_3634_375" fill="white">
<path d="M171.184 228.247H199.714V256.777H171.184V228.247Z"/>
</mask>
<path d="M199.714 228.247H198.964V256.777H199.714H200.464V228.247H199.714Z" fill="#333843" mask="url(#path-164-inside-79_3634_375)"/>
<mask id="path-166-inside-80_3634_375" fill="white">
<path d="M199.715 228.247H228.246V256.777H199.715V228.247Z"/>
</mask>
<path d="M228.246 256.777V257.527H228.996V256.777H228.246ZM228.246 228.247H227.496V256.777H228.246H228.996V228.247H228.246ZM228.246 256.777V256.027H199.715V256.777V257.527H228.246V256.777Z" fill="#333843" mask="url(#path-166-inside-80_3634_375)"/>
<mask id="path-168-inside-81_3634_375" fill="white">
<path d="M228.246 228.247H256.777V256.777H228.246V228.247Z"/>
</mask>
<path d="M256.777 256.777V257.527H257.527V256.777H256.777ZM256.777 228.247H256.027V256.777H256.777H257.527V228.247H256.777ZM256.777 256.777V256.027H228.246V256.777V257.527H256.777V256.777Z" fill="#333843" mask="url(#path-168-inside-81_3634_375)"/>
<mask id="path-170-inside-82_3634_375" fill="white">
<path d="M256.777 228.247H285.308V256.777H256.777V228.247Z"/>
</mask>
<path d="M285.308 228.247H284.558V256.777H285.308H286.058V228.247H285.308Z" fill="#333843" mask="url(#path-170-inside-82_3634_375)"/>
<mask id="path-172-inside-83_3634_375" fill="white">
<path d="M313.84 228.247H342.371V256.777H313.84V228.247Z"/>
</mask>
<path d="M313.84 228.247H313.465V229.673H313.84H314.215V228.247H313.84ZM313.84 232.526H313.465V235.379H313.84H314.215V232.526H313.84ZM313.84 238.232H313.465V241.085H313.84H314.215V238.232H313.84ZM313.84 243.939H313.465V246.792H313.84H314.215V243.939H313.84ZM313.84 249.645H313.465V252.498H313.84H314.215V249.645H313.84ZM313.84 255.351H313.465V256.777H313.84H314.215V255.351H313.84ZM313.84 228.247H313.09V229.673H313.84H314.59V228.247H313.84ZM313.84 232.526H313.09V235.379H313.84H314.59V232.526H313.84ZM313.84 238.232H313.09V241.085H313.84H314.59V238.232H313.84ZM313.84 243.939H313.09V246.792H313.84H314.59V243.939H313.84ZM313.84 249.645H313.09V252.498H313.84H314.59V249.645H313.84ZM313.84 255.351H313.09V256.777H313.84H314.59V255.351H313.84Z" fill="#333843" mask="url(#path-172-inside-83_3634_375)"/>
<rect x="321.871" y="235.954" width="12.6238" height="12.6238" rx="6.31191" fill="#272B2E"/>
<rect x="321.871" y="235.954" width="12.6238" height="12.6238" rx="6.31191" stroke="#333843" stroke-width="0.75"/>
<path d="M330.405 238.88L331.566 240.042L331.832 240.307L331.566 240.573L329.874 242.264L331.834 244.224L331.568 244.489L330.407 245.65L330.143 245.916L328.183 243.956L326.489 245.65L326.224 245.916L325.959 245.65L324.797 244.489L324.532 244.224L324.797 243.958L326.491 242.264L324.534 240.307L324.8 240.042L325.961 238.88L326.226 238.616L326.491 238.88L328.183 240.573L329.875 238.88L330.141 238.616L330.405 238.88Z" fill="#191C1E" stroke="#333843" stroke-width="0.75"/>
<circle cx="256.25" cy="28.25" r="1.875" fill="#272B2E" stroke="#333843" stroke-width="0.75"/>
<circle cx="85.25" cy="28.25" r="1.875" fill="#272B2E" stroke="#333843" stroke-width="0.75"/>
<circle cx="57.25" cy="57.25" r="1.875" fill="#272B2E" stroke="#333843" stroke-width="0.75"/>
<circle cx="57.25" cy="142.25" r="1.875" fill="#272B2E" stroke="#333843" stroke-width="0.75"/>
<circle cx="285.25" cy="57.25" r="1.875" fill="#272B2E" stroke="#333843" stroke-width="0.75"/>
<circle cx="285.25" cy="142.25" r="1.875" fill="#272B2E" stroke="#333843" stroke-width="0.75"/>
</svg>
