<svg width="675" height="434" viewBox="0 0 675 434" fill="none" xmlns="http://www.w3.org/2000/svg">
<rect x="0.5" y="0.5" width="673.667" height="432.714" rx="17.5" stroke="#333843"/>
<mask id="path-2-inside-1_3634_32" fill="white">
<path d="M0 0H48.1905V48.1905H0V0Z"/>
</mask>
<path d="M48.1905 48.1905V48.6905H48.6905V48.1905H48.1905ZM0 48.1905V48.6905H2.40952V48.1905V47.6905H0V48.1905ZM7.22857 48.1905V48.6905H12.0476V48.1905V47.6905H7.22857V48.1905ZM16.8667 48.1905V48.6905H21.6857V48.1905V47.6905H16.8667V48.1905ZM26.5048 48.1905V48.6905H31.3238V48.1905V47.6905H26.5048V48.1905ZM36.1429 48.1905V48.6905H40.9619V48.1905V47.6905H36.1429V48.1905ZM45.7809 48.1905V48.6905H48.1905V48.1905V47.6905H45.7809V48.1905ZM48.1905 48.1905H48.6905V45.781H48.1905H47.6905V48.1905H48.1905ZM48.1905 40.9619H48.6905V36.1429H48.1905H47.6905V40.9619H48.1905ZM48.1905 31.3238H48.6905V26.5048H48.1905H47.6905V31.3238H48.1905ZM48.1905 21.6857H48.6905V16.8667H48.1905H47.6905V21.6857H48.1905ZM48.1905 12.0476H48.6905V7.22857H48.1905H47.6905V12.0476H48.1905ZM48.1905 2.40953H48.6905V0H48.1905H47.6905V2.40953H48.1905ZM48.1905 48.1905V49.1905H49.1905V48.1905H48.1905ZM0 48.1905V49.1905H2.40952V48.1905V47.1905H0V48.1905ZM7.22857 48.1905V49.1905H12.0476V48.1905V47.1905H7.22857V48.1905ZM16.8667 48.1905V49.1905H21.6857V48.1905V47.1905H16.8667V48.1905ZM26.5048 48.1905V49.1905H31.3238V48.1905V47.1905H26.5048V48.1905ZM36.1429 48.1905V49.1905H40.9619V48.1905V47.1905H36.1429V48.1905ZM45.7809 48.1905V49.1905H48.1905V48.1905V47.1905H45.7809V48.1905ZM48.1905 48.1905H49.1905V45.781H48.1905H47.1905V48.1905H48.1905ZM48.1905 40.9619H49.1905V36.1429H48.1905H47.1905V40.9619H48.1905ZM48.1905 31.3238H49.1905V26.5048H48.1905H47.1905V31.3238H48.1905ZM48.1905 21.6857H49.1905V16.8667H48.1905H47.1905V21.6857H48.1905ZM48.1905 12.0476H49.1905V7.22857H48.1905H47.1905V12.0476H48.1905ZM48.1905 2.40953H49.1905V0H48.1905H47.1905V2.40953H48.1905Z" fill="#333843" mask="url(#path-2-inside-1_3634_32)"/>
<mask id="path-4-inside-2_3634_32" fill="white">
<path d="M48.1914 0H96.3819V48.1905H48.1914V0Z"/>
</mask>
<path d="M48.1914 48.1905V48.6905H50.6009V48.1905V47.6905H48.1914V48.1905ZM55.42 48.1905V48.6905H60.239V48.1905V47.6905H55.42V48.1905ZM65.0581 48.1905V48.6905H69.8771V48.1905V47.6905H65.0581V48.1905ZM74.6962 48.1905V48.6905H79.5152V48.1905V47.6905H74.6962V48.1905ZM84.3343 48.1905V48.6905H89.1533V48.1905V47.6905H84.3343V48.1905ZM93.9724 48.1905V48.6905H96.3819V48.1905V47.6905H93.9724V48.1905ZM48.1914 48.1905V49.1905H50.6009V48.1905V47.1905H48.1914V48.1905ZM55.42 48.1905V49.1905H60.239V48.1905V47.1905H55.42V48.1905ZM65.0581 48.1905V49.1905H69.8771V48.1905V47.1905H65.0581V48.1905ZM74.6962 48.1905V49.1905H79.5152V48.1905V47.1905H74.6962V48.1905ZM84.3343 48.1905V49.1905H89.1533V48.1905V47.1905H84.3343V48.1905ZM93.9724 48.1905V49.1905H96.3819V48.1905V47.1905H93.9724V48.1905Z" fill="#333843" mask="url(#path-4-inside-2_3634_32)"/>
<mask id="path-6-inside-3_3634_32" fill="white">
<path d="M96.3828 0H144.573V48.1905H96.3828V0Z"/>
</mask>
<path d="M96.3828 48.1905V48.6905H98.7923V48.1905V47.6905H96.3828V48.1905ZM103.611 48.1905V48.6905H108.43V48.1905V47.6905H103.611V48.1905ZM113.249 48.1905V48.6905H118.069V48.1905V47.6905H113.249V48.1905ZM122.888 48.1905V48.6905H127.707V48.1905V47.6905H122.888V48.1905ZM132.526 48.1905V48.6905H137.345V48.1905V47.6905H132.526V48.1905ZM142.164 48.1905V48.6905H144.573V48.1905V47.6905H142.164V48.1905ZM96.3828 48.1905V49.1905H98.7923V48.1905V47.1905H96.3828V48.1905ZM103.611 48.1905V49.1905H108.43V48.1905V47.1905H103.611V48.1905ZM113.249 48.1905V49.1905H118.069V48.1905V47.1905H113.249V48.1905ZM122.888 48.1905V49.1905H127.707V48.1905V47.1905H122.888V48.1905ZM132.526 48.1905V49.1905H137.345V48.1905V47.1905H132.526V48.1905ZM142.164 48.1905V49.1905H144.573V48.1905V47.1905H142.164V48.1905Z" fill="#333843" mask="url(#path-6-inside-3_3634_32)"/>
<mask id="path-8-inside-4_3634_32" fill="white">
<path d="M144.57 0H192.761V48.1905H144.57V0Z"/>
</mask>
<path d="M192.761 48.1905V49.1905H193.761V48.1905H192.761ZM144.57 48.1905H143.57V49.1905H144.57V48.1905ZM192.761 0H191.761V48.1905H192.761H193.761V0H192.761ZM192.761 48.1905V47.1905H144.57V48.1905V49.1905H192.761V48.1905ZM144.57 48.1905H145.57V0H144.57H143.57V48.1905H144.57Z" fill="#333843" mask="url(#path-8-inside-4_3634_32)"/>
<mask id="path-10-inside-5_3634_32" fill="white">
<path d="M192.762 0H240.952V48.1905H192.762V0Z"/>
</mask>
<path d="M240.952 48.1905V49.1905H241.952V48.1905H240.952ZM240.952 0H239.952V48.1905H240.952H241.952V0H240.952ZM240.952 48.1905V47.1905H192.762V48.1905V49.1905H240.952V48.1905Z" fill="#333843" mask="url(#path-10-inside-5_3634_32)"/>
<mask id="path-12-inside-6_3634_32" fill="white">
<path d="M240.953 0H289.144V48.1905H240.953V0Z"/>
</mask>
<path d="M289.144 48.1905V49.1905H290.144V48.1905H289.144ZM289.144 0H288.144V48.1905H289.144H290.144V0H289.144ZM289.144 48.1905V47.1905H240.953V48.1905V49.1905H289.144V48.1905Z" fill="#333843" mask="url(#path-12-inside-6_3634_32)"/>
<mask id="path-14-inside-7_3634_32" fill="white">
<path d="M289.145 0H337.335V48.1905H289.145V0Z"/>
</mask>
<path d="M337.335 48.1905V49.1905H338.335V48.1905H337.335ZM337.335 0H336.335V48.1905H337.335H338.335V0H337.335ZM337.335 48.1905V47.1905H289.145V48.1905V49.1905H337.335V48.1905Z" fill="#333843" mask="url(#path-14-inside-7_3634_32)"/>
<mask id="path-16-inside-8_3634_32" fill="white">
<path d="M337.332 0H385.523V48.1905H337.332V0Z"/>
</mask>
<path d="M385.523 48.1905V49.1905H386.523V48.1905H385.523ZM385.523 0H384.523V48.1905H385.523H386.523V0H385.523ZM385.523 48.1905V47.1905H337.332V48.1905V49.1905H385.523V48.1905Z" fill="#333843" mask="url(#path-16-inside-8_3634_32)"/>
<mask id="path-18-inside-9_3634_32" fill="white">
<path d="M385.523 0H433.714V48.1905H385.523V0Z"/>
</mask>
<path d="M433.714 48.1905V49.1905H434.714V48.1905H433.714ZM433.714 0H432.714V48.1905H433.714H434.714V0H433.714ZM433.714 48.1905V47.1905H385.523V48.1905V49.1905H433.714V48.1905Z" fill="#333843" mask="url(#path-18-inside-9_3634_32)"/>
<mask id="path-20-inside-10_3634_32" fill="white">
<path d="M433.715 0H481.905V48.1905H433.715V0Z"/>
</mask>
<path d="M481.905 48.1905V49.1905H482.905V48.1905H481.905ZM481.905 0H480.905V48.1905H481.905H482.905V0H481.905ZM481.905 48.1905V47.1905H433.715V48.1905V49.1905H481.905V48.1905Z" fill="#333843" mask="url(#path-20-inside-10_3634_32)"/>
<mask id="path-22-inside-11_3634_32" fill="white">
<path d="M481.906 0H530.097V48.1905H481.906V0Z"/>
</mask>
<path d="M530.097 48.1905V49.1905H531.097V48.1905H530.097ZM530.097 0H529.097V48.1905H530.097H531.097V0H530.097ZM530.097 48.1905V47.1905H481.906V48.1905V49.1905H530.097V48.1905Z" fill="#333843" mask="url(#path-22-inside-11_3634_32)"/>
<mask id="path-24-inside-12_3634_32" fill="white">
<path d="M530.094 0H578.284V48.1905H530.094V0Z"/>
</mask>
<path d="M530.094 48.1905V48.6905H532.503V48.1905V47.6905H530.094V48.1905ZM537.322 48.1905V48.6905H542.141V48.1905V47.6905H537.322V48.1905ZM546.96 48.1905V48.6905H551.779V48.1905V47.6905H546.96V48.1905ZM556.599 48.1905V48.6905H561.418V48.1905V47.6905H556.599V48.1905ZM566.237 48.1905V48.6905H571.056V48.1905V47.6905H566.237V48.1905ZM575.875 48.1905V48.6905H578.284V48.1905V47.6905H575.875V48.1905ZM530.094 48.1905V49.1905H532.503V48.1905V47.1905H530.094V48.1905ZM537.322 48.1905V49.1905H542.141V48.1905V47.1905H537.322V48.1905ZM546.96 48.1905V49.1905H551.779V48.1905V47.1905H546.96V48.1905ZM556.599 48.1905V49.1905H561.418V48.1905V47.1905H556.599V48.1905ZM566.237 48.1905V49.1905H571.056V48.1905V47.1905H566.237V48.1905ZM575.875 48.1905V49.1905H578.284V48.1905V47.1905H575.875V48.1905Z" fill="#333843" mask="url(#path-24-inside-12_3634_32)"/>
<mask id="path-26-inside-13_3634_32" fill="white">
<path d="M578.285 0H626.476V48.1905H578.285V0Z"/>
</mask>
<path d="M578.285 48.1905V48.6905H580.695V48.1905V47.6905H578.285V48.1905ZM585.514 48.1905V48.6905H590.333V48.1905V47.6905H585.514V48.1905ZM595.152 48.1905V48.6905H599.971V48.1905V47.6905H595.152V48.1905ZM604.79 48.1905V48.6905H609.609V48.1905V47.6905H604.79V48.1905ZM614.428 48.1905V48.6905H619.247V48.1905V47.6905H614.428V48.1905ZM624.066 48.1905V48.6905H626.476V48.1905V47.6905H624.066V48.1905ZM578.285 48.1905V49.1905H580.695V48.1905V47.1905H578.285V48.1905ZM585.514 48.1905V49.1905H590.333V48.1905V47.1905H585.514V48.1905ZM595.152 48.1905V49.1905H599.971V48.1905V47.1905H595.152V48.1905ZM604.79 48.1905V49.1905H609.609V48.1905V47.1905H604.79V48.1905ZM614.428 48.1905V49.1905H619.247V48.1905V47.1905H614.428V48.1905ZM624.066 48.1905V49.1905H626.476V48.1905V47.1905H624.066V48.1905Z" fill="#333843" mask="url(#path-26-inside-13_3634_32)"/>
<mask id="path-28-inside-14_3634_32" fill="white">
<path d="M626.477 0H674.667V48.1905H626.477V0Z"/>
</mask>
<path d="M626.477 48.1905H625.977V48.6905H626.477V48.1905ZM626.477 0H625.977V2.40952H626.477H626.977V0H626.477ZM626.477 7.22857H625.977V12.0476H626.477H626.977V7.22857H626.477ZM626.477 16.8667H625.977V21.6857H626.477H626.977V16.8667H626.477ZM626.477 26.5048H625.977V31.3238H626.477H626.977V26.5048H626.477ZM626.477 36.1429H625.977V40.9619H626.477H626.977V36.1429H626.477ZM626.477 45.7809H625.977V48.1905H626.477H626.977V45.7809H626.477ZM626.477 48.1905V48.6905H628.886V48.1905V47.6905H626.477V48.1905ZM633.705 48.1905V48.6905H638.524V48.1905V47.6905H633.705V48.1905ZM643.343 48.1905V48.6905H648.162V48.1905V47.6905H643.343V48.1905ZM652.981 48.1905V48.6905H657.8V48.1905V47.6905H652.981V48.1905ZM662.619 48.1905V48.6905H667.438V48.1905V47.6905H662.619V48.1905ZM672.258 48.1905V48.6905H674.667V48.1905V47.6905H672.258V48.1905ZM626.477 48.1905H625.477V49.1905H626.477V48.1905ZM626.477 0H625.477V2.40952H626.477H627.477V0H626.477ZM626.477 7.22857H625.477V12.0476H626.477H627.477V7.22857H626.477ZM626.477 16.8667H625.477V21.6857H626.477H627.477V16.8667H626.477ZM626.477 26.5048H625.477V31.3238H626.477H627.477V26.5048H626.477ZM626.477 36.1429H625.477V40.9619H626.477H627.477V36.1429H626.477ZM626.477 45.7809H625.477V48.1905H626.477H627.477V45.7809H626.477ZM626.477 48.1905V49.1905H628.886V48.1905V47.1905H626.477V48.1905ZM633.705 48.1905V49.1905H638.524V48.1905V47.1905H633.705V48.1905ZM643.343 48.1905V49.1905H648.162V48.1905V47.1905H643.343V48.1905ZM652.981 48.1905V49.1905H657.8V48.1905V47.1905H652.981V48.1905ZM662.619 48.1905V49.1905H667.438V48.1905V47.1905H662.619V48.1905ZM672.258 48.1905V49.1905H674.667V48.1905V47.1905H672.258V48.1905Z" fill="#333843" mask="url(#path-28-inside-14_3634_32)"/>
<rect x="13.3008" y="13.3013" width="21.5893" height="21.5893" rx="10.7946" fill="#272B2E"/>
<rect x="13.3008" y="13.3013" width="21.5893" height="21.5893" rx="10.7946" stroke="#333843"/>
<path d="M27.7549 18.4731L29.7158 20.4351L30.0693 20.7886L26.7637 24.0942L30.0732 27.4038L29.7197 27.7573L27.7578 29.7183L27.4043 30.0718L24.0947 26.7622L21.1396 29.7183L20.7861 30.0718L20.4326 29.7183L18.4707 27.7573L18.1172 27.4038L18.4707 27.0503L21.4258 24.0942L18.1201 20.7886L20.7891 18.1196L24.0947 21.4253L27.0479 18.4731L27.4014 18.1196L27.7549 18.4731Z" fill="#191C1E" stroke="#333843"/>
<rect x="639.773" y="13.3013" width="21.5893" height="21.5893" rx="10.7946" fill="#272B2E"/>
<rect x="639.773" y="13.3013" width="21.5893" height="21.5893" rx="10.7946" stroke="#333843"/>
<path d="M654.228 18.4731L656.188 20.4351L656.542 20.7886L653.236 24.0942L656.546 27.4038L656.192 27.7573L654.23 29.7183L653.877 30.0718L650.567 26.7622L647.612 29.7183L647.259 30.0718L646.905 29.7183L644.943 27.7573L644.59 27.4038L644.943 27.0503L647.898 24.0942L644.593 20.7886L647.262 18.1196L650.567 21.4253L653.521 18.4731L653.874 18.1196L654.228 18.4731Z" fill="#191C1E" stroke="#333843"/>
<mask id="path-34-inside-15_3634_32" fill="white">
<path d="M0 48.1904H48.1905V96.3809H0V48.1904Z"/>
</mask>
<path d="M48.1905 96.3809H48.6905V93.9714H48.1905H47.6905V96.3809H48.1905ZM48.1905 89.1523H48.6905V84.3333H48.1905H47.6905V89.1523H48.1905ZM48.1905 79.5142H48.6905V74.6952H48.1905H47.6905V79.5142H48.1905ZM48.1905 69.8761H48.6905V65.0571H48.1905H47.6905V69.8761H48.1905ZM48.1905 60.238H48.6905V55.419H48.1905H47.6905V60.238H48.1905ZM48.1905 50.6H48.6905V48.1904H48.1905H47.6905V50.6H48.1905ZM48.1905 96.3809H49.1905V93.9714H48.1905H47.1905V96.3809H48.1905ZM48.1905 89.1523H49.1905V84.3333H48.1905H47.1905V89.1523H48.1905ZM48.1905 79.5142H49.1905V74.6952H48.1905H47.1905V79.5142H48.1905ZM48.1905 69.8761H49.1905V65.0571H48.1905H47.1905V69.8761H48.1905ZM48.1905 60.238H49.1905V55.419H48.1905H47.1905V60.238H48.1905ZM48.1905 50.6H49.1905V48.1904H48.1905H47.1905V50.6H48.1905Z" fill="#333843" mask="url(#path-34-inside-15_3634_32)"/>
<mask id="path-36-inside-16_3634_32" fill="white">
<path d="M144.57 48.1904H192.761V96.3809H144.57V48.1904Z"/>
</mask>
<path d="M192.761 48.1904H191.761V96.3809H192.761H193.761V48.1904H192.761ZM144.57 96.3809H145.57V48.1904H144.57H143.57V96.3809H144.57Z" fill="#333843" mask="url(#path-36-inside-16_3634_32)"/>
<mask id="path-38-inside-17_3634_32" fill="white">
<path d="M192.762 48.1904H240.952V96.3809H192.762V48.1904Z"/>
</mask>
<path d="M240.952 48.1904H239.952V96.3809H240.952H241.952V48.1904H240.952Z" fill="#333843" mask="url(#path-38-inside-17_3634_32)"/>
<mask id="path-40-inside-18_3634_32" fill="white">
<path d="M385.523 48.1904H433.714V96.3809H385.523V48.1904Z"/>
</mask>
<path d="M433.714 48.1904H432.714V96.3809H433.714H434.714V48.1904H433.714Z" fill="#333843" mask="url(#path-40-inside-18_3634_32)"/>
<mask id="path-42-inside-19_3634_32" fill="white">
<path d="M433.715 48.1904H481.905V96.3809H433.715V48.1904Z"/>
</mask>
<path d="M481.905 48.1904H480.905V96.3809H481.905H482.905V48.1904H481.905Z" fill="#333843" mask="url(#path-42-inside-19_3634_32)"/>
<mask id="path-44-inside-20_3634_32" fill="white">
<path d="M481.906 48.1904H530.097V96.3809H481.906V48.1904Z"/>
</mask>
<path d="M530.097 48.1904H529.097V96.3809H530.097H531.097V48.1904H530.097Z" fill="#333843" mask="url(#path-44-inside-20_3634_32)"/>
<mask id="path-46-inside-21_3634_32" fill="white">
<path d="M626.477 48.1904H674.667V96.3809H626.477V48.1904Z"/>
</mask>
<path d="M626.477 48.1904H625.977V50.6H626.477H626.977V48.1904H626.477ZM626.477 55.419H625.977V60.238H626.477H626.977V55.419H626.477ZM626.477 65.0571H625.977V69.8761H626.477H626.977V65.0571H626.477ZM626.477 74.6952H625.977V79.5142H626.477H626.977V74.6952H626.477ZM626.477 84.3333H625.977V89.1523H626.477H626.977V84.3333H626.477ZM626.477 93.9714H625.977V96.3809H626.477H626.977V93.9714H626.477ZM626.477 48.1904H625.477V50.6H626.477H627.477V48.1904H626.477ZM626.477 55.419H625.477V60.238H626.477H627.477V55.419H626.477ZM626.477 65.0571H625.477V69.8761H626.477H627.477V65.0571H626.477ZM626.477 74.6952H625.477V79.5142H626.477H627.477V74.6952H626.477ZM626.477 84.3333H625.477V89.1523H626.477H627.477V84.3333H626.477ZM626.477 93.9714H625.477V96.3809H626.477H627.477V93.9714H626.477Z" fill="#333843" mask="url(#path-46-inside-21_3634_32)"/>
<mask id="path-48-inside-22_3634_32" fill="white">
<path d="M0 96.3809H48.1905V144.571H0V96.3809Z"/>
</mask>
<path d="M48.1905 144.571H48.6905V142.162H48.1905H47.6905V144.571H48.1905ZM48.1905 137.343H48.6905V132.524H48.1905H47.6905V137.343H48.1905ZM48.1905 127.705H48.6905V122.886H48.1905H47.6905V127.705H48.1905ZM48.1905 118.067H48.6905V113.248H48.1905H47.6905V118.067H48.1905ZM48.1905 108.428H48.6905V103.609H48.1905H47.6905V108.428H48.1905ZM48.1905 98.7904H48.6905V96.3809H48.1905H47.6905V98.7904H48.1905ZM48.1905 144.571H49.1905V142.162H48.1905H47.1905V144.571H48.1905ZM48.1905 137.343H49.1905V132.524H48.1905H47.1905V137.343H48.1905ZM48.1905 127.705H49.1905V122.886H48.1905H47.1905V127.705H48.1905ZM48.1905 118.067H49.1905V113.248H48.1905H47.1905V118.067H48.1905ZM48.1905 108.428H49.1905V103.609H48.1905H47.1905V108.428H48.1905ZM48.1905 98.7904H49.1905V96.3809H48.1905H47.1905V98.7904H48.1905Z" fill="#333843" mask="url(#path-48-inside-22_3634_32)"/>
<mask id="path-50-inside-23_3634_32" fill="white">
<path d="M144.57 96.3809H192.761V144.571H144.57V96.3809Z"/>
</mask>
<path d="M144.57 96.3809V95.3809H143.57V96.3809H144.57ZM144.57 96.3809V97.3809H192.761V96.3809V95.3809H144.57V96.3809ZM144.57 144.571H145.57V96.3809H144.57H143.57V144.571H144.57Z" fill="#333843" mask="url(#path-50-inside-23_3634_32)"/>
<mask id="path-52-inside-24_3634_32" fill="white">
<path d="M192.762 96.3809H240.952V144.571H192.762V96.3809Z"/>
</mask>
<path d="M192.762 96.3809V97.3809H240.952V96.3809V95.3809H192.762V96.3809Z" fill="#333843" mask="url(#path-52-inside-24_3634_32)"/>
<mask id="path-54-inside-25_3634_32" fill="white">
<path d="M240.953 96.3809H289.144V144.571H240.953V96.3809Z"/>
</mask>
<path d="M240.953 96.3809V97.3809H289.144V96.3809V95.3809H240.953V96.3809Z" fill="#333843" mask="url(#path-54-inside-25_3634_32)"/>
<mask id="path-56-inside-26_3634_32" fill="white">
<path d="M289.145 96.3809H337.335V144.571H289.145V96.3809Z"/>
</mask>
<path d="M289.145 96.3809V97.3809H337.335V96.3809V95.3809H289.145V96.3809Z" fill="#333843" mask="url(#path-56-inside-26_3634_32)"/>
<mask id="path-58-inside-27_3634_32" fill="white">
<path d="M337.332 96.3809H385.523V144.571H337.332V96.3809Z"/>
</mask>
<path d="M337.332 96.3809V97.3809H385.523V96.3809V95.3809H337.332V96.3809Z" fill="#333843" mask="url(#path-58-inside-27_3634_32)"/>
<mask id="path-60-inside-28_3634_32" fill="white">
<path d="M385.523 96.3809H433.714V144.571H385.523V96.3809Z"/>
</mask>
<path d="M385.523 96.3809V97.3809H433.714V96.3809V95.3809H385.523V96.3809Z" fill="#333843" mask="url(#path-60-inside-28_3634_32)"/>
<mask id="path-62-inside-29_3634_32" fill="white">
<path d="M433.715 96.3809H481.905V144.571H433.715V96.3809Z"/>
</mask>
<path d="M433.715 96.3809V97.3809H481.905V96.3809V95.3809H433.715V96.3809Z" fill="#333843" mask="url(#path-62-inside-29_3634_32)"/>
<mask id="path-64-inside-30_3634_32" fill="white">
<path d="M481.906 96.3809H530.097V144.571H481.906V96.3809Z"/>
</mask>
<path d="M530.097 96.3809H531.097V95.3809H530.097V96.3809ZM481.906 96.3809V97.3809H530.097V96.3809V95.3809H481.906V96.3809ZM530.097 96.3809H529.097V144.571H530.097H531.097V96.3809H530.097Z" fill="#333843" mask="url(#path-64-inside-30_3634_32)"/>
<mask id="path-66-inside-31_3634_32" fill="white">
<path d="M626.477 96.3809H674.667V144.571H626.477V96.3809Z"/>
</mask>
<path d="M626.477 96.3809H625.977V98.7904H626.477H626.977V96.3809H626.477ZM626.477 103.609H625.977V108.428H626.477H626.977V103.609H626.477ZM626.477 113.248H625.977V118.067H626.477H626.977V113.248H626.477ZM626.477 122.886H625.977V127.705H626.477H626.977V122.886H626.477ZM626.477 132.524H625.977V137.343H626.477H626.977V132.524H626.477ZM626.477 142.162H625.977V144.571H626.477H626.977V142.162H626.477ZM626.477 96.3809H625.477V98.7904H626.477H627.477V96.3809H626.477ZM626.477 103.609H625.477V108.428H626.477H627.477V103.609H626.477ZM626.477 113.248H625.477V118.067H626.477H627.477V113.248H626.477ZM626.477 122.886H625.477V127.705H626.477H627.477V122.886H626.477ZM626.477 132.524H625.477V137.343H626.477H627.477V132.524H626.477ZM626.477 142.162H625.477V144.571H626.477H627.477V142.162H626.477Z" fill="#333843" mask="url(#path-66-inside-31_3634_32)"/>
<mask id="path-68-inside-32_3634_32" fill="white">
<path d="M0 144.571H48.1905V192.762H0V144.571Z"/>
</mask>
<path d="M48.1905 192.762H48.6905V190.352H48.1905H47.6905V192.762H48.1905ZM48.1905 185.533H48.6905V180.714H48.1905H47.6905V185.533H48.1905ZM48.1905 175.895H48.6905V171.076H48.1905H47.6905V175.895H48.1905ZM48.1905 166.257H48.6905V161.438H48.1905H47.6905V166.257H48.1905ZM48.1905 156.619H48.6905V151.8H48.1905H47.6905V156.619H48.1905ZM48.1905 146.981H48.6905V144.571H48.1905H47.6905V146.981H48.1905ZM48.1905 192.762H49.1905V190.352H48.1905H47.1905V192.762H48.1905ZM48.1905 185.533H49.1905V180.714H48.1905H47.1905V185.533H48.1905ZM48.1905 175.895H49.1905V171.076H48.1905H47.1905V175.895H48.1905ZM48.1905 166.257H49.1905V161.438H48.1905H47.1905V166.257H48.1905ZM48.1905 156.619H49.1905V151.8H48.1905H47.1905V156.619H48.1905ZM48.1905 146.981H49.1905V144.571H48.1905H47.1905V146.981H48.1905Z" fill="#333843" mask="url(#path-68-inside-32_3634_32)"/>
<mask id="path-70-inside-33_3634_32" fill="white">
<path d="M144.57 144.571H192.761V192.762H144.57V144.571Z"/>
</mask>
<path d="M144.57 192.762H145.57V144.571H144.57H143.57V192.762H144.57Z" fill="#333843" mask="url(#path-70-inside-33_3634_32)"/>
<mask id="path-72-inside-34_3634_32" fill="white">
<path d="M481.906 144.571H530.097V192.762H481.906V144.571Z"/>
</mask>
<path d="M530.097 144.571H529.097V192.762H530.097H531.097V144.571H530.097Z" fill="#333843" mask="url(#path-72-inside-34_3634_32)"/>
<mask id="path-74-inside-35_3634_32" fill="white">
<path d="M626.477 144.571H674.667V192.762H626.477V144.571Z"/>
</mask>
<path d="M626.477 144.571H625.977V146.981H626.477H626.977V144.571H626.477ZM626.477 151.8H625.977V156.619H626.477H626.977V151.8H626.477ZM626.477 161.438H625.977V166.257H626.477H626.977V161.438H626.477ZM626.477 171.076H625.977V175.895H626.477H626.977V171.076H626.477ZM626.477 180.714H625.977V185.533H626.477H626.977V180.714H626.477ZM626.477 190.352H625.977V192.762H626.477H626.977V190.352H626.477ZM626.477 144.571H625.477V146.981H626.477H627.477V144.571H626.477ZM626.477 151.8H625.477V156.619H626.477H627.477V151.8H626.477ZM626.477 161.438H625.477V166.257H626.477H627.477V161.438H626.477ZM626.477 171.076H625.477V175.895H626.477H627.477V171.076H626.477ZM626.477 180.714H625.477V185.533H626.477H627.477V180.714H626.477ZM626.477 190.352H625.477V192.762H626.477H627.477V190.352H626.477Z" fill="#333843" mask="url(#path-74-inside-35_3634_32)"/>
<mask id="path-76-inside-36_3634_32" fill="white">
<path d="M0 192.762H48.1905V240.952H0V192.762Z"/>
</mask>
<path d="M48.1905 240.952H48.6905V238.543H48.1905H47.6905V240.952H48.1905ZM48.1905 233.724H48.6905V228.905H48.1905H47.6905V233.724H48.1905ZM48.1905 224.086H48.6905V219.266H48.1905H47.6905V224.086H48.1905ZM48.1905 214.447H48.6905V209.628H48.1905H47.6905V214.447H48.1905ZM48.1905 204.809H48.6905V199.99H48.1905H47.6905V204.809H48.1905ZM48.1905 195.171H48.6905V192.762H48.1905H47.6905V195.171H48.1905ZM48.1905 240.952H49.1905V238.543H48.1905H47.1905V240.952H48.1905ZM48.1905 233.724H49.1905V228.905H48.1905H47.1905V233.724H48.1905ZM48.1905 224.086H49.1905V219.266H48.1905H47.1905V224.086H48.1905ZM48.1905 214.447H49.1905V209.628H48.1905H47.1905V214.447H48.1905ZM48.1905 204.809H49.1905V199.99H48.1905H47.1905V204.809H48.1905ZM48.1905 195.171H49.1905V192.762H48.1905H47.1905V195.171H48.1905Z" fill="#333843" mask="url(#path-76-inside-36_3634_32)"/>
<mask id="path-78-inside-37_3634_32" fill="white">
<path d="M144.57 192.762H192.761V240.952H144.57V192.762Z"/>
</mask>
<path d="M144.57 240.952H143.57V241.952H144.57V240.952ZM192.761 240.952V239.952H144.57V240.952V241.952H192.761V240.952ZM144.57 240.952H145.57V192.762H144.57H143.57V240.952H144.57Z" fill="#333843" mask="url(#path-78-inside-37_3634_32)"/>
<mask id="path-80-inside-38_3634_32" fill="white">
<path d="M192.762 192.762H240.952V240.952H192.762V192.762Z"/>
</mask>
<path d="M240.952 240.952V239.952H192.762V240.952V241.952H240.952V240.952Z" fill="#333843" mask="url(#path-80-inside-38_3634_32)"/>
<mask id="path-82-inside-39_3634_32" fill="white">
<path d="M240.953 192.762H289.144V240.952H240.953V192.762Z"/>
</mask>
<path d="M289.144 240.952V239.952H240.953V240.952V241.952H289.144V240.952Z" fill="#333843" mask="url(#path-82-inside-39_3634_32)"/>
<mask id="path-84-inside-40_3634_32" fill="white">
<path d="M289.145 192.762H337.335V240.952H289.145V192.762Z"/>
</mask>
<path d="M337.335 240.952V239.952H289.145V240.952V241.952H337.335V240.952Z" fill="#333843" mask="url(#path-84-inside-40_3634_32)"/>
<mask id="path-86-inside-41_3634_32" fill="white">
<path d="M337.332 192.762H385.523V240.952H337.332V192.762Z"/>
</mask>
<path d="M385.523 240.952V239.952H337.332V240.952V241.952H385.523V240.952Z" fill="#333843" mask="url(#path-86-inside-41_3634_32)"/>
<mask id="path-88-inside-42_3634_32" fill="white">
<path d="M385.523 192.762H433.714V240.952H385.523V192.762Z"/>
</mask>
<path d="M433.714 240.952V239.952H385.523V240.952V241.952H433.714V240.952Z" fill="#333843" mask="url(#path-88-inside-42_3634_32)"/>
<mask id="path-90-inside-43_3634_32" fill="white">
<path d="M433.715 192.762H481.905V240.952H433.715V192.762Z"/>
</mask>
<path d="M481.905 240.952V239.952H433.715V240.952V241.952H481.905V240.952Z" fill="#333843" mask="url(#path-90-inside-43_3634_32)"/>
<mask id="path-92-inside-44_3634_32" fill="white">
<path d="M481.906 192.762H530.097V240.952H481.906V192.762Z"/>
</mask>
<path d="M530.097 240.952V241.952H531.097V240.952H530.097ZM530.097 192.762H529.097V240.952H530.097H531.097V192.762H530.097ZM530.097 240.952V239.952H481.906V240.952V241.952H530.097V240.952Z" fill="#333843" mask="url(#path-92-inside-44_3634_32)"/>
<mask id="path-94-inside-45_3634_32" fill="white">
<path d="M626.477 192.762H674.667V240.952H626.477V192.762Z"/>
</mask>
<path d="M626.477 192.762H625.977V195.171H626.477H626.977V192.762H626.477ZM626.477 199.99H625.977V204.809H626.477H626.977V199.99H626.477ZM626.477 209.628H625.977V214.447H626.477H626.977V209.628H626.477ZM626.477 219.266H625.977V224.086H626.477H626.977V219.266H626.477ZM626.477 228.905H625.977V233.724H626.477H626.977V228.905H626.477ZM626.477 238.543H625.977V240.952H626.477H626.977V238.543H626.477ZM626.477 192.762H625.477V195.171H626.477H627.477V192.762H626.477ZM626.477 199.99H625.477V204.809H626.477H627.477V199.99H626.477ZM626.477 209.628H625.477V214.447H626.477H627.477V209.628H626.477ZM626.477 219.266H625.477V224.086H626.477H627.477V219.266H626.477ZM626.477 228.905H625.477V233.724H626.477H627.477V228.905H626.477ZM626.477 238.543H625.477V240.952H626.477H627.477V238.543H626.477Z" fill="#333843" mask="url(#path-94-inside-45_3634_32)"/>
<mask id="path-96-inside-46_3634_32" fill="white">
<path d="M0 240.952H48.1905V289.143H0V240.952Z"/>
</mask>
<path d="M48.1905 289.143H48.6905V286.733H48.1905H47.6905V289.143H48.1905ZM48.1905 281.914H48.6905V277.095H48.1905H47.6905V281.914H48.1905ZM48.1905 272.276H48.6905V267.457H48.1905H47.6905V272.276H48.1905ZM48.1905 262.638H48.6905V257.819H48.1905H47.6905V262.638H48.1905ZM48.1905 253H48.6905V248.181H48.1905H47.6905V253H48.1905ZM48.1905 243.362H48.6905V240.952H48.1905H47.6905V243.362H48.1905ZM48.1905 289.143H49.1905V286.733H48.1905H47.1905V289.143H48.1905ZM48.1905 281.914H49.1905V277.095H48.1905H47.1905V281.914H48.1905ZM48.1905 272.276H49.1905V267.457H48.1905H47.1905V272.276H48.1905ZM48.1905 262.638H49.1905V257.819H48.1905H47.1905V262.638H48.1905ZM48.1905 253H49.1905V248.181H48.1905H47.1905V253H48.1905ZM48.1905 243.362H49.1905V240.952H48.1905H47.1905V243.362H48.1905Z" fill="#333843" mask="url(#path-96-inside-46_3634_32)"/>
<mask id="path-98-inside-47_3634_32" fill="white">
<path d="M144.57 240.952H192.761V289.143H144.57V240.952Z"/>
</mask>
<path d="M192.761 289.143V290.143H193.761V289.143H192.761ZM144.57 289.143H143.57V290.143H144.57V289.143ZM192.761 240.952H191.761V289.143H192.761H193.761V240.952H192.761ZM192.761 289.143V288.143H144.57V289.143V290.143H192.761V289.143ZM144.57 289.143H145.57V240.952H144.57H143.57V289.143H144.57Z" fill="#333843" mask="url(#path-98-inside-47_3634_32)"/>
<mask id="path-100-inside-48_3634_32" fill="white">
<path d="M192.762 240.952H240.952V289.143H192.762V240.952Z"/>
</mask>
<path d="M240.952 289.143V290.143H241.952V289.143H240.952ZM240.952 240.952H239.952V289.143H240.952H241.952V240.952H240.952ZM240.952 289.143V288.143H192.762V289.143V290.143H240.952V289.143Z" fill="#333843" mask="url(#path-100-inside-48_3634_32)"/>
<mask id="path-102-inside-49_3634_32" fill="white">
<path d="M240.953 240.952H289.144V289.143H240.953V240.952Z"/>
</mask>
<path d="M289.144 289.143V290.143H290.144V289.143H289.144ZM289.144 240.952H288.144V289.143H289.144H290.144V240.952H289.144ZM289.144 289.143V288.143H240.953V289.143V290.143H289.144V289.143Z" fill="#333843" mask="url(#path-102-inside-49_3634_32)"/>
<mask id="path-104-inside-50_3634_32" fill="white">
<path d="M289.145 240.952H337.335V289.143H289.145V240.952Z"/>
</mask>
<path d="M337.335 289.143V290.143H338.335V289.143H337.335ZM337.335 240.952H336.335V289.143H337.335H338.335V240.952H337.335ZM337.335 289.143V288.143H289.145V289.143V290.143H337.335V289.143Z" fill="#333843" mask="url(#path-104-inside-50_3634_32)"/>
<mask id="path-106-inside-51_3634_32" fill="white">
<path d="M337.332 240.952H385.523V289.143H337.332V240.952Z"/>
</mask>
<path d="M385.523 289.143V290.143H386.523V289.143H385.523ZM385.523 240.952H384.523V289.143H385.523H386.523V240.952H385.523ZM385.523 289.143V288.143H337.332V289.143V290.143H385.523V289.143Z" fill="#333843" mask="url(#path-106-inside-51_3634_32)"/>
<mask id="path-108-inside-52_3634_32" fill="white">
<path d="M385.523 240.952H433.714V289.143H385.523V240.952Z"/>
</mask>
<path d="M433.714 289.143V290.143H434.714V289.143H433.714ZM433.714 240.952H432.714V289.143H433.714H434.714V240.952H433.714ZM433.714 289.143V288.143H385.523V289.143V290.143H433.714V289.143Z" fill="#333843" mask="url(#path-108-inside-52_3634_32)"/>
<mask id="path-110-inside-53_3634_32" fill="white">
<path d="M433.715 240.952H481.905V289.143H433.715V240.952Z"/>
</mask>
<path d="M481.905 289.143V290.143H482.905V289.143H481.905ZM481.905 240.952H480.905V289.143H481.905H482.905V240.952H481.905ZM481.905 289.143V288.143H433.715V289.143V290.143H481.905V289.143Z" fill="#333843" mask="url(#path-110-inside-53_3634_32)"/>
<mask id="path-112-inside-54_3634_32" fill="white">
<path d="M481.906 240.952H530.097V289.143H481.906V240.952Z"/>
</mask>
<path d="M530.097 289.143V290.143H531.097V289.143H530.097ZM530.097 240.952H529.097V289.143H530.097H531.097V240.952H530.097ZM530.097 289.143V288.143H481.906V289.143V290.143H530.097V289.143Z" fill="#333843" mask="url(#path-112-inside-54_3634_32)"/>
<mask id="path-114-inside-55_3634_32" fill="white">
<path d="M626.477 240.952H674.667V289.143H626.477V240.952Z"/>
</mask>
<path d="M626.477 240.952H625.977V243.362H626.477H626.977V240.952H626.477ZM626.477 248.181H625.977V253H626.477H626.977V248.181H626.477ZM626.477 257.819H625.977V262.638H626.477H626.977V257.819H626.477ZM626.477 267.457H625.977V272.276H626.477H626.977V267.457H626.477ZM626.477 277.095H625.977V281.914H626.477H626.977V277.095H626.477ZM626.477 286.733H625.977V289.143H626.477H626.977V286.733H626.477ZM626.477 240.952H625.477V243.362H626.477H627.477V240.952H626.477ZM626.477 248.181H625.477V253H626.477H627.477V248.181H626.477ZM626.477 257.819H625.477V262.638H626.477H627.477V257.819H626.477ZM626.477 267.457H625.477V272.276H626.477H627.477V267.457H626.477ZM626.477 277.095H625.477V281.914H626.477H627.477V277.095H626.477ZM626.477 286.733H625.477V289.143H626.477H627.477V286.733H626.477Z" fill="#333843" mask="url(#path-114-inside-55_3634_32)"/>
<mask id="path-116-inside-56_3634_32" fill="white">
<path d="M0 289.143H48.1905V337.334H0V289.143Z"/>
</mask>
<path d="M48.1905 337.334H48.6905V334.924H48.1905H47.6905V337.334H48.1905ZM48.1905 330.105H48.6905V325.286H48.1905H47.6905V330.105H48.1905ZM48.1905 320.467H48.6905V315.648H48.1905H47.6905V320.467H48.1905ZM48.1905 310.829H48.6905V306.01H48.1905H47.6905V310.829H48.1905ZM48.1905 301.191H48.6905V296.372H48.1905H47.6905V301.191H48.1905ZM48.1905 291.553H48.6905V289.143H48.1905H47.6905V291.553H48.1905ZM48.1905 337.334H49.1905V334.924H48.1905H47.1905V337.334H48.1905ZM48.1905 330.105H49.1905V325.286H48.1905H47.1905V330.105H48.1905ZM48.1905 320.467H49.1905V315.648H48.1905H47.1905V320.467H48.1905ZM48.1905 310.829H49.1905V306.01H48.1905H47.1905V310.829H48.1905ZM48.1905 301.191H49.1905V296.372H48.1905H47.1905V301.191H48.1905ZM48.1905 291.553H49.1905V289.143H48.1905H47.1905V291.553H48.1905Z" fill="#333843" mask="url(#path-116-inside-56_3634_32)"/>
<mask id="path-118-inside-57_3634_32" fill="white">
<path d="M144.57 289.143H192.761V337.334H144.57V289.143Z"/>
</mask>
<path d="M192.761 337.334V338.334H193.761V337.334H192.761ZM144.57 337.334H143.57V338.334H144.57V337.334ZM192.761 289.143H191.761V337.334H192.761H193.761V289.143H192.761ZM192.761 337.334V336.334H144.57V337.334V338.334H192.761V337.334ZM144.57 337.334H145.57V289.143H144.57H143.57V337.334H144.57Z" fill="#333843" mask="url(#path-118-inside-57_3634_32)"/>
<mask id="path-120-inside-58_3634_32" fill="white">
<path d="M192.762 289.143H240.952V337.334H192.762V289.143Z"/>
</mask>
<path d="M240.952 337.334V338.334H241.952V337.334H240.952ZM240.952 289.143H239.952V337.334H240.952H241.952V289.143H240.952ZM240.952 337.334V336.334H192.762V337.334V338.334H240.952V337.334Z" fill="#333843" mask="url(#path-120-inside-58_3634_32)"/>
<mask id="path-122-inside-59_3634_32" fill="white">
<path d="M240.953 289.143H289.144V337.334H240.953V289.143Z"/>
</mask>
<path d="M289.144 337.334V338.334H290.144V337.334H289.144ZM289.144 289.143H288.144V337.334H289.144H290.144V289.143H289.144ZM289.144 337.334V336.334H240.953V337.334V338.334H289.144V337.334Z" fill="#333843" mask="url(#path-122-inside-59_3634_32)"/>
<mask id="path-124-inside-60_3634_32" fill="white">
<path d="M289.145 289.143H337.335V337.334H289.145V289.143Z"/>
</mask>
<path d="M337.335 337.334V338.334H338.335V337.334H337.335ZM337.335 289.143H336.335V337.334H337.335H338.335V289.143H337.335ZM337.335 337.334V336.334H289.145V337.334V338.334H337.335V337.334Z" fill="#333843" mask="url(#path-124-inside-60_3634_32)"/>
<mask id="path-126-inside-61_3634_32" fill="white">
<path d="M337.332 289.143H385.523V337.334H337.332V289.143Z"/>
</mask>
<path d="M385.523 337.334V338.334H386.523V337.334H385.523ZM385.523 289.143H384.523V337.334H385.523H386.523V289.143H385.523ZM385.523 337.334V336.334H337.332V337.334V338.334H385.523V337.334Z" fill="#333843" mask="url(#path-126-inside-61_3634_32)"/>
<mask id="path-128-inside-62_3634_32" fill="white">
<path d="M385.523 289.143H433.714V337.334H385.523V289.143Z"/>
</mask>
<path d="M433.714 337.334V338.334H434.714V337.334H433.714ZM433.714 289.143H432.714V337.334H433.714H434.714V289.143H433.714ZM433.714 337.334V336.334H385.523V337.334V338.334H433.714V337.334Z" fill="#333843" mask="url(#path-128-inside-62_3634_32)"/>
<mask id="path-130-inside-63_3634_32" fill="white">
<path d="M433.715 289.143H481.905V337.334H433.715V289.143Z"/>
</mask>
<path d="M481.905 337.334V338.334H482.905V337.334H481.905ZM481.905 289.143H480.905V337.334H481.905H482.905V289.143H481.905ZM481.905 337.334V336.334H433.715V337.334V338.334H481.905V337.334Z" fill="#333843" mask="url(#path-130-inside-63_3634_32)"/>
<mask id="path-132-inside-64_3634_32" fill="white">
<path d="M481.906 289.143H530.097V337.334H481.906V289.143Z"/>
</mask>
<path d="M530.097 337.334V338.334H531.097V337.334H530.097ZM530.097 289.143H529.097V337.334H530.097H531.097V289.143H530.097ZM530.097 337.334V336.334H481.906V337.334V338.334H530.097V337.334Z" fill="#333843" mask="url(#path-132-inside-64_3634_32)"/>
<mask id="path-134-inside-65_3634_32" fill="white">
<path d="M626.477 289.143H674.667V337.334H626.477V289.143Z"/>
</mask>
<path d="M626.477 289.143H625.977V291.553H626.477H626.977V289.143H626.477ZM626.477 296.372H625.977V301.191H626.477H626.977V296.372H626.477ZM626.477 306.01H625.977V310.829H626.477H626.977V306.01H626.477ZM626.477 315.648H625.977V320.467H626.477H626.977V315.648H626.477ZM626.477 325.286H625.977V330.105H626.477H626.977V325.286H626.477ZM626.477 334.924H625.977V337.334H626.477H626.977V334.924H626.477ZM626.477 289.143H625.477V291.553H626.477H627.477V289.143H626.477ZM626.477 296.372H625.477V301.191H626.477H627.477V296.372H626.477ZM626.477 306.01H625.477V310.829H626.477H627.477V306.01H626.477ZM626.477 315.648H625.477V320.467H626.477H627.477V315.648H626.477ZM626.477 325.286H625.477V330.105H626.477H627.477V325.286H626.477ZM626.477 334.924H625.477V337.334H626.477H627.477V334.924H626.477Z" fill="#333843" mask="url(#path-134-inside-65_3634_32)"/>
<mask id="path-136-inside-66_3634_32" fill="white">
<path d="M0 337.333H48.1905V385.524H0V337.333Z"/>
</mask>
<path d="M48.1905 385.524V386.024H48.6905V385.524H48.1905ZM0 385.524V386.024H2.40952V385.524V385.024H0V385.524ZM7.22857 385.524V386.024H12.0476V385.524V385.024H7.22857V385.524ZM16.8667 385.524V386.024H21.6857V385.524V385.024H16.8667V385.524ZM26.5048 385.524V386.024H31.3238V385.524V385.024H26.5048V385.524ZM36.1429 385.524V386.024H40.9619V385.524V385.024H36.1429V385.524ZM45.7809 385.524V386.024H48.1905V385.524V385.024H45.7809V385.524ZM48.1905 385.524H48.6905V383.114H48.1905H47.6905V385.524H48.1905ZM48.1905 378.295H48.6905V373.476H48.1905H47.6905V378.295H48.1905ZM48.1905 368.657H48.6905V363.838H48.1905H47.6905V368.657H48.1905ZM48.1905 359.019H48.6905V354.2H48.1905H47.6905V359.019H48.1905ZM48.1905 349.381H48.6905V344.562H48.1905H47.6905V349.381H48.1905ZM48.1905 339.743H48.6905V337.333H48.1905H47.6905V339.743H48.1905ZM48.1905 385.524V386.524H49.1905V385.524H48.1905ZM0 385.524V386.524H2.40952V385.524V384.524H0V385.524ZM7.22857 385.524V386.524H12.0476V385.524V384.524H7.22857V385.524ZM16.8667 385.524V386.524H21.6857V385.524V384.524H16.8667V385.524ZM26.5048 385.524V386.524H31.3238V385.524V384.524H26.5048V385.524ZM36.1429 385.524V386.524H40.9619V385.524V384.524H36.1429V385.524ZM45.7809 385.524V386.524H48.1905V385.524V384.524H45.7809V385.524ZM48.1905 385.524H49.1905V383.114H48.1905H47.1905V385.524H48.1905ZM48.1905 378.295H49.1905V373.476H48.1905H47.1905V378.295H48.1905ZM48.1905 368.657H49.1905V363.838H48.1905H47.1905V368.657H48.1905ZM48.1905 359.019H49.1905V354.2H48.1905H47.1905V359.019H48.1905ZM48.1905 349.381H49.1905V344.562H48.1905H47.1905V349.381H48.1905ZM48.1905 339.743H49.1905V337.333H48.1905H47.1905V339.743H48.1905Z" fill="#333843" mask="url(#path-136-inside-66_3634_32)"/>
<mask id="path-138-inside-67_3634_32" fill="white">
<path d="M48.1914 337.333H96.3819V385.524H48.1914V337.333Z"/>
</mask>
<path d="M48.1914 385.524V386.024H50.6009V385.524V385.024H48.1914V385.524ZM55.42 385.524V386.024H60.239V385.524V385.024H55.42V385.524ZM65.0581 385.524V386.024H69.8771V385.524V385.024H65.0581V385.524ZM74.6962 385.524V386.024H79.5152V385.524V385.024H74.6962V385.524ZM84.3343 385.524V386.024H89.1533V385.524V385.024H84.3343V385.524ZM93.9724 385.524V386.024H96.3819V385.524V385.024H93.9724V385.524ZM48.1914 385.524V386.524H50.6009V385.524V384.524H48.1914V385.524ZM55.42 385.524V386.524H60.239V385.524V384.524H55.42V385.524ZM65.0581 385.524V386.524H69.8771V385.524V384.524H65.0581V385.524ZM74.6962 385.524V386.524H79.5152V385.524V384.524H74.6962V385.524ZM84.3343 385.524V386.524H89.1533V385.524V384.524H84.3343V385.524ZM93.9724 385.524V386.524H96.3819V385.524V384.524H93.9724V385.524Z" fill="#333843" mask="url(#path-138-inside-67_3634_32)"/>
<mask id="path-140-inside-68_3634_32" fill="white">
<path d="M96.3828 337.333H144.573V385.524H96.3828V337.333Z"/>
</mask>
<path d="M96.3828 385.524V386.024H98.7923V385.524V385.024H96.3828V385.524ZM103.611 385.524V386.024H108.43V385.524V385.024H103.611V385.524ZM113.249 385.524V386.024H118.069V385.524V385.024H113.249V385.524ZM122.888 385.524V386.024H127.707V385.524V385.024H122.888V385.524ZM132.526 385.524V386.024H137.345V385.524V385.024H132.526V385.524ZM142.164 385.524V386.024H144.573V385.524V385.024H142.164V385.524ZM96.3828 385.524V386.524H98.7923V385.524V384.524H96.3828V385.524ZM103.611 385.524V386.524H108.43V385.524V384.524H103.611V385.524ZM113.249 385.524V386.524H118.069V385.524V384.524H113.249V385.524ZM122.888 385.524V386.524H127.707V385.524V384.524H122.888V385.524ZM132.526 385.524V386.524H137.345V385.524V384.524H132.526V385.524ZM142.164 385.524V386.524H144.573V385.524V384.524H142.164V385.524Z" fill="#333843" mask="url(#path-140-inside-68_3634_32)"/>
<mask id="path-142-inside-69_3634_32" fill="white">
<path d="M144.57 337.333H192.761V385.524H144.57V337.333Z"/>
</mask>
<path d="M192.761 385.524V386.524H193.761V385.524H192.761ZM144.57 385.524H143.57V386.524H144.57V385.524ZM192.761 337.333H191.761V385.524H192.761H193.761V337.333H192.761ZM192.761 385.524V384.524H144.57V385.524V386.524H192.761V385.524ZM144.57 385.524H145.57V337.333H144.57H143.57V385.524H144.57Z" fill="#333843" mask="url(#path-142-inside-69_3634_32)"/>
<mask id="path-144-inside-70_3634_32" fill="white">
<path d="M192.762 337.333H240.952V385.524H192.762V337.333Z"/>
</mask>
<path d="M240.952 385.524V386.524H241.952V385.524H240.952ZM240.952 337.333H239.952V385.524H240.952H241.952V337.333H240.952ZM240.952 385.524V384.524H192.762V385.524V386.524H240.952V385.524Z" fill="#333843" mask="url(#path-144-inside-70_3634_32)"/>
<mask id="path-146-inside-71_3634_32" fill="white">
<path d="M240.953 337.333H289.144V385.524H240.953V337.333Z"/>
</mask>
<path d="M289.144 385.524V386.524H290.144V385.524H289.144ZM289.144 337.333H288.144V385.524H289.144H290.144V337.333H289.144ZM289.144 385.524V384.524H240.953V385.524V386.524H289.144V385.524Z" fill="#333843" mask="url(#path-146-inside-71_3634_32)"/>
<mask id="path-148-inside-72_3634_32" fill="white">
<path d="M289.145 337.333H337.335V385.524H289.145V337.333Z"/>
</mask>
<path d="M337.335 385.524V386.524H338.335V385.524H337.335ZM337.335 337.333H336.335V385.524H337.335H338.335V337.333H337.335ZM337.335 385.524V384.524H289.145V385.524V386.524H337.335V385.524Z" fill="#333843" mask="url(#path-148-inside-72_3634_32)"/>
<mask id="path-150-inside-73_3634_32" fill="white">
<path d="M337.332 337.333H385.523V385.524H337.332V337.333Z"/>
</mask>
<path d="M385.523 385.524V386.524H386.523V385.524H385.523ZM385.523 337.333H384.523V385.524H385.523H386.523V337.333H385.523ZM385.523 385.524V384.524H337.332V385.524V386.524H385.523V385.524Z" fill="#333843" mask="url(#path-150-inside-73_3634_32)"/>
<mask id="path-152-inside-74_3634_32" fill="white">
<path d="M385.523 337.333H433.714V385.524H385.523V337.333Z"/>
</mask>
<path d="M433.714 385.524V386.524H434.714V385.524H433.714ZM433.714 337.333H432.714V385.524H433.714H434.714V337.333H433.714ZM433.714 385.524V384.524H385.523V385.524V386.524H433.714V385.524Z" fill="#333843" mask="url(#path-152-inside-74_3634_32)"/>
<mask id="path-154-inside-75_3634_32" fill="white">
<path d="M433.715 337.333H481.905V385.524H433.715V337.333Z"/>
</mask>
<path d="M481.905 385.524V386.524H482.905V385.524H481.905ZM481.905 337.333H480.905V385.524H481.905H482.905V337.333H481.905ZM481.905 385.524V384.524H433.715V385.524V386.524H481.905V385.524Z" fill="#333843" mask="url(#path-154-inside-75_3634_32)"/>
<mask id="path-156-inside-76_3634_32" fill="white">
<path d="M481.906 337.333H530.097V385.524H481.906V337.333Z"/>
</mask>
<path d="M530.097 385.524V386.524H531.097V385.524H530.097ZM530.097 337.333H529.097V385.524H530.097H531.097V337.333H530.097ZM530.097 385.524V384.524H481.906V385.524V386.524H530.097V385.524Z" fill="#333843" mask="url(#path-156-inside-76_3634_32)"/>
<mask id="path-158-inside-77_3634_32" fill="white">
<path d="M530.094 337.333H578.284V385.524H530.094V337.333Z"/>
</mask>
<path d="M530.094 385.524V386.024H532.503V385.524V385.024H530.094V385.524ZM537.322 385.524V386.024H542.141V385.524V385.024H537.322V385.524ZM546.96 385.524V386.024H551.779V385.524V385.024H546.96V385.524ZM556.599 385.524V386.024H561.418V385.524V385.024H556.599V385.524ZM566.237 385.524V386.024H571.056V385.524V385.024H566.237V385.524ZM575.875 385.524V386.024H578.284V385.524V385.024H575.875V385.524ZM530.094 385.524V386.524H532.503V385.524V384.524H530.094V385.524ZM537.322 385.524V386.524H542.141V385.524V384.524H537.322V385.524ZM546.96 385.524V386.524H551.779V385.524V384.524H546.96V385.524ZM556.599 385.524V386.524H561.418V385.524V384.524H556.599V385.524ZM566.237 385.524V386.524H571.056V385.524V384.524H566.237V385.524ZM575.875 385.524V386.524H578.284V385.524V384.524H575.875V385.524Z" fill="#333843" mask="url(#path-158-inside-77_3634_32)"/>
<mask id="path-160-inside-78_3634_32" fill="white">
<path d="M578.285 337.333H626.476V385.524H578.285V337.333Z"/>
</mask>
<path d="M578.285 385.524V386.024H580.695V385.524V385.024H578.285V385.524ZM585.514 385.524V386.024H590.333V385.524V385.024H585.514V385.524ZM595.152 385.524V386.024H599.971V385.524V385.024H595.152V385.524ZM604.79 385.524V386.024H609.609V385.524V385.024H604.79V385.524ZM614.428 385.524V386.024H619.247V385.524V385.024H614.428V385.524ZM624.066 385.524V386.024H626.476V385.524V385.024H624.066V385.524ZM578.285 385.524V386.524H580.695V385.524V384.524H578.285V385.524ZM585.514 385.524V386.524H590.333V385.524V384.524H585.514V385.524ZM595.152 385.524V386.524H599.971V385.524V384.524H595.152V385.524ZM604.79 385.524V386.524H609.609V385.524V384.524H604.79V385.524ZM614.428 385.524V386.524H619.247V385.524V384.524H614.428V385.524ZM624.066 385.524V386.524H626.476V385.524V384.524H624.066V385.524Z" fill="#333843" mask="url(#path-160-inside-78_3634_32)"/>
<mask id="path-162-inside-79_3634_32" fill="white">
<path d="M626.477 337.333H674.667V385.524H626.477V337.333Z"/>
</mask>
<path d="M626.477 385.524H625.977V386.024H626.477V385.524ZM626.477 337.333H625.977V339.743H626.477H626.977V337.333H626.477ZM626.477 344.562H625.977V349.381H626.477H626.977V344.562H626.477ZM626.477 354.2H625.977V359.019H626.477H626.977V354.2H626.477ZM626.477 363.838H625.977V368.657H626.477H626.977V363.838H626.477ZM626.477 373.476H625.977V378.295H626.477H626.977V373.476H626.477ZM626.477 383.114H625.977V385.524H626.477H626.977V383.114H626.477ZM626.477 385.524V386.024H628.886V385.524V385.024H626.477V385.524ZM633.705 385.524V386.024H638.524V385.524V385.024H633.705V385.524ZM643.343 385.524V386.024H648.162V385.524V385.024H643.343V385.524ZM652.981 385.524V386.024H657.8V385.524V385.024H652.981V385.524ZM662.619 385.524V386.024H667.438V385.524V385.024H662.619V385.524ZM672.258 385.524V386.024H674.667V385.524V385.024H672.258V385.524ZM626.477 385.524H625.477V386.524H626.477V385.524ZM626.477 337.333H625.477V339.743H626.477H627.477V337.333H626.477ZM626.477 344.562H625.477V349.381H626.477H627.477V344.562H626.477ZM626.477 354.2H625.477V359.019H626.477H627.477V354.2H626.477ZM626.477 363.838H625.477V368.657H626.477H627.477V363.838H626.477ZM626.477 373.476H625.477V378.295H626.477H627.477V373.476H626.477ZM626.477 383.114H625.477V385.524H626.477H627.477V383.114H626.477ZM626.477 385.524V386.524H628.886V385.524V384.524H626.477V385.524ZM633.705 385.524V386.524H638.524V385.524V384.524H633.705V385.524ZM643.343 385.524V386.524H648.162V385.524V384.524H643.343V385.524ZM652.981 385.524V386.524H657.8V385.524V384.524H652.981V385.524ZM662.619 385.524V386.524H667.438V385.524V384.524H662.619V385.524ZM672.258 385.524V386.524H674.667V385.524V384.524H672.258V385.524Z" fill="#333843" mask="url(#path-162-inside-79_3634_32)"/>
<mask id="path-164-inside-80_3634_32" fill="white">
<path d="M0 385.524H48.1905V433.714H0V385.524Z"/>
</mask>
<path d="M48.1905 433.714H48.6905V431.305H48.1905H47.6905V433.714H48.1905ZM48.1905 426.486H48.6905V421.667H48.1905H47.6905V426.486H48.1905ZM48.1905 416.848H48.6905V412.029H48.1905H47.6905V416.848H48.1905ZM48.1905 407.21H48.6905V402.391H48.1905H47.6905V407.21H48.1905ZM48.1905 397.572H48.6905V392.752H48.1905H47.6905V397.572H48.1905ZM48.1905 387.933H48.6905V385.524H48.1905H47.6905V387.933H48.1905ZM48.1905 433.714H49.1905V431.305H48.1905H47.1905V433.714H48.1905ZM48.1905 426.486H49.1905V421.667H48.1905H47.1905V426.486H48.1905ZM48.1905 416.848H49.1905V412.029H48.1905H47.1905V416.848H48.1905ZM48.1905 407.21H49.1905V402.391H48.1905H47.1905V407.21H48.1905ZM48.1905 397.572H49.1905V392.752H48.1905H47.1905V397.572H48.1905ZM48.1905 387.933H49.1905V385.524H48.1905H47.1905V387.933H48.1905Z" fill="#333843" mask="url(#path-164-inside-80_3634_32)"/>
<rect x="13.3008" y="398.301" width="21.5893" height="21.5893" rx="10.7946" fill="#272B2E"/>
<rect x="13.3008" y="398.301" width="21.5893" height="21.5893" rx="10.7946" stroke="#333843"/>
<path d="M27.7549 403.473L29.7158 405.435L30.0693 405.789L26.7637 409.094L30.0732 412.404L29.7197 412.757L27.7578 414.718L27.4043 415.072L24.0947 411.762L21.1396 414.718L20.7861 415.072L20.4326 414.718L18.4707 412.757L18.1172 412.404L18.4707 412.05L21.4258 409.094L18.1201 405.789L20.7891 403.12L24.0947 406.425L27.0479 403.473L27.4014 403.12L27.7549 403.473Z" fill="#191C1E" stroke="#333843"/>
<mask id="path-168-inside-81_3634_32" fill="white">
<path d="M144.57 385.524H192.761V433.714H144.57V385.524Z"/>
</mask>
<path d="M192.761 433.714V434.714H193.761V433.714H192.761ZM144.57 433.714H143.57V434.714H144.57V433.714ZM192.761 385.524H191.761V433.714H192.761H193.761V385.524H192.761ZM192.761 433.714V432.714H144.57V433.714V434.714H192.761V433.714ZM144.57 433.714H145.57V385.524H144.57H143.57V433.714H144.57Z" fill="#333843" mask="url(#path-168-inside-81_3634_32)"/>
<mask id="path-170-inside-82_3634_32" fill="white">
<path d="M192.762 385.524H240.952V433.714H192.762V385.524Z"/>
</mask>
<path d="M240.952 433.714V434.714H241.952V433.714H240.952ZM240.952 385.524H239.952V433.714H240.952H241.952V385.524H240.952ZM240.952 433.714V432.714H192.762V433.714V434.714H240.952V433.714Z" fill="#333843" mask="url(#path-170-inside-82_3634_32)"/>
<mask id="path-172-inside-83_3634_32" fill="white">
<path d="M240.953 385.524H289.144V433.714H240.953V385.524Z"/>
</mask>
<path d="M289.144 385.524H288.144V433.714H289.144H290.144V385.524H289.144Z" fill="#333843" mask="url(#path-172-inside-83_3634_32)"/>
<mask id="path-174-inside-84_3634_32" fill="white">
<path d="M289.145 385.524H337.335V433.714H289.145V385.524Z"/>
</mask>
<path d="M337.335 385.524H336.335V433.714H337.335H338.335V385.524H337.335Z" fill="#333843" mask="url(#path-174-inside-84_3634_32)"/>
<mask id="path-176-inside-85_3634_32" fill="white">
<path d="M337.332 385.524H385.523V433.714H337.332V385.524Z"/>
</mask>
<path d="M385.523 385.524H384.523V433.714H385.523H386.523V385.524H385.523Z" fill="#333843" mask="url(#path-176-inside-85_3634_32)"/>
<mask id="path-178-inside-86_3634_32" fill="white">
<path d="M385.523 385.524H433.714V433.714H385.523V385.524Z"/>
</mask>
<path d="M433.714 433.714V434.714H434.714V433.714H433.714ZM433.714 385.524H432.714V433.714H433.714H434.714V385.524H433.714ZM433.714 433.714V432.714H385.523V433.714V434.714H433.714V433.714Z" fill="#333843" mask="url(#path-178-inside-86_3634_32)"/>
<mask id="path-180-inside-87_3634_32" fill="white">
<path d="M433.715 385.524H481.905V433.714H433.715V385.524Z"/>
</mask>
<path d="M481.905 433.714V434.714H482.905V433.714H481.905ZM481.905 385.524H480.905V433.714H481.905H482.905V385.524H481.905ZM481.905 433.714V432.714H433.715V433.714V434.714H481.905V433.714Z" fill="#333843" mask="url(#path-180-inside-87_3634_32)"/>
<mask id="path-182-inside-88_3634_32" fill="white">
<path d="M481.906 385.524H530.097V433.714H481.906V385.524Z"/>
</mask>
<path d="M530.097 385.524H529.097V433.714H530.097H531.097V385.524H530.097Z" fill="#333843" mask="url(#path-182-inside-88_3634_32)"/>
<mask id="path-184-inside-89_3634_32" fill="white">
<path d="M626.477 385.524H674.667V433.714H626.477V385.524Z"/>
</mask>
<path d="M626.477 385.524H625.977V387.933H626.477H626.977V385.524H626.477ZM626.477 392.752H625.977V397.572H626.477H626.977V392.752H626.477ZM626.477 402.391H625.977V407.21H626.477H626.977V402.391H626.477ZM626.477 412.029H625.977V416.848H626.477H626.977V412.029H626.477ZM626.477 421.667H625.977V426.486H626.477H626.977V421.667H626.477ZM626.477 431.305H625.977V433.714H626.477H626.977V431.305H626.477ZM626.477 385.524H625.477V387.933H626.477H627.477V385.524H626.477ZM626.477 392.752H625.477V397.572H626.477H627.477V392.752H626.477ZM626.477 402.391H625.477V407.21H626.477H627.477V402.391H626.477ZM626.477 412.029H625.477V416.848H626.477H627.477V412.029H626.477ZM626.477 421.667H625.477V426.486H626.477H627.477V421.667H626.477ZM626.477 431.305H625.477V433.714H626.477H627.477V431.305H626.477Z" fill="#333843" mask="url(#path-184-inside-89_3634_32)"/>
<rect x="639.773" y="398.301" width="21.5893" height="21.5893" rx="10.7946" fill="#272B2E"/>
<rect x="639.773" y="398.301" width="21.5893" height="21.5893" rx="10.7946" stroke="#333843"/>
<path d="M654.228 403.473L656.188 405.435L656.542 405.789L653.236 409.094L656.546 412.404L656.192 412.757L654.23 414.718L653.877 415.072L650.567 411.762L647.612 414.718L647.259 415.072L646.905 414.718L644.943 412.757L644.59 412.404L644.943 412.05L647.898 409.094L644.593 405.789L647.262 403.12L650.567 406.425L653.521 403.473L653.874 403.12L654.228 403.473Z" fill="#191C1E" stroke="#333843"/>
<circle cx="240.5" cy="47.5" r="3" fill="#272B2E" stroke="#333843"/>
<circle cx="144.5" cy="97.5" r="3" fill="#272B2E" stroke="#333843"/>
<circle cx="529.5" cy="97.5" r="3" fill="#272B2E" stroke="#333843"/>
<circle cx="144.5" cy="241.5" r="3" fill="#272B2E" stroke="#333843"/>
<circle cx="529.5" cy="241.5" r="3" fill="#272B2E" stroke="#333843"/>
<circle cx="432.5" cy="47.5" r="3" fill="#272B2E" stroke="#333843"/>
</svg>
