<svg width="1024" height="576" viewBox="0 0 1024 576" fill="none" xmlns="http://www.w3.org/2000/svg">
<path d="M24 0.5H1000C1012.98 0.5 1023.5 11.0213 1023.5 24V552C1023.5 564.979 1012.98 575.5 1000 575.5H24C11.0213 575.5 0.5 564.979 0.5 552V24L0.507812 23.3936C0.829484 10.6951 11.2241 0.5 24 0.5Z" stroke="#333843"/>
<mask id="path-2-inside-1_3400_499" fill="white">
<path d="M0 0H64V64H0V0Z"/>
</mask>
<path d="M64 64V64.5H64.5V64H64ZM0 64V64.5H3.2V64V63.5H0V64ZM9.6 64V64.5H16V64V63.5H9.6V64ZM22.4 64V64.5H28.8V64V63.5H22.4V64ZM35.2 64V64.5H41.6V64V63.5H35.2V64ZM48 64V64.5H54.4V64V63.5H48V64ZM60.8 64V64.5H64V64V63.5H60.8V64ZM64 64H64.5V60.8H64H63.5V64H64ZM64 54.4H64.5V48H64H63.5V54.4H64ZM64 41.6H64.5V35.2H64H63.5V41.6H64ZM64 28.8H64.5V22.4H64H63.5V28.8H64ZM64 16H64.5V9.59999H64H63.5V16H64ZM64 3.19999H64.5V0H64H63.5V3.19999H64ZM64 64V65H65V64H64ZM0 64V65H3.2V64V63H0V64ZM9.6 64V65H16V64V63H9.6V64ZM22.4 64V65H28.8V64V63H22.4V64ZM35.2 64V65H41.6V64V63H35.2V64ZM48 64V65H54.4V64V63H48V64ZM60.8 64V65H64V64V63H60.8V64ZM64 64H65V60.8H64H63V64H64ZM64 54.4H65V48H64H63V54.4H64ZM64 41.6H65V35.2H64H63V41.6H64ZM64 28.8H65V22.4H64H63V28.8H64ZM64 16H65V9.59999H64H63V16H64ZM64 3.19999H65V0H64H63V3.19999H64Z" fill="#333843" mask="url(#path-2-inside-1_3400_499)"/>
<mask id="path-4-inside-2_3400_499" fill="white">
<path d="M64 0H128V64H64V0Z"/>
</mask>
<path d="M64 64V64.5H67.2V64V63.5H64V64ZM73.6 64V64.5H80V64V63.5H73.6V64ZM86.4 64V64.5H92.8V64V63.5H86.4V64ZM99.2 64V64.5H105.6V64V63.5H99.2V64ZM112 64V64.5H118.4V64V63.5H112V64ZM124.8 64V64.5H128V64V63.5H124.8V64ZM64 64V65H67.2V64V63H64V64ZM73.6 64V65H80V64V63H73.6V64ZM86.4 64V65H92.8V64V63H86.4V64ZM99.2 64V65H105.6V64V63H99.2V64ZM112 64V65H118.4V64V63H112V64ZM124.8 64V65H128V64V63H124.8V64Z" fill="#333843" mask="url(#path-4-inside-2_3400_499)"/>
<mask id="path-6-inside-3_3400_499" fill="white">
<path d="M128 0H192V64H128V0Z"/>
</mask>
<path d="M128 64V64.5H131.2V64V63.5H128V64ZM137.6 64V64.5H144V64V63.5H137.6V64ZM150.4 64V64.5H156.8V64V63.5H150.4V64ZM163.2 64V64.5H169.6V64V63.5H163.2V64ZM176 64V64.5H182.4V64V63.5H176V64ZM188.8 64V64.5H192V64V63.5H188.8V64ZM128 64V65H131.2V64V63H128V64ZM137.6 64V65H144V64V63H137.6V64ZM150.4 64V65H156.8V64V63H150.4V64ZM163.2 64V65H169.6V64V63H163.2V64ZM176 64V65H182.4V64V63H176V64ZM188.8 64V65H192V64V63H188.8V64Z" fill="#333843" mask="url(#path-6-inside-3_3400_499)"/>
<mask id="path-8-inside-4_3400_499" fill="white">
<path d="M192 0H256V64H192V0Z"/>
</mask>
<path d="M192 64V64.5H195.2V64V63.5H192V64ZM201.6 64V64.5H208V64V63.5H201.6V64ZM214.4 64V64.5H220.8V64V63.5H214.4V64ZM227.2 64V64.5H233.6V64V63.5H227.2V64ZM240 64V64.5H246.4V64V63.5H240V64ZM252.8 64V64.5H256V64V63.5H252.8V64ZM192 64V65H195.2V64V63H192V64ZM201.6 64V65H208V64V63H201.6V64ZM214.4 64V65H220.8V64V63H214.4V64ZM227.2 64V65H233.6V64V63H227.2V64ZM240 64V65H246.4V64V63H240V64ZM252.8 64V65H256V64V63H252.8V64Z" fill="#333843" mask="url(#path-8-inside-4_3400_499)"/>
<mask id="path-10-inside-5_3400_499" fill="white">
<path d="M256 0H320V64H256V0Z"/>
</mask>
<path d="M320 64V65H321V64H320ZM256 64H255V65H256V64ZM320 0H319V64H320H321V0H320ZM320 64V63H256V64V65H320V64ZM256 64H257V0H256H255V64H256Z" fill="#333843" mask="url(#path-10-inside-5_3400_499)"/>
<mask id="path-12-inside-6_3400_499" fill="white">
<path d="M320 0H384V64H320V0Z"/>
</mask>
<path d="M384 64V65H385V64H384ZM384 0H383V64H384H385V0H384ZM384 64V63H320V64V65H384V64Z" fill="#333843" mask="url(#path-12-inside-6_3400_499)"/>
<mask id="path-14-inside-7_3400_499" fill="white">
<path d="M384 0H448V64H384V0Z"/>
</mask>
<path d="M448 64V65H449V64H448ZM448 0H447V64H448H449V0H448ZM448 64V63H384V64V65H448V64Z" fill="#333843" mask="url(#path-14-inside-7_3400_499)"/>
<mask id="path-16-inside-8_3400_499" fill="white">
<path d="M448 0H512V64H448V0Z"/>
</mask>
<path d="M512 64V65H513V64H512ZM512 0H511V64H512H513V0H512ZM512 64V63H448V64V65H512V64Z" fill="#333843" mask="url(#path-16-inside-8_3400_499)"/>
<mask id="path-18-inside-9_3400_499" fill="white">
<path d="M512 0H576V64H512V0Z"/>
</mask>
<path d="M576 64V65H577V64H576ZM576 0H575V64H576H577V0H576ZM576 64V63H512V64V65H576V64Z" fill="#333843" mask="url(#path-18-inside-9_3400_499)"/>
<mask id="path-20-inside-10_3400_499" fill="white">
<path d="M576 0H640V64H576V0Z"/>
</mask>
<path d="M640 64V65H641V64H640ZM640 0H639V64H640H641V0H640ZM640 64V63H576V64V65H640V64Z" fill="#333843" mask="url(#path-20-inside-10_3400_499)"/>
<mask id="path-22-inside-11_3400_499" fill="white">
<path d="M640 0H704V64H640V0Z"/>
</mask>
<path d="M704 64V65H705V64H704ZM704 0H703V64H704H705V0H704ZM704 64V63H640V64V65H704V64Z" fill="#333843" mask="url(#path-22-inside-11_3400_499)"/>
<mask id="path-24-inside-12_3400_499" fill="white">
<path d="M704 0H768V64H704V0Z"/>
</mask>
<path d="M768 64V65H769V64H768ZM768 0H767V64H768H769V0H768ZM768 64V63H704V64V65H768V64Z" fill="#333843" mask="url(#path-24-inside-12_3400_499)"/>
<mask id="path-26-inside-13_3400_499" fill="white">
<path d="M768 0H832V64H768V0Z"/>
</mask>
<path d="M768 64V64.5H771.2V64V63.5H768V64ZM777.6 64V64.5H784V64V63.5H777.6V64ZM790.4 64V64.5H796.8V64V63.5H790.4V64ZM803.2 64V64.5H809.6V64V63.5H803.2V64ZM816 64V64.5H822.4V64V63.5H816V64ZM828.8 64V64.5H832V64V63.5H828.8V64ZM768 64V65H771.2V64V63H768V64ZM777.6 64V65H784V64V63H777.6V64ZM790.4 64V65H796.8V64V63H790.4V64ZM803.2 64V65H809.6V64V63H803.2V64ZM816 64V65H822.4V64V63H816V64ZM828.8 64V65H832V64V63H828.8V64Z" fill="#333843" mask="url(#path-26-inside-13_3400_499)"/>
<mask id="path-28-inside-14_3400_499" fill="white">
<path d="M832 0H896V64H832V0Z"/>
</mask>
<path d="M832 64V64.5H835.2V64V63.5H832V64ZM841.6 64V64.5H848V64V63.5H841.6V64ZM854.4 64V64.5H860.8V64V63.5H854.4V64ZM867.2 64V64.5H873.6V64V63.5H867.2V64ZM880 64V64.5H886.4V64V63.5H880V64ZM892.8 64V64.5H896V64V63.5H892.8V64ZM832 64V65H835.2V64V63H832V64ZM841.6 64V65H848V64V63H841.6V64ZM854.4 64V65H860.8V64V63H854.4V64ZM867.2 64V65H873.6V64V63H867.2V64ZM880 64V65H886.4V64V63H880V64ZM892.8 64V65H896V64V63H892.8V64Z" fill="#333843" mask="url(#path-28-inside-14_3400_499)"/>
<mask id="path-30-inside-15_3400_499" fill="white">
<path d="M896 0H960V64H896V0Z"/>
</mask>
<path d="M896 64V64.5H899.2V64V63.5H896V64ZM905.6 64V64.5H912V64V63.5H905.6V64ZM918.4 64V64.5H924.8V64V63.5H918.4V64ZM931.2 64V64.5H937.6V64V63.5H931.2V64ZM944 64V64.5H950.4V64V63.5H944V64ZM956.8 64V64.5H960V64V63.5H956.8V64ZM896 64V65H899.2V64V63H896V64ZM905.6 64V65H912V64V63H905.6V64ZM918.4 64V65H924.8V64V63H918.4V64ZM931.2 64V65H937.6V64V63H931.2V64ZM944 64V65H950.4V64V63H944V64ZM956.8 64V65H960V64V63H956.8V64Z" fill="#333843" mask="url(#path-30-inside-15_3400_499)"/>
<mask id="path-32-inside-16_3400_499" fill="white">
<path d="M960 0H1024V64H960V0Z"/>
</mask>
<path d="M960 64H959.5V64.5H960V64ZM960 0H959.5V3.2H960H960.5V0H960ZM960 9.6H959.5V16H960H960.5V9.6H960ZM960 22.4H959.5V28.8H960H960.5V22.4H960ZM960 35.2H959.5V41.6H960H960.5V35.2H960ZM960 48H959.5V54.4H960H960.5V48H960ZM960 60.8H959.5V64H960H960.5V60.8H960ZM960 64V64.5H963.2V64V63.5H960V64ZM969.6 64V64.5H976V64V63.5H969.6V64ZM982.4 64V64.5H988.8V64V63.5H982.4V64ZM995.2 64V64.5H1001.6V64V63.5H995.2V64ZM1008 64V64.5H1014.4V64V63.5H1008V64ZM1020.8 64V64.5H1024V64V63.5H1020.8V64ZM960 64H959V65H960V64ZM960 0H959V3.2H960H961V0H960ZM960 9.6H959V16H960H961V9.6H960ZM960 22.4H959V28.8H960H961V22.4H960ZM960 35.2H959V41.6H960H961V35.2H960ZM960 48H959V54.4H960H961V48H960ZM960 60.8H959V64H960H961V60.8H960ZM960 64V65H963.2V64V63H960V64ZM969.6 64V65H976V64V63H969.6V64ZM982.4 64V65H988.8V64V63H982.4V64ZM995.2 64V65H1001.6V64V63H995.2V64ZM1008 64V65H1014.4V64V63H1008V64ZM1020.8 64V65H1024V64V63H1020.8V64Z" fill="#333843" mask="url(#path-32-inside-16_3400_499)"/>
<rect x="17.5" y="17.5" width="29" height="29" rx="14.5" fill="#272B2E"/>
<rect x="17.5" y="17.5" width="29" height="29" rx="14.5" stroke="#333843"/>
<path d="M36.7441 24.6465L39.3486 27.252L39.7021 27.6055L39.3486 27.959L35.3115 31.9971L39.3535 36.041L39.707 36.3945L39.3535 36.748L36.749 39.3535L36.3955 39.707L36.041 39.3535L32 35.3105L27.959 39.3535L27.6045 39.707L27.251 39.3535L24.6465 36.748L24.293 36.3945L24.6465 36.041L28.6875 31.9971L24.6514 27.959L24.2979 27.6055L24.6514 27.252L27.2559 24.6465L27.6094 24.293L32 28.6836L36.3906 24.293L36.7441 24.6465Z" fill="#191C1E" stroke="#333843"/>
<rect x="977.5" y="17.5" width="29" height="29" rx="14.5" fill="#272B2E"/>
<rect x="977.5" y="17.5" width="29" height="29" rx="14.5" stroke="#333843"/>
<path d="M996.744 24.6465L999.349 27.252L999.702 27.6055L999.349 27.959L995.312 31.9971L999.354 36.041L999.707 36.3945L999.354 36.748L996.749 39.3535L996.396 39.707L996.041 39.3535L992 35.3105L987.959 39.3535L987.604 39.707L987.251 39.3535L984.646 36.748L984.293 36.3945L984.646 36.041L988.688 31.9971L984.651 27.959L984.298 27.6055L984.651 27.252L987.256 24.6465L987.609 24.293L992 28.6836L996.391 24.293L996.744 24.6465Z" fill="#191C1E" stroke="#333843"/>
<mask id="path-38-inside-17_3400_499" fill="white">
<path d="M0 64H64V128H0V64Z"/>
</mask>
<path d="M64 128H64.5V124.8H64H63.5V128H64ZM64 118.4H64.5V112H64H63.5V118.4H64ZM64 105.6H64.5V99.2H64H63.5V105.6H64ZM64 92.8H64.5V86.4H64H63.5V92.8H64ZM64 80H64.5V73.6H64H63.5V80H64ZM64 67.2H64.5V64H64H63.5V67.2H64ZM64 128H65V124.8H64H63V128H64ZM64 118.4H65V112H64H63V118.4H64ZM64 105.6H65V99.2H64H63V105.6H64ZM64 92.8H65V86.4H64H63V92.8H64ZM64 80H65V73.6H64H63V80H64ZM64 67.2H65V64H64H63V67.2H64Z" fill="#333843" mask="url(#path-38-inside-17_3400_499)"/>
<mask id="path-40-inside-18_3400_499" fill="white">
<path d="M256 64H320V128H256V64Z"/>
</mask>
<path d="M320 64H319V128H320H321V64H320ZM256 128H257V64H256H255V128H256Z" fill="#333843" mask="url(#path-40-inside-18_3400_499)"/>
<mask id="path-42-inside-19_3400_499" fill="white">
<path d="M320 64H384V128H320V64Z"/>
</mask>
<path d="M384 64H383V128H384H385V64H384Z" fill="#333843" mask="url(#path-42-inside-19_3400_499)"/>
<mask id="path-44-inside-20_3400_499" fill="white">
<path d="M384 64H448V128H384V64Z"/>
</mask>
<path d="M448 64H447V128H448H449V64H448Z" fill="#333843" mask="url(#path-44-inside-20_3400_499)"/>
<mask id="path-46-inside-21_3400_499" fill="white">
<path d="M448 64H512V128H448V64Z"/>
</mask>
<path d="M512 64H511V128H512H513V64H512Z" fill="#333843" mask="url(#path-46-inside-21_3400_499)"/>
<mask id="path-48-inside-22_3400_499" fill="white">
<path d="M512 64H576V128H512V64Z"/>
</mask>
<path d="M576 64H575V128H576H577V64H576Z" fill="#333843" mask="url(#path-48-inside-22_3400_499)"/>
<mask id="path-50-inside-23_3400_499" fill="white">
<path d="M576 64H640V128H576V64Z"/>
</mask>
<path d="M640 64H639V128H640H641V64H640Z" fill="#333843" mask="url(#path-50-inside-23_3400_499)"/>
<mask id="path-52-inside-24_3400_499" fill="white">
<path d="M640 64H704V128H640V64Z"/>
</mask>
<path d="M704 64H703V128H704H705V64H704Z" fill="#333843" mask="url(#path-52-inside-24_3400_499)"/>
<mask id="path-54-inside-25_3400_499" fill="white">
<path d="M704 64H768V128H704V64Z"/>
</mask>
<path d="M768 64H767V128H768H769V64H768Z" fill="#333843" mask="url(#path-54-inside-25_3400_499)"/>
<mask id="path-56-inside-26_3400_499" fill="white">
<path d="M960 64H1024V128H960V64Z"/>
</mask>
<path d="M960 64H959.5V67.2H960H960.5V64H960ZM960 73.6H959.5V80H960H960.5V73.6H960ZM960 86.4H959.5V92.8H960H960.5V86.4H960ZM960 99.2H959.5V105.6H960H960.5V99.2H960ZM960 112H959.5V118.4H960H960.5V112H960ZM960 124.8H959.5V128H960H960.5V124.8H960ZM960 64H959V67.2H960H961V64H960ZM960 73.6H959V80H960H961V73.6H960ZM960 86.4H959V92.8H960H961V86.4H960ZM960 99.2H959V105.6H960H961V99.2H960ZM960 112H959V118.4H960H961V112H960ZM960 124.8H959V128H960H961V124.8H960Z" fill="#333843" mask="url(#path-56-inside-26_3400_499)"/>
<mask id="path-58-inside-27_3400_499" fill="white">
<path d="M0 128H64V192H0V128Z"/>
</mask>
<path d="M64 192H64.5V188.8H64H63.5V192H64ZM64 182.4H64.5V176H64H63.5V182.4H64ZM64 169.6H64.5V163.2H64H63.5V169.6H64ZM64 156.8H64.5V150.4H64H63.5V156.8H64ZM64 144H64.5V137.6H64H63.5V144H64ZM64 131.2H64.5V128H64H63.5V131.2H64ZM64 192H65V188.8H64H63V192H64ZM64 182.4H65V176H64H63V182.4H64ZM64 169.6H65V163.2H64H63V169.6H64ZM64 156.8H65V150.4H64H63V156.8H64ZM64 144H65V137.6H64H63V144H64ZM64 131.2H65V128H64H63V131.2H64Z" fill="#333843" mask="url(#path-58-inside-27_3400_499)"/>
<mask id="path-60-inside-28_3400_499" fill="white">
<path d="M256 128H320V192H256V128Z"/>
</mask>
<path d="M320 128H319V192H320H321V128H320ZM256 192H257V128H256H255V192H256Z" fill="#333843" mask="url(#path-60-inside-28_3400_499)"/>
<mask id="path-62-inside-29_3400_499" fill="white">
<path d="M320 128H384V192H320V128Z"/>
</mask>
<path d="M384 128H382V192H384H386V128H384Z" fill="#333843" mask="url(#path-62-inside-29_3400_499)"/>
<mask id="path-64-inside-30_3400_499" fill="white">
<path d="M384 128H448V192H384V128Z"/>
</mask>
<path d="M448 128H446V192H448H450V128H448Z" fill="#333843" mask="url(#path-64-inside-30_3400_499)"/>
<mask id="path-66-inside-31_3400_499" fill="white">
<path d="M448 128H512V192H448V128Z"/>
</mask>
<path d="M512 128H510V192H512H514V128H512Z" fill="#333843" mask="url(#path-66-inside-31_3400_499)"/>
<mask id="path-68-inside-32_3400_499" fill="white">
<path d="M512 128H576V192H512V128Z"/>
</mask>
<path d="M576 128H574V192H576H578V128H576Z" fill="#333843" mask="url(#path-68-inside-32_3400_499)"/>
<mask id="path-70-inside-33_3400_499" fill="white">
<path d="M576 128H640V192H576V128Z"/>
</mask>
<path d="M640 128H638V192H640H642V128H640Z" fill="#333843" mask="url(#path-70-inside-33_3400_499)"/>
<mask id="path-72-inside-34_3400_499" fill="white">
<path d="M640 128H704V192H640V128Z"/>
</mask>
<path d="M704 128H702V192H704H706V128H704Z" fill="#333843" mask="url(#path-72-inside-34_3400_499)"/>
<mask id="path-74-inside-35_3400_499" fill="white">
<path d="M704 128H768V192H704V128Z"/>
</mask>
<path d="M768 128H767V192H768H769V128H768Z" fill="#333843" mask="url(#path-74-inside-35_3400_499)"/>
<mask id="path-76-inside-36_3400_499" fill="white">
<path d="M960 128H1024V192H960V128Z"/>
</mask>
<path d="M960 128H959.5V131.2H960H960.5V128H960ZM960 137.6H959.5V144H960H960.5V137.6H960ZM960 150.4H959.5V156.8H960H960.5V150.4H960ZM960 163.2H959.5V169.6H960H960.5V163.2H960ZM960 176H959.5V182.4H960H960.5V176H960ZM960 188.8H959.5V192H960H960.5V188.8H960ZM960 128H959V131.2H960H961V128H960ZM960 137.6H959V144H960H961V137.6H960ZM960 150.4H959V156.8H960H961V150.4H960ZM960 163.2H959V169.6H960H961V163.2H960ZM960 176H959V182.4H960H961V176H960ZM960 188.8H959V192H960H961V188.8H960Z" fill="#333843" mask="url(#path-76-inside-36_3400_499)"/>
<mask id="path-78-inside-37_3400_499" fill="white">
<path d="M0 192H64V256H0V192Z"/>
</mask>
<path d="M64 256H64.5V252.8H64H63.5V256H64ZM64 246.4H64.5V240H64H63.5V246.4H64ZM64 233.6H64.5V227.2H64H63.5V233.6H64ZM64 220.8H64.5V214.4H64H63.5V220.8H64ZM64 208H64.5V201.6H64H63.5V208H64ZM64 195.2H64.5V192H64H63.5V195.2H64ZM64 256H65V252.8H64H63V256H64ZM64 246.4H65V240H64H63V246.4H64ZM64 233.6H65V227.2H64H63V233.6H64ZM64 220.8H65V214.4H64H63V220.8H64ZM64 208H65V201.6H64H63V208H64ZM64 195.2H65V192H64H63V195.2H64Z" fill="#333843" mask="url(#path-78-inside-37_3400_499)"/>
<mask id="path-80-inside-38_3400_499" fill="white">
<path d="M256 192H320V256H256V192Z"/>
</mask>
<path d="M320 192H319V256H320H321V192H320ZM256 256H257V192H256H255V256H256Z" fill="#333843" mask="url(#path-80-inside-38_3400_499)"/>
<mask id="path-82-inside-39_3400_499" fill="white">
<path d="M320 192H384V256H320V192Z"/>
</mask>
<path d="M384 192H382V256H384H386V192H384Z" fill="#333843" mask="url(#path-82-inside-39_3400_499)"/>
<mask id="path-84-inside-40_3400_499" fill="white">
<path d="M384 192H448V256H384V192Z"/>
</mask>
<path d="M448 192H446V256H448H450V192H448Z" fill="#333843" mask="url(#path-84-inside-40_3400_499)"/>
<mask id="path-86-inside-41_3400_499" fill="white">
<path d="M448 192H512V256H448V192Z"/>
</mask>
<path d="M512 192H510V256H512H514V192H512Z" fill="#333843" mask="url(#path-86-inside-41_3400_499)"/>
<mask id="path-88-inside-42_3400_499" fill="white">
<path d="M512 192H576V256H512V192Z"/>
</mask>
<path d="M576 192H574V256H576H578V192H576Z" fill="#333843" mask="url(#path-88-inside-42_3400_499)"/>
<mask id="path-90-inside-43_3400_499" fill="white">
<path d="M576 192H640V256H576V192Z"/>
</mask>
<path d="M640 192H638V256H640H642V192H640Z" fill="#333843" mask="url(#path-90-inside-43_3400_499)"/>
<mask id="path-92-inside-44_3400_499" fill="white">
<path d="M640 192H704V256H640V192Z"/>
</mask>
<path d="M704 192H702V256H704H706V192H704Z" fill="#333843" mask="url(#path-92-inside-44_3400_499)"/>
<mask id="path-94-inside-45_3400_499" fill="white">
<path d="M704 192H768V256H704V192Z"/>
</mask>
<path d="M768 192H767V256H768H769V192H768Z" fill="#333843" mask="url(#path-94-inside-45_3400_499)"/>
<mask id="path-96-inside-46_3400_499" fill="white">
<path d="M960 192H1024V256H960V192Z"/>
</mask>
<path d="M960 192H959.5V195.2H960H960.5V192H960ZM960 201.6H959.5V208H960H960.5V201.6H960ZM960 214.4H959.5V220.8H960H960.5V214.4H960ZM960 227.2H959.5V233.6H960H960.5V227.2H960ZM960 240H959.5V246.4H960H960.5V240H960ZM960 252.8H959.5V256H960H960.5V252.8H960ZM960 192H959V195.2H960H961V192H960ZM960 201.6H959V208H960H961V201.6H960ZM960 214.4H959V220.8H960H961V214.4H960ZM960 227.2H959V233.6H960H961V227.2H960ZM960 240H959V246.4H960H961V240H960ZM960 252.8H959V256H960H961V252.8H960Z" fill="#333843" mask="url(#path-96-inside-46_3400_499)"/>
<mask id="path-98-inside-47_3400_499" fill="white">
<path d="M0 256H64V320H0V256Z"/>
</mask>
<path d="M64 320H64.5V316.8H64H63.5V320H64ZM64 310.4H64.5V304H64H63.5V310.4H64ZM64 297.6H64.5V291.2H64H63.5V297.6H64ZM64 284.8H64.5V278.4H64H63.5V284.8H64ZM64 272H64.5V265.6H64H63.5V272H64ZM64 259.2H64.5V256H64H63.5V259.2H64ZM64 320H65V316.8H64H63V320H64ZM64 310.4H65V304H64H63V310.4H64ZM64 297.6H65V291.2H64H63V297.6H64ZM64 284.8H65V278.4H64H63V284.8H64ZM64 272H65V265.6H64H63V272H64ZM64 259.2H65V256H64H63V259.2H64Z" fill="#333843" mask="url(#path-98-inside-47_3400_499)"/>
<mask id="path-100-inside-48_3400_499" fill="white">
<path d="M256 256H320V320H256V256Z"/>
</mask>
<path d="M320 320V321H321V320H320ZM256 320H255V321H256V320ZM320 256H319V320H320H321V256H320ZM320 320V319H256V320V321H320V320ZM256 320H257V256H256H255V320H256Z" fill="#333843" mask="url(#path-100-inside-48_3400_499)"/>
<mask id="path-102-inside-49_3400_499" fill="white">
<path d="M320 256H384V320H320V256Z"/>
</mask>
<path d="M384 320V321H385V320H384ZM384 256H383V320H384H385V256H384ZM384 320V319H320V320V321H384V320Z" fill="#333843" mask="url(#path-102-inside-49_3400_499)"/>
<mask id="path-104-inside-50_3400_499" fill="white">
<path d="M384 256H448V320H384V256Z"/>
</mask>
<path d="M448 320V321H449V320H448ZM448 256H447V320H448H449V256H448ZM448 320V319H384V320V321H448V320Z" fill="#333843" mask="url(#path-104-inside-50_3400_499)"/>
<mask id="path-106-inside-51_3400_499" fill="white">
<path d="M448 256H512V320H448V256Z"/>
</mask>
<path d="M512 320V321H513V320H512ZM512 256H511V320H512H513V256H512ZM512 320V319H448V320V321H512V320Z" fill="#333843" mask="url(#path-106-inside-51_3400_499)"/>
<mask id="path-108-inside-52_3400_499" fill="white">
<path d="M512 256H576V320H512V256Z"/>
</mask>
<path d="M576 320V321H577V320H576ZM576 256H575V320H576H577V256H576ZM576 320V319H512V320V321H576V320Z" fill="#333843" mask="url(#path-108-inside-52_3400_499)"/>
<mask id="path-110-inside-53_3400_499" fill="white">
<path d="M576 256H640V320H576V256Z"/>
</mask>
<path d="M640 320V321H641V320H640ZM640 256H639V320H640H641V256H640ZM640 320V319H576V320V321H640V320Z" fill="#333843" mask="url(#path-110-inside-53_3400_499)"/>
<mask id="path-112-inside-54_3400_499" fill="white">
<path d="M640 256H704V320H640V256Z"/>
</mask>
<path d="M704 320V321H705V320H704ZM704 256H703V320H704H705V256H704ZM704 320V319H640V320V321H704V320Z" fill="#333843" mask="url(#path-112-inside-54_3400_499)"/>
<mask id="path-114-inside-55_3400_499" fill="white">
<path d="M704 256H768V320H704V256Z"/>
</mask>
<path d="M768 320V321H769V320H768ZM768 256H767V320H768H769V256H768ZM768 320V319H704V320V321H768V320Z" fill="#333843" mask="url(#path-114-inside-55_3400_499)"/>
<mask id="path-116-inside-56_3400_499" fill="white">
<path d="M960 256H1024V320H960V256Z"/>
</mask>
<path d="M960 256H959.5V259.2H960H960.5V256H960ZM960 265.6H959.5V272H960H960.5V265.6H960ZM960 278.4H959.5V284.8H960H960.5V278.4H960ZM960 291.2H959.5V297.6H960H960.5V291.2H960ZM960 304H959.5V310.4H960H960.5V304H960ZM960 316.8H959.5V320H960H960.5V316.8H960ZM960 256H959V259.2H960H961V256H960ZM960 265.6H959V272H960H961V265.6H960ZM960 278.4H959V284.8H960H961V278.4H960ZM960 291.2H959V297.6H960H961V291.2H960ZM960 304H959V310.4H960H961V304H960ZM960 316.8H959V320H960H961V316.8H960Z" fill="#333843" mask="url(#path-116-inside-56_3400_499)"/>
<mask id="path-118-inside-57_3400_499" fill="white">
<path d="M0 320H64V384H0V320Z"/>
</mask>
<path d="M64 384H64.5V380.8H64H63.5V384H64ZM64 374.4H64.5V368H64H63.5V374.4H64ZM64 361.6H64.5V355.2H64H63.5V361.6H64ZM64 348.8H64.5V342.4H64H63.5V348.8H64ZM64 336H64.5V329.6H64H63.5V336H64ZM64 323.2H64.5V320H64H63.5V323.2H64ZM64 384H65V380.8H64H63V384H64ZM64 374.4H65V368H64H63V374.4H64ZM64 361.6H65V355.2H64H63V361.6H64ZM64 348.8H65V342.4H64H63V348.8H64ZM64 336H65V329.6H64H63V336H64ZM64 323.2H65V320H64H63V323.2H64Z" fill="#333843" mask="url(#path-118-inside-57_3400_499)"/>
<mask id="path-120-inside-58_3400_499" fill="white">
<path d="M256 320H320V384H256V320Z"/>
</mask>
<path d="M320 384V385H321V384H320ZM256 384H255V385H256V384ZM320 320H319V384H320H321V320H320ZM320 384V383H256V384V385H320V384ZM256 384H257V320H256H255V384H256Z" fill="#333843" mask="url(#path-120-inside-58_3400_499)"/>
<mask id="path-122-inside-59_3400_499" fill="white">
<path d="M320 320H384V384H320V320Z"/>
</mask>
<path d="M384 384V385H385V384H384ZM384 320H383V384H384H385V320H384ZM384 384V383H320V384V385H384V384Z" fill="#333843" mask="url(#path-122-inside-59_3400_499)"/>
<mask id="path-124-inside-60_3400_499" fill="white">
<path d="M384 320H448V384H384V320Z"/>
</mask>
<path d="M448 384V385H449V384H448ZM448 320H447V384H448H449V320H448ZM448 384V383H384V384V385H448V384Z" fill="#333843" mask="url(#path-124-inside-60_3400_499)"/>
<mask id="path-126-inside-61_3400_499" fill="white">
<path d="M448 320H512V384H448V320Z"/>
</mask>
<path d="M512 384V385H513V384H512ZM512 320H511V384H512H513V320H512ZM512 384V383H448V384V385H512V384Z" fill="#333843" mask="url(#path-126-inside-61_3400_499)"/>
<mask id="path-128-inside-62_3400_499" fill="white">
<path d="M512 320H576V384H512V320Z"/>
</mask>
<path d="M576 384V385H577V384H576ZM576 320H575V384H576H577V320H576ZM576 384V383H512V384V385H576V384Z" fill="#333843" mask="url(#path-128-inside-62_3400_499)"/>
<mask id="path-130-inside-63_3400_499" fill="white">
<path d="M576 320H640V384H576V320Z"/>
</mask>
<path d="M640 384V385H641V384H640ZM640 320H639V384H640H641V320H640ZM640 384V383H576V384V385H640V384Z" fill="#333843" mask="url(#path-130-inside-63_3400_499)"/>
<mask id="path-132-inside-64_3400_499" fill="white">
<path d="M640 320H704V384H640V320Z"/>
</mask>
<path d="M704 384V385H705V384H704ZM704 320H703V384H704H705V320H704ZM704 384V383H640V384V385H704V384Z" fill="#333843" mask="url(#path-132-inside-64_3400_499)"/>
<mask id="path-134-inside-65_3400_499" fill="white">
<path d="M704 320H768V384H704V320Z"/>
</mask>
<path d="M768 384V385H769V384H768ZM768 320H767V384H768H769V320H768ZM768 384V383H704V384V385H768V384Z" fill="#333843" mask="url(#path-134-inside-65_3400_499)"/>
<mask id="path-136-inside-66_3400_499" fill="white">
<path d="M960 320H1024V384H960V320Z"/>
</mask>
<path d="M960 320H959.5V323.2H960H960.5V320H960ZM960 329.6H959.5V336H960H960.5V329.6H960ZM960 342.4H959.5V348.8H960H960.5V342.4H960ZM960 355.2H959.5V361.6H960H960.5V355.2H960ZM960 368H959.5V374.4H960H960.5V368H960ZM960 380.8H959.5V384H960H960.5V380.8H960ZM960 320H959V323.2H960H961V320H960ZM960 329.6H959V336H960H961V329.6H960ZM960 342.4H959V348.8H960H961V342.4H960ZM960 355.2H959V361.6H960H961V355.2H960ZM960 368H959V374.4H960H961V368H960ZM960 380.8H959V384H960H961V380.8H960Z" fill="#333843" mask="url(#path-136-inside-66_3400_499)"/>
<mask id="path-138-inside-67_3400_499" fill="white">
<path d="M0 384H64V448H0V384Z"/>
</mask>
<path d="M64 448H64.5V444.8H64H63.5V448H64ZM64 438.4H64.5V432H64H63.5V438.4H64ZM64 425.6H64.5V419.2H64H63.5V425.6H64ZM64 412.8H64.5V406.4H64H63.5V412.8H64ZM64 400H64.5V393.6H64H63.5V400H64ZM64 387.2H64.5V384H64H63.5V387.2H64ZM64 448H65V444.8H64H63V448H64ZM64 438.4H65V432H64H63V438.4H64ZM64 425.6H65V419.2H64H63V425.6H64ZM64 412.8H65V406.4H64H63V412.8H64ZM64 400H65V393.6H64H63V400H64ZM64 387.2H65V384H64H63V387.2H64Z" fill="#333843" mask="url(#path-138-inside-67_3400_499)"/>
<mask id="path-140-inside-68_3400_499" fill="white">
<path d="M256 384H320V448H256V384Z"/>
</mask>
<path d="M320 448V449H321V448H320ZM256 448H255V449H256V448ZM320 384H319V448H320H321V384H320ZM320 448V447H256V448V449H320V448ZM256 448H257V384H256H255V448H256Z" fill="#333843" mask="url(#path-140-inside-68_3400_499)"/>
<mask id="path-142-inside-69_3400_499" fill="white">
<path d="M320 384H384V448H320V384Z"/>
</mask>
<path d="M384 448V449H385V448H384ZM384 384H383V448H384H385V384H384ZM384 448V447H320V448V449H384V448Z" fill="#333843" mask="url(#path-142-inside-69_3400_499)"/>
<mask id="path-144-inside-70_3400_499" fill="white">
<path d="M384 384H448V448H384V384Z"/>
</mask>
<path d="M448 448V449H449V448H448ZM448 384H447V448H448H449V384H448ZM448 448V447H384V448V449H448V448Z" fill="#333843" mask="url(#path-144-inside-70_3400_499)"/>
<mask id="path-146-inside-71_3400_499" fill="white">
<path d="M448 384H512V448H448V384Z"/>
</mask>
<path d="M512 448V449H513V448H512ZM512 384H511V448H512H513V384H512ZM512 448V447H448V448V449H512V448Z" fill="#333843" mask="url(#path-146-inside-71_3400_499)"/>
<mask id="path-148-inside-72_3400_499" fill="white">
<path d="M512 384H576V448H512V384Z"/>
</mask>
<path d="M576 448V449H577V448H576ZM576 384H575V448H576H577V384H576ZM576 448V447H512V448V449H576V448Z" fill="#333843" mask="url(#path-148-inside-72_3400_499)"/>
<mask id="path-150-inside-73_3400_499" fill="white">
<path d="M576 384H640V448H576V384Z"/>
</mask>
<path d="M640 448V449H641V448H640ZM640 384H639V448H640H641V384H640ZM640 448V447H576V448V449H640V448Z" fill="#333843" mask="url(#path-150-inside-73_3400_499)"/>
<mask id="path-152-inside-74_3400_499" fill="white">
<path d="M640 384H704V448H640V384Z"/>
</mask>
<path d="M704 448V449H705V448H704ZM704 384H703V448H704H705V384H704ZM704 448V447H640V448V449H704V448Z" fill="#333843" mask="url(#path-152-inside-74_3400_499)"/>
<mask id="path-154-inside-75_3400_499" fill="white">
<path d="M704 384H768V448H704V384Z"/>
</mask>
<path d="M768 448V449H769V448H768ZM768 384H767V448H768H769V384H768ZM768 448V447H704V448V449H768V448Z" fill="#333843" mask="url(#path-154-inside-75_3400_499)"/>
<mask id="path-156-inside-76_3400_499" fill="white">
<path d="M960 384H1024V448H960V384Z"/>
</mask>
<path d="M960 384H959.5V387.2H960H960.5V384H960ZM960 393.6H959.5V400H960H960.5V393.6H960ZM960 406.4H959.5V412.8H960H960.5V406.4H960ZM960 419.2H959.5V425.6H960H960.5V419.2H960ZM960 432H959.5V438.4H960H960.5V432H960ZM960 444.8H959.5V448H960H960.5V444.8H960ZM960 384H959V387.2H960H961V384H960ZM960 393.6H959V400H960H961V393.6H960ZM960 406.4H959V412.8H960H961V406.4H960ZM960 419.2H959V425.6H960H961V419.2H960ZM960 432H959V438.4H960H961V432H960ZM960 444.8H959V448H960H961V444.8H960Z" fill="#333843" mask="url(#path-156-inside-76_3400_499)"/>
<mask id="path-158-inside-77_3400_499" fill="white">
<path d="M0 448H64V512H0V448Z"/>
</mask>
<path d="M64 512V513H65V512H64ZM0 512V513H3.2V512V511H0V512ZM9.6 512V513H16V512V511H9.6V512ZM22.4 512V513H28.8V512V511H22.4V512ZM35.2 512V513H41.6V512V511H35.2V512ZM48 512V513H54.4V512V511H48V512ZM60.8 512V513H64V512V511H60.8V512ZM64 512H65V508.8H64H63V512H64ZM64 502.4H65V496H64H63V502.4H64ZM64 489.6H65V483.2H64H63V489.6H64ZM64 476.8H65V470.4H64H63V476.8H64ZM64 464H65V457.6H64H63V464H64ZM64 451.2H65V448H64H63V451.2H64ZM64 512V514H66V512H64ZM0 512V514H3.2V512V510H0V512ZM9.6 512V514H16V512V510H9.6V512ZM22.4 512V514H28.8V512V510H22.4V512ZM35.2 512V514H41.6V512V510H35.2V512ZM48 512V514H54.4V512V510H48V512ZM60.8 512V514H64V512V510H60.8V512ZM64 512H66V508.8H64H62V512H64ZM64 502.4H66V496H64H62V502.4H64ZM64 489.6H66V483.2H64H62V489.6H64ZM64 476.8H66V470.4H64H62V476.8H64ZM64 464H66V457.6H64H62V464H64ZM64 451.2H66V448H64H62V451.2H64Z" fill="#333843" mask="url(#path-158-inside-77_3400_499)"/>
<mask id="path-160-inside-78_3400_499" fill="white">
<path d="M64 448H128V512H64V448Z"/>
</mask>
<path d="M64 512V513H67.2V512V511H64V512ZM73.6 512V513H80V512V511H73.6V512ZM86.4 512V513H92.8V512V511H86.4V512ZM99.2 512V513H105.6V512V511H99.2V512ZM112 512V513H118.4V512V511H112V512ZM124.8 512V513H128V512V511H124.8V512ZM64 512V514H67.2V512V510H64V512ZM73.6 512V514H80V512V510H73.6V512ZM86.4 512V514H92.8V512V510H86.4V512ZM99.2 512V514H105.6V512V510H99.2V512ZM112 512V514H118.4V512V510H112V512ZM124.8 512V514H128V512V510H124.8V512Z" fill="#333843" mask="url(#path-160-inside-78_3400_499)"/>
<mask id="path-162-inside-79_3400_499" fill="white">
<path d="M128 448H192V512H128V448Z"/>
</mask>
<path d="M128 512V513H131.2V512V511H128V512ZM137.6 512V513H144V512V511H137.6V512ZM150.4 512V513H156.8V512V511H150.4V512ZM163.2 512V513H169.6V512V511H163.2V512ZM176 512V513H182.4V512V511H176V512ZM188.8 512V513H192V512V511H188.8V512ZM128 512V514H131.2V512V510H128V512ZM137.6 512V514H144V512V510H137.6V512ZM150.4 512V514H156.8V512V510H150.4V512ZM163.2 512V514H169.6V512V510H163.2V512ZM176 512V514H182.4V512V510H176V512ZM188.8 512V514H192V512V510H188.8V512Z" fill="#333843" mask="url(#path-162-inside-79_3400_499)"/>
<mask id="path-164-inside-80_3400_499" fill="white">
<path d="M192 448H256V512H192V448Z"/>
</mask>
<path d="M192 512V513H195.2V512V511H192V512ZM201.6 512V513H208V512V511H201.6V512ZM214.4 512V513H220.8V512V511H214.4V512ZM227.2 512V513H233.6V512V511H227.2V512ZM240 512V513H246.4V512V511H240V512ZM252.8 512V513H256V512V511H252.8V512ZM192 512V514H195.2V512V510H192V512ZM201.6 512V514H208V512V510H201.6V512ZM214.4 512V514H220.8V512V510H214.4V512ZM227.2 512V514H233.6V512V510H227.2V512ZM240 512V514H246.4V512V510H240V512ZM252.8 512V514H256V512V510H252.8V512Z" fill="#333843" mask="url(#path-164-inside-80_3400_499)"/>
<mask id="path-166-inside-81_3400_499" fill="white">
<path d="M256 448H320V512H256V448Z"/>
</mask>
<path d="M320 512V513H321V512H320ZM256 512H255V513H256V512ZM320 448H319V512H320H321V448H320ZM320 512V511H256V512V513H320V512ZM256 512H257V448H256H255V512H256Z" fill="#333843" mask="url(#path-166-inside-81_3400_499)"/>
<mask id="path-168-inside-82_3400_499" fill="white">
<path d="M320 448H384V512H320V448Z"/>
</mask>
<path d="M384 512V513H385V512H384ZM384 448H383V512H384H385V448H384ZM384 512V511H320V512V513H384V512Z" fill="#333843" mask="url(#path-168-inside-82_3400_499)"/>
<mask id="path-170-inside-83_3400_499" fill="white">
<path d="M384 448H448V512H384V448Z"/>
</mask>
<path d="M448 512V513H449V512H448ZM448 448H447V512H448H449V448H448ZM448 512V511H384V512V513H448V512Z" fill="#333843" mask="url(#path-170-inside-83_3400_499)"/>
<mask id="path-172-inside-84_3400_499" fill="white">
<path d="M448 448H512V512H448V448Z"/>
</mask>
<path d="M512 512V513H513V512H512ZM512 448H511V512H512H513V448H512ZM512 512V511H448V512V513H512V512Z" fill="#333843" mask="url(#path-172-inside-84_3400_499)"/>
<mask id="path-174-inside-85_3400_499" fill="white">
<path d="M512 448H576V512H512V448Z"/>
</mask>
<path d="M576 512V513H577V512H576ZM576 448H575V512H576H577V448H576ZM576 512V511H512V512V513H576V512Z" fill="#333843" mask="url(#path-174-inside-85_3400_499)"/>
<mask id="path-176-inside-86_3400_499" fill="white">
<path d="M576 448H640V512H576V448Z"/>
</mask>
<path d="M640 512V513H641V512H640ZM640 448H639V512H640H641V448H640ZM640 512V511H576V512V513H640V512Z" fill="#333843" mask="url(#path-176-inside-86_3400_499)"/>
<mask id="path-178-inside-87_3400_499" fill="white">
<path d="M640 448H704V512H640V448Z"/>
</mask>
<path d="M704 512V513H705V512H704ZM704 448H703V512H704H705V448H704ZM704 512V511H640V512V513H704V512Z" fill="#333843" mask="url(#path-178-inside-87_3400_499)"/>
<mask id="path-180-inside-88_3400_499" fill="white">
<path d="M704 448H768V512H704V448Z"/>
</mask>
<path d="M768 512V513H769V512H768ZM768 448H767V512H768H769V448H768ZM768 512V511H704V512V513H768V512Z" fill="#333843" mask="url(#path-180-inside-88_3400_499)"/>
<mask id="path-182-inside-89_3400_499" fill="white">
<path d="M768 448H832V512H768V448Z"/>
</mask>
<path d="M768 512V513H771.2V512V511H768V512ZM777.6 512V513H784V512V511H777.6V512ZM790.4 512V513H796.8V512V511H790.4V512ZM803.2 512V513H809.6V512V511H803.2V512ZM816 512V513H822.4V512V511H816V512ZM828.8 512V513H832V512V511H828.8V512ZM768 512V514H771.2V512V510H768V512ZM777.6 512V514H784V512V510H777.6V512ZM790.4 512V514H796.8V512V510H790.4V512ZM803.2 512V514H809.6V512V510H803.2V512ZM816 512V514H822.4V512V510H816V512ZM828.8 512V514H832V512V510H828.8V512Z" fill="#333843" mask="url(#path-182-inside-89_3400_499)"/>
<mask id="path-184-inside-90_3400_499" fill="white">
<path d="M832 448H896V512H832V448Z"/>
</mask>
<path d="M832 512V513H835.2V512V511H832V512ZM841.6 512V513H848V512V511H841.6V512ZM854.4 512V513H860.8V512V511H854.4V512ZM867.2 512V513H873.6V512V511H867.2V512ZM880 512V513H886.4V512V511H880V512ZM892.8 512V513H896V512V511H892.8V512ZM832 512V514H835.2V512V510H832V512ZM841.6 512V514H848V512V510H841.6V512ZM854.4 512V514H860.8V512V510H854.4V512ZM867.2 512V514H873.6V512V510H867.2V512ZM880 512V514H886.4V512V510H880V512ZM892.8 512V514H896V512V510H892.8V512Z" fill="#333843" mask="url(#path-184-inside-90_3400_499)"/>
<mask id="path-186-inside-91_3400_499" fill="white">
<path d="M896 448H960V512H896V448Z"/>
</mask>
<path d="M896 512V513H899.2V512V511H896V512ZM905.6 512V513H912V512V511H905.6V512ZM918.4 512V513H924.8V512V511H918.4V512ZM931.2 512V513H937.6V512V511H931.2V512ZM944 512V513H950.4V512V511H944V512ZM956.8 512V513H960V512V511H956.8V512ZM896 512V514H899.2V512V510H896V512ZM905.6 512V514H912V512V510H905.6V512ZM918.4 512V514H924.8V512V510H918.4V512ZM931.2 512V514H937.6V512V510H931.2V512ZM944 512V514H950.4V512V510H944V512ZM956.8 512V514H960V512V510H956.8V512Z" fill="#333843" mask="url(#path-186-inside-91_3400_499)"/>
<mask id="path-188-inside-92_3400_499" fill="white">
<path d="M960 448H1024V512H960V448Z"/>
</mask>
<path d="M960 512H959V513H960V512ZM960 448H959V451.2H960H961V448H960ZM960 457.6H959V464H960H961V457.6H960ZM960 470.4H959V476.8H960H961V470.4H960ZM960 483.2H959V489.6H960H961V483.2H960ZM960 496H959V502.4H960H961V496H960ZM960 508.8H959V512H960H961V508.8H960ZM960 512V513H963.2V512V511H960V512ZM969.6 512V513H976V512V511H969.6V512ZM982.4 512V513H988.8V512V511H982.4V512ZM995.2 512V513H1001.6V512V511H995.2V512ZM1008 512V513H1014.4V512V511H1008V512ZM1020.8 512V513H1024V512V511H1020.8V512ZM960 512H958V514H960V512ZM960 448H958V451.2H960H962V448H960ZM960 457.6H958V464H960H962V457.6H960ZM960 470.4H958V476.8H960H962V470.4H960ZM960 483.2H958V489.6H960H962V483.2H960ZM960 496H958V502.4H960H962V496H960ZM960 508.8H958V512H960H962V508.8H960ZM960 512V514H963.2V512V510H960V512ZM969.6 512V514H976V512V510H969.6V512ZM982.4 512V514H988.8V512V510H982.4V512ZM995.2 512V514H1001.6V512V510H995.2V512ZM1008 512V514H1014.4V512V510H1008V512ZM1020.8 512V514H1024V512V510H1020.8V512Z" fill="#333843" mask="url(#path-188-inside-92_3400_499)"/>
<mask id="path-190-inside-93_3400_499" fill="white">
<path d="M0 512H64V576H0V512Z"/>
</mask>
<path d="M64 576H65V572.8H64H63V576H64ZM64 566.4H65V560H64H63V566.4H64ZM64 553.6H65V547.2H64H63V553.6H64ZM64 540.8H65V534.4H64H63V540.8H64ZM64 528H65V521.6H64H63V528H64ZM64 515.2H65V512H64H63V515.2H64ZM64 576H66V572.8H64H62V576H64ZM64 566.4H66V560H64H62V566.4H64ZM64 553.6H66V547.2H64H62V553.6H64ZM64 540.8H66V534.4H64H62V540.8H64ZM64 528H66V521.6H64H62V528H64ZM64 515.2H66V512H64H62V515.2H64Z" fill="#333843" mask="url(#path-190-inside-93_3400_499)"/>
<mask id="path-192-inside-94_3400_499" fill="white">
<path d="M256 512H320V576H256V512Z"/>
</mask>
<path d="M320 576V577H321V576H320ZM256 576H255V577H256V576ZM320 512H319V576H320H321V512H320ZM320 576V575H256V576V577H320V576ZM256 576H257V512H256H255V576H256Z" fill="#333843" mask="url(#path-192-inside-94_3400_499)"/>
<mask id="path-194-inside-95_3400_499" fill="white">
<path d="M320 512H384V576H320V512Z"/>
</mask>
<path d="M384 576V577H385V576H384ZM384 512H383V576H384H385V512H384ZM384 576V575H320V576V577H384V576Z" fill="#333843" mask="url(#path-194-inside-95_3400_499)"/>
<mask id="path-196-inside-96_3400_499" fill="white">
<path d="M384 512H448V576H384V512Z"/>
</mask>
<path d="M448 576V577H449V576H448ZM448 512H447V576H448H449V512H448ZM448 576V575H384V576V577H448V576Z" fill="#333843" mask="url(#path-196-inside-96_3400_499)"/>
<mask id="path-198-inside-97_3400_499" fill="white">
<path d="M448 512H512V576H448V512Z"/>
</mask>
<path d="M512 576V577H513V576H512ZM512 512H511V576H512H513V512H512ZM512 576V575H448V576V577H512V576Z" fill="#333843" mask="url(#path-198-inside-97_3400_499)"/>
<mask id="path-200-inside-98_3400_499" fill="white">
<path d="M512 512H576V576H512V512Z"/>
</mask>
<path d="M576 576V577H577V576H576ZM576 512H575V576H576H577V512H576ZM576 576V575H512V576V577H576V576Z" fill="#333843" mask="url(#path-200-inside-98_3400_499)"/>
<mask id="path-202-inside-99_3400_499" fill="white">
<path d="M576 512H640V576H576V512Z"/>
</mask>
<path d="M640 576V577H641V576H640ZM640 512H639V576H640H641V512H640ZM640 576V575H576V576V577H640V576Z" fill="#333843" mask="url(#path-202-inside-99_3400_499)"/>
<mask id="path-204-inside-100_3400_499" fill="white">
<path d="M640 512H704V576H640V512Z"/>
</mask>
<path d="M704 576V577H705V576H704ZM704 512H703V576H704H705V512H704ZM704 576V575H640V576V577H704V576Z" fill="#333843" mask="url(#path-204-inside-100_3400_499)"/>
<mask id="path-206-inside-101_3400_499" fill="white">
<path d="M704 512H768V576H704V512Z"/>
</mask>
<path d="M768 576V577H769V576H768ZM768 512H767V576H768H769V512H768ZM768 576V575H704V576V577H768V576Z" fill="#333843" mask="url(#path-206-inside-101_3400_499)"/>
<mask id="path-208-inside-102_3400_499" fill="white">
<path d="M960 512H1024V576H960V512Z"/>
</mask>
<path d="M960 512H959V515.2H960H961V512H960ZM960 521.6H959V528H960H961V521.6H960ZM960 534.4H959V540.8H960H961V534.4H960ZM960 547.2H959V553.6H960H961V547.2H960ZM960 560H959V566.4H960H961V560H960ZM960 572.8H959V576H960H961V572.8H960ZM960 512H958V515.2H960H962V512H960ZM960 521.6H958V528H960H962V521.6H960ZM960 534.4H958V540.8H960H962V534.4H960ZM960 547.2H958V553.6H960H962V547.2H960ZM960 560H958V566.4H960H962V560H960ZM960 572.8H958V576H960H962V572.8H960Z" fill="#333843" mask="url(#path-208-inside-102_3400_499)"/>
<rect x="639.5" y="128.5" width="256" height="65" transform="rotate(-180 639.5 128.5)" fill="#191C1E" stroke="#333843"/>
<path d="M256.5 257.5L256.5 128.5L767.5 128.5L767.5 257.5L256.5 257.5Z" fill="#191C1E" stroke="#333843"/>
<circle cx="383" cy="64" r="3.5" fill="#272B2E" stroke="#333843"/>
<circle cx="257" cy="129" r="3.5" fill="#272B2E" stroke="#333843"/>
<circle cx="767" cy="129" r="3.5" fill="#272B2E" stroke="#333843"/>
<circle cx="257" cy="257" r="3.5" fill="#272B2E" stroke="#333843"/>
<circle cx="767" cy="257" r="3.5" fill="#272B2E" stroke="#333843"/>
<circle cx="639" cy="64" r="3.5" fill="#272B2E" stroke="#333843"/>
</svg>
