<svg width="96" height="96" viewBox="0 0 96 96" fill="none" xmlns="http://www.w3.org/2000/svg">
<rect width="96" height="96" rx="24" fill="#F2F2F2"/>
<g clip-path="url(#clip0_3400_551)">
<path d="M26.1799 77.703L26.1799 46.9538L16.594 38.2295L7.99805 33.3882L7.99805 72.2766C7.99805 75.2791 10.4434 77.703 13.4527 77.703H26.1799Z" fill="#4285F4"/>
<path d="M69.8164 77.7037H82.5436C85.562 77.7037 87.9983 75.2707 87.9983 72.2772V33.3892L78.262 38.9343L69.8164 46.9544V77.7037Z" fill="#34A853"/>
<path d="M26.1794 46.9547L24.875 34.9401L26.1794 23.4409L47.9975 39.7199L69.8156 23.4409L71.2747 34.3193L69.8156 46.9547L47.9975 63.2337L26.1794 46.9547Z" fill="#EA4335"/>
<path d="M69.8164 23.4406V46.9544L87.9983 33.3888V26.1536C87.9983 19.4433 80.2983 15.6179 74.9077 19.6422L69.8164 23.4406Z" fill="#FBBC04"/>
<path d="M7.99805 33.3889L16.3602 39.6283L26.1799 46.9545L26.1799 23.4407L21.0887 19.6424C15.6887 15.6177 7.99805 19.4434 7.99805 26.1535V33.3889Z" fill="#C5221F"/>
</g>
<defs>
<clipPath id="clip0_3400_551">
<rect width="80" height="60" fill="white" transform="translate(7.99805 17.999)"/>
</clipPath>
</defs>
</svg>
