<svg width="1299" height="605" viewBox="0 0 1299 605" fill="none" xmlns="http://www.w3.org/2000/svg">
<g filter="url(#filter0_fn_3402_633)">
<path d="M638.5 24L384 209H895L638.5 24Z" fill="#191C1E"/>
</g>
<g filter="url(#filter1_fn_3402_633)">
<rect x="1203" y="509" width="1107" height="342" transform="rotate(-180 1203 509)" fill="#1A1C1F"/>
</g>
<g filter="url(#filter2_fn_3402_633)">
<ellipse cx="447.499" cy="246.54" rx="103" ry="37.6083" transform="rotate(-37.4487 447.499 246.54)" fill="#ABABAB"/>
</g>
<g filter="url(#filter3_fn_3402_633)">
<ellipse cx="103" cy="37.6083" rx="103" ry="37.6083" transform="matrix(-0.793898 -0.608051 -0.608051 0.793898 947.277 285.312)" fill="#ABABAB"/>
</g>
<g filter="url(#filter4_i_3402_633)">
<path d="M620.801 55.4777L364 240.5H915.008L658.214 55.4779C647.042 47.4285 631.973 47.4284 620.801 55.4777Z" fill="url(#paint0_linear_3402_633)"/>
</g>
<mask id="path-6-inside-1_3402_633" fill="white">
<path d="M361 244.5C361 242.291 362.791 240.5 365 240.5H915C917.209 240.5 919 242.291 919 244.5V426.5C919 428.709 917.209 430.5 915 430.5H365C362.791 430.5 361 428.709 361 426.5V244.5Z"/>
</mask>
<path d="M361 244.5C361 242.291 362.791 240.5 365 240.5H915C917.209 240.5 919 242.291 919 244.5V426.5C919 428.709 917.209 430.5 915 430.5H365C362.791 430.5 361 428.709 361 426.5V244.5Z" fill="url(#paint1_linear_3402_633)"/>
<path d="M361 244.5C361 241.186 363.686 238.5 367 238.5H913C916.314 238.5 919 241.186 919 244.5C919 243.395 917.209 242.5 915 242.5H365C362.791 242.5 361 243.395 361 244.5ZM919 430.5H361H919ZM361 430.5V240.5V430.5ZM919 240.5V430.5V240.5Z" fill="#7A7A7B" mask="url(#path-6-inside-1_3402_633)"/>
<g filter="url(#filter5_f_3402_633)">
<path d="M838.375 398L893 280H860.68L692.707 365.244H589.83L418.066 280H395L467.378 398H838.375Z" fill="#464649"/>
</g>
<g filter="url(#filter6_f_3402_633)">
<path d="M838.375 382L893 274H847.5L706 365.579H576L432.066 274H395L467.378 382H838.375Z" fill="#464649"/>
</g>
<path d="M365 241.5H379.196L574.444 371.832L574.697 372H706.805L707.059 371.83L900.806 241.5H915C916.657 241.5 918 242.843 918 244.5V429.5H362V244.5C362 242.843 363.343 241.5 365 241.5Z" fill="url(#paint2_linear_3402_633)" stroke="url(#paint3_linear_3402_633)" stroke-width="2"/>
<path d="M772 399L919 301V399H772Z" fill="url(#paint4_linear_3402_633)"/>
<path d="M508.137 399L361.137 301V399H508.137Z" fill="url(#paint5_linear_3402_633)"/>
<defs>
<filter id="filter0_fn_3402_633" x="360" y="0" width="559" height="233" filterUnits="userSpaceOnUse" color-interpolation-filters="sRGB">
<feFlood flood-opacity="0" result="BackgroundImageFix"/>
<feBlend mode="normal" in="SourceGraphic" in2="BackgroundImageFix" result="shape"/>
<feGaussianBlur stdDeviation="12" result="effect1_foregroundBlur_3402_633"/>
<feTurbulence type="fractalNoise" baseFrequency="1 1" stitchTiles="stitch" numOctaves="3" result="noise" seed="2314" />
<feColorMatrix in="noise" type="luminanceToAlpha" result="alphaNoise" />
<feComponentTransfer in="alphaNoise" result="coloredNoise1">
<feFuncA type="discrete" tableValues="1 1 1 1 1 1 1 1 1 1 1 1 1 1 1 1 1 1 1 1 1 1 1 1 1 1 1 1 1 1 1 1 1 1 1 1 1 1 1 1 1 1 1 1 1 1 1 1 1 1 1 0 0 0 0 0 0 0 0 0 0 0 0 0 0 0 0 0 0 0 0 0 0 0 0 0 0 0 0 0 0 0 0 0 0 0 0 0 0 0 0 0 0 0 0 0 0 0 0 0 "/>
</feComponentTransfer>
<feComposite operator="in" in2="effect1_foregroundBlur_3402_633" in="coloredNoise1" result="noise1Clipped" />
<feFlood flood-color="rgba(25, 28, 30, 0.25)" result="color1Flood" />
<feComposite operator="in" in2="noise1Clipped" in="color1Flood" result="color1" />
<feMerge result="effect2_noise_3402_633">
<feMergeNode in="effect1_foregroundBlur_3402_633" />
<feMergeNode in="color1" />
</feMerge>
</filter>
<filter id="filter1_fn_3402_633" x="0" y="71" width="1299" height="534" filterUnits="userSpaceOnUse" color-interpolation-filters="sRGB">
<feFlood flood-opacity="0" result="BackgroundImageFix"/>
<feBlend mode="normal" in="SourceGraphic" in2="BackgroundImageFix" result="shape"/>
<feGaussianBlur stdDeviation="48" result="effect1_foregroundBlur_3402_633"/>
<feTurbulence type="fractalNoise" baseFrequency="1 1" stitchTiles="stitch" numOctaves="3" result="noise" seed="2314" />
<feColorMatrix in="noise" type="luminanceToAlpha" result="alphaNoise" />
<feComponentTransfer in="alphaNoise" result="coloredNoise1">
<feFuncA type="discrete" tableValues="1 1 1 1 1 1 1 1 1 1 1 1 1 1 1 1 1 1 1 1 1 1 1 1 1 1 1 1 1 1 1 1 1 1 1 1 1 1 1 1 1 1 1 1 1 1 1 1 1 1 1 0 0 0 0 0 0 0 0 0 0 0 0 0 0 0 0 0 0 0 0 0 0 0 0 0 0 0 0 0 0 0 0 0 0 0 0 0 0 0 0 0 0 0 0 0 0 0 0 0 "/>
</feComponentTransfer>
<feComposite operator="in" in2="effect1_foregroundBlur_3402_633" in="coloredNoise1" result="noise1Clipped" />
<feFlood flood-color="rgba(25, 28, 30, 0.25)" result="color1Flood" />
<feComposite operator="in" in2="noise1Clipped" in="color1Flood" result="color1" />
<feMerge result="effect2_noise_3402_633">
<feMergeNode in="effect1_foregroundBlur_3402_633" />
<feMergeNode in="color1" />
</feMerge>
</filter>
<filter id="filter2_fn_3402_633" x="254.568" y="69.1421" width="385.861" height="354.796" filterUnits="userSpaceOnUse" color-interpolation-filters="sRGB">
<feFlood flood-opacity="0" result="BackgroundImageFix"/>
<feBlend mode="normal" in="SourceGraphic" in2="BackgroundImageFix" result="shape"/>
<feGaussianBlur stdDeviation="54" result="effect1_foregroundBlur_3402_633"/>
<feTurbulence type="fractalNoise" baseFrequency="1 1" stitchTiles="stitch" numOctaves="3" result="noise" seed="2314" />
<feColorMatrix in="noise" type="luminanceToAlpha" result="alphaNoise" />
<feComponentTransfer in="alphaNoise" result="coloredNoise1">
<feFuncA type="discrete" tableValues="1 1 1 1 1 1 1 1 1 1 1 1 1 1 1 1 1 1 1 1 1 1 1 1 1 1 1 1 1 1 1 1 1 1 1 1 1 1 1 1 1 1 1 1 1 1 1 1 1 1 1 0 0 0 0 0 0 0 0 0 0 0 0 0 0 0 0 0 0 0 0 0 0 0 0 0 0 0 0 0 0 0 0 0 0 0 0 0 0 0 0 0 0 0 0 0 0 0 0 0 "/>
</feComponentTransfer>
<feComposite operator="in" in2="effect1_foregroundBlur_3402_633" in="coloredNoise1" result="noise1Clipped" />
<feFlood flood-color="rgba(171, 171, 171, 0.25)" result="color1Flood" />
<feComposite operator="in" in2="noise1Clipped" in="color1Flood" result="color1" />
<feMerge result="effect2_noise_3402_633">
<feMergeNode in="effect1_foregroundBlur_3402_633" />
<feMergeNode in="color1" />
</feMerge>
</filter>
<filter id="filter3_fn_3402_633" x="649.707" y="75.1421" width="385.861" height="354.796" filterUnits="userSpaceOnUse" color-interpolation-filters="sRGB">
<feFlood flood-opacity="0" result="BackgroundImageFix"/>
<feBlend mode="normal" in="SourceGraphic" in2="BackgroundImageFix" result="shape"/>
<feGaussianBlur stdDeviation="54" result="effect1_foregroundBlur_3402_633"/>
<feTurbulence type="fractalNoise" baseFrequency="1 1" stitchTiles="stitch" numOctaves="3" result="noise" seed="2314" />
<feColorMatrix in="noise" type="luminanceToAlpha" result="alphaNoise" />
<feComponentTransfer in="alphaNoise" result="coloredNoise1">
<feFuncA type="discrete" tableValues="1 1 1 1 1 1 1 1 1 1 1 1 1 1 1 1 1 1 1 1 1 1 1 1 1 1 1 1 1 1 1 1 1 1 1 1 1 1 1 1 1 1 1 1 1 1 1 1 1 1 1 0 0 0 0 0 0 0 0 0 0 0 0 0 0 0 0 0 0 0 0 0 0 0 0 0 0 0 0 0 0 0 0 0 0 0 0 0 0 0 0 0 0 0 0 0 0 0 0 0 "/>
</feComponentTransfer>
<feComposite operator="in" in2="effect1_foregroundBlur_3402_633" in="coloredNoise1" result="noise1Clipped" />
<feFlood flood-color="rgba(171, 171, 171, 0.25)" result="color1Flood" />
<feComposite operator="in" in2="noise1Clipped" in="color1Flood" result="color1" />
<feMerge result="effect2_noise_3402_633">
<feMergeNode in="effect1_foregroundBlur_3402_633" />
<feMergeNode in="color1" />
</feMerge>
</filter>
<filter id="filter4_i_3402_633" x="364" y="49.4409" width="551.008" height="191.059" filterUnits="userSpaceOnUse" color-interpolation-filters="sRGB">
<feFlood flood-opacity="0" result="BackgroundImageFix"/>
<feBlend mode="normal" in="SourceGraphic" in2="BackgroundImageFix" result="shape"/>
<feColorMatrix in="SourceAlpha" type="matrix" values="0 0 0 0 0 0 0 0 0 0 0 0 0 0 0 0 0 0 127 0" result="hardAlpha"/>
<feOffset dy="2"/>
<feComposite in2="hardAlpha" operator="arithmetic" k2="-1" k3="1"/>
<feColorMatrix type="matrix" values="0 0 0 0 0.705882 0 0 0 0 0.705882 0 0 0 0 0.713726 0 0 0 1 0"/>
<feBlend mode="normal" in2="shape" result="effect1_innerShadow_3402_633"/>
</filter>
<filter id="filter5_f_3402_633" x="363" y="248" width="562" height="182" filterUnits="userSpaceOnUse" color-interpolation-filters="sRGB">
<feFlood flood-opacity="0" result="BackgroundImageFix"/>
<feBlend mode="normal" in="SourceGraphic" in2="BackgroundImageFix" result="shape"/>
<feGaussianBlur stdDeviation="16" result="effect1_foregroundBlur_3402_633"/>
</filter>
<filter id="filter6_f_3402_633" x="387" y="266" width="514" height="124" filterUnits="userSpaceOnUse" color-interpolation-filters="sRGB">
<feFlood flood-opacity="0" result="BackgroundImageFix"/>
<feBlend mode="normal" in="SourceGraphic" in2="BackgroundImageFix" result="shape"/>
<feGaussianBlur stdDeviation="4" result="effect1_foregroundBlur_3402_633"/>
</filter>
<linearGradient id="paint0_linear_3402_633" x1="639.504" y1="42" x2="639.504" y2="240.5" gradientUnits="userSpaceOnUse">
<stop stop-color="#C1C1C2"/>
<stop offset="1" stop-color="#727274"/>
</linearGradient>
<linearGradient id="paint1_linear_3402_633" x1="640" y1="240.5" x2="640" y2="294.5" gradientUnits="userSpaceOnUse">
<stop stop-color="#656567"/>
<stop offset="1" stop-color="#8E8E90"/>
</linearGradient>
<linearGradient id="paint2_linear_3402_633" x1="640" y1="240.5" x2="640" y2="430.5" gradientUnits="userSpaceOnUse">
<stop stop-color="#BCBCBD"/>
<stop offset="1" stop-color="#191C1F"/>
</linearGradient>
<linearGradient id="paint3_linear_3402_633" x1="640" y1="240.5" x2="640" y2="430.5" gradientUnits="userSpaceOnUse">
<stop stop-color="#CECECF"/>
<stop offset="1" stop-color="#1A1C1F"/>
</linearGradient>
<linearGradient id="paint4_linear_3402_633" x1="846" y1="330" x2="855.5" y2="385" gradientUnits="userSpaceOnUse">
<stop stop-color="#858589"/>
<stop offset="1" stop-color="#353536" stop-opacity="0.1"/>
</linearGradient>
<linearGradient id="paint5_linear_3402_633" x1="434.137" y1="330" x2="424.637" y2="385" gradientUnits="userSpaceOnUse">
<stop stop-color="#858589"/>
<stop offset="1" stop-color="#353536" stop-opacity="0.1"/>
</linearGradient>
</defs>
</svg>
