<svg width="96" height="96" viewBox="0 0 96 96" fill="none" xmlns="http://www.w3.org/2000/svg">
<rect width="96" height="96" rx="24" fill="#F2F2F2"/>
<g clip-path="url(#clip0_3400_545)">
<path d="M71.375 4L24.625 4C13.2341 4 4 13.2341 4 24.625L4 71.375C4 82.7659 13.2341 92 24.625 92H71.375C82.7659 92 92 82.7659 92 71.375V24.625C92 13.2341 82.7659 4 71.375 4Z" fill="url(#paint0_radial_3400_545)"/>
<path d="M71.375 4L24.625 4C13.2341 4 4 13.2341 4 24.625L4 71.375C4 82.7659 13.2341 92 24.625 92H71.375C82.7659 92 92 82.7659 92 71.375V24.625C92 13.2341 82.7659 4 71.375 4Z" fill="url(#paint1_radial_3400_545)"/>
<path d="M48.0031 13.6255C38.6675 13.6255 37.4957 13.6664 33.8293 13.8331C30.1697 14.0009 27.6717 14.5801 25.4861 15.4302C23.2249 16.3081 21.3071 17.4827 19.3966 19.394C17.4843 21.3049 16.3097 23.2226 15.429 25.4828C14.5765 27.669 13.9966 30.1681 13.8319 33.826C13.668 37.4927 13.625 38.6649 13.625 48.0008C13.625 57.3367 13.6663 58.5048 13.8326 62.1712C14.0011 65.8308 14.5803 68.3288 15.4297 70.5144C16.3083 72.7756 17.4829 74.6934 19.3942 76.6039C21.3044 78.5162 23.2222 79.6935 25.4816 80.5715C27.6689 81.4216 30.1673 82.0008 33.8262 82.1685C37.4929 82.3353 38.6638 82.3762 47.999 82.3762C57.3356 82.3762 58.5036 82.3353 62.1701 82.1685C65.8296 82.0008 68.3304 81.4216 70.5177 80.5715C72.7778 79.6935 74.6929 78.5162 76.6027 76.6039C78.515 74.6934 79.6893 72.7756 80.5703 70.5154C81.4152 68.3288 81.9955 65.8301 82.1674 62.1719C82.332 58.5055 82.375 57.3367 82.375 48.0008C82.375 38.6649 82.332 37.4934 82.1674 33.8266C81.9955 30.1671 81.4152 27.6694 80.5703 25.4838C79.6893 23.2226 78.515 21.3049 76.6027 19.394C74.6908 17.482 72.7785 16.3074 70.5156 15.4305C68.3242 14.5801 65.8248 14.0005 62.1652 13.8331C58.4985 13.6664 57.3311 13.6255 47.9924 13.6255H48.0031ZM44.9193 19.8202C45.8347 19.8188 46.856 19.8202 48.0031 19.8202C57.1816 19.8202 58.2692 19.8532 61.8937 20.0179C65.2452 20.1712 67.0644 20.7311 68.2761 21.2017C69.8804 21.8246 71.024 22.5695 72.2265 23.773C73.4296 24.9761 74.1742 26.1218 74.7988 27.7261C75.2693 28.9361 75.83 30.7552 75.9826 34.1068C76.1473 37.7306 76.183 38.8189 76.183 47.9929C76.183 57.1669 76.1473 58.2556 75.9826 61.879C75.8293 65.2306 75.2693 67.0497 74.7988 68.2601C74.1759 69.8644 73.4296 71.0066 72.2265 72.2091C71.0233 73.4122 69.8811 74.1568 68.2761 74.78C67.0658 75.2526 65.2452 75.8112 61.8937 75.9645C58.2699 76.1292 57.1816 76.165 48.0031 76.165C38.8243 76.165 37.7363 76.1292 34.1128 75.9645C30.7613 75.8099 28.9422 75.2499 27.7294 74.7793C26.1255 74.1561 24.9794 73.4115 23.7763 72.2084C22.5732 71.0053 21.8286 69.8623 21.204 68.2573C20.7334 67.047 20.1728 65.2279 20.0201 61.8763C19.8555 58.2525 19.8225 57.1642 19.8225 47.9843C19.8225 38.8045 19.8555 37.722 20.0201 34.0982C20.1734 30.7466 20.7334 28.9275 21.204 27.7158C21.8272 26.1115 22.5732 24.9658 23.7766 23.7627C24.9801 22.5596 26.1255 21.8146 27.7297 21.1904C28.9415 20.7177 30.7613 20.1591 34.1128 20.0051C37.2839 19.8618 38.5128 19.8188 44.9193 19.8116V19.8202ZM66.3525 25.5278C64.0751 25.5278 62.2275 27.3738 62.2275 29.6515C62.2275 31.9288 64.0751 33.7765 66.3525 33.7765C68.6298 33.7765 70.4775 31.9288 70.4775 29.6515C70.4775 27.3741 68.6298 25.5265 66.3525 25.5265V25.5278ZM48.0031 30.3476C38.2543 30.3476 30.3502 38.2517 30.3502 48.0008C30.3502 57.7499 38.2543 65.6503 48.0031 65.6503C57.7522 65.6503 65.6536 57.7499 65.6536 48.0008C65.6536 38.2521 57.7515 30.3476 48.0024 30.3476H48.0031ZM48.0031 36.5423C54.3312 36.5423 59.4617 41.6721 59.4617 48.0008C59.4617 54.3289 54.3312 59.4594 48.0031 59.4594C41.675 59.4594 36.5449 54.3289 36.5449 48.0008C36.5449 41.6721 41.6747 36.5423 48.0031 36.5423Z" fill="white"/>
</g>
<defs>
<radialGradient id="paint0_radial_3400_545" cx="0" cy="0" r="1" gradientUnits="userSpaceOnUse" gradientTransform="translate(27.375 98.7777) rotate(-90) scale(87.2145 81.1164)">
<stop stop-color="#FFDD55"/>
<stop offset="0.1" stop-color="#FFDD55"/>
<stop offset="0.5" stop-color="#FF543E"/>
<stop offset="1" stop-color="#C837AB"/>
</radialGradient>
<radialGradient id="paint1_radial_3400_545" cx="0" cy="0" r="1" gradientUnits="userSpaceOnUse" gradientTransform="translate(-10.7403 10.3391) rotate(78.681) scale(38.9854 160.699)">
<stop stop-color="#3771C8"/>
<stop offset="0.128" stop-color="#3771C8"/>
<stop offset="1" stop-color="#6600FF" stop-opacity="0"/>
</radialGradient>
<clipPath id="clip0_3400_545">
<rect width="88" height="88" fill="white" transform="translate(4 4)"/>
</clipPath>
</defs>
</svg>
