<svg width="105" height="105" viewBox="0 0 105 105" fill="none" xmlns="http://www.w3.org/2000/svg">
<rect width="105" height="105" rx="28" fill="#F2F2F2"/>
<g clip-path="url(#clip0_3400_532)">
<path d="M78.2656 4H26.7344C14.1785 4 4 14.1785 4 26.7344V78.2656C4 90.8215 14.1785 101 26.7344 101H78.2656C90.8215 101 101 90.8215 101 78.2656V26.7344C101 14.1785 90.8215 4 78.2656 4Z" fill="white"/>
<path d="M78.2656 4H26.7344C14.1785 4 4 14.1785 4 26.7344V78.2656C4 90.8215 14.1785 101 26.7344 101H78.2656C90.8215 101 101 90.8215 101 78.2656V26.7344C101 14.1785 90.8215 4 78.2656 4Z" fill="#0A66C2"/>
<path d="M73.9877 86.4837H85.0783C85.4802 86.4837 85.8657 86.324 86.1499 86.0399C86.4341 85.7557 86.5938 85.3703 86.5939 84.9684L86.5996 61.5361C86.5996 49.2887 83.9605 39.8748 69.6481 39.8748C64.2074 39.6725 59.0766 42.4771 56.3079 47.1604C56.2944 47.1831 56.2738 47.2008 56.2493 47.2108C56.2247 47.2207 56.1976 47.2224 56.1721 47.2154C56.1465 47.2085 56.1239 47.1934 56.1078 47.1725C56.0916 47.1515 56.0827 47.1259 56.0825 47.0994V42.5211C56.0825 42.1191 55.9228 41.7336 55.6386 41.4494C55.3543 41.1651 54.9688 41.0054 54.5669 41.0054H44.042C43.64 41.0054 43.2545 41.1651 42.9703 41.4494C42.6861 41.7336 42.5264 42.1191 42.5264 42.5211V84.9661C42.5264 85.3681 42.6861 85.7536 42.9703 86.0378C43.2545 86.3221 43.64 86.4818 44.042 86.4818H55.1318C55.5338 86.4818 55.9193 86.3221 56.2035 86.0378C56.4878 85.7536 56.6475 85.3681 56.6475 84.9661V63.985C56.6475 58.0524 57.7728 52.3071 65.1278 52.3071C72.3781 52.3071 72.4721 59.0956 72.4721 64.3692V84.968C72.4721 85.37 72.6318 85.7555 72.916 86.0397C73.2002 86.324 73.5857 86.4837 73.9877 86.4837ZM18.3965 26.5949C18.3965 31.0902 22.0973 34.7891 26.593 34.7891C31.0876 34.7887 34.7861 31.0876 34.7861 26.593C34.7853 22.0984 31.0864 18.3999 26.5915 18.3999C22.0954 18.3999 18.3965 22.0995 18.3965 26.5949ZM21.0333 86.4837H32.1379C32.5399 86.4837 32.9254 86.324 33.2096 86.0397C33.4938 85.7555 33.6535 85.37 33.6535 84.968V42.5211C33.6535 42.1191 33.4938 41.7336 33.2096 41.4494C32.9254 41.1651 32.5399 41.0054 32.1379 41.0054H21.0333C20.6313 41.0054 20.2458 41.1651 19.9616 41.4494C19.6773 41.7336 19.5177 42.1191 19.5177 42.5211V84.968C19.5177 85.37 19.6773 85.7555 19.9616 86.0397C20.2458 86.324 20.6313 86.4837 21.0333 86.4837Z" fill="white"/>
</g>
<defs>
<clipPath id="clip0_3400_532">
<rect width="97" height="97" fill="white" transform="translate(4 4)"/>
</clipPath>
</defs>
</svg>
