<svg width="94" height="94" viewBox="0 0 94 94" fill="none" xmlns="http://www.w3.org/2000/svg">
<rect width="94" height="94" rx="18" fill="#F2F2F2"/>
<g clip-path="url(#clip0_3400_542)">
<path d="M18.7676 3.50098H75.2402C79.2876 3.50354 83.1685 5.11249 86.0305 7.97443C88.8924 10.8364 90.5013 14.7173 90.5039 18.7646V35.0336C90.1097 35.0087 89.7148 34.9958 89.3197 34.995C87.1896 34.9837 85.0848 35.4564 83.1641 36.3774C81.2434 37.2985 79.557 38.6437 78.2321 40.3116C75.9507 43.144 74.5684 46.9671 74.2301 51.264C74.1592 52.1211 74.1318 52.9782 74.1479 53.8353C74.3751 63.5696 79.6337 71.3513 88.9766 71.3513C89.4986 71.3513 90.0077 71.3271 90.5039 71.2788V75.2421C90.5001 79.2887 88.8905 83.1683 86.0287 86.0292C83.1669 88.8901 79.2868 90.4984 75.2402 90.501H18.7676C14.7202 90.4984 10.8393 88.8895 7.97736 86.0275C5.11542 83.1656 3.50647 79.2847 3.50391 75.2373V18.7646C3.50647 14.7173 5.11542 10.8364 7.97736 7.97443C10.8393 5.11249 14.7202 3.50354 18.7676 3.50098ZM90.5039 63.3763V50.2006H82.5144C82.1567 56.5613 85.6367 61.9456 90.5039 63.3763ZM90.5039 48.3591V37.2038C90.1005 37.0941 89.6846 37.0373 89.2666 37.0346C85.3274 37.1168 82.9832 41.8293 82.6932 48.3591H90.5039ZM74.5394 24.2843L74.6119 24.2698V23.7381H60.5952L47.5936 54.3138L34.5822 23.7381H19.4829V24.2698L19.5506 24.2843C22.1074 24.8643 23.4027 25.7246 23.4027 28.8276V65.1743C23.4027 68.2773 22.0977 69.1376 19.5457 69.7176L19.4781 69.7273V70.259H29.7247V69.7273L29.6522 69.7176C27.0954 69.1376 25.7952 68.2773 25.7952 65.1743V30.935L42.5089 70.2638H43.4562L60.6581 29.8378V66.0685C60.4357 68.5238 59.1501 69.2826 56.8349 69.8046L56.7672 69.8191V70.346H74.6119V69.8143L74.5394 69.8046C72.2194 69.2826 70.9047 68.5238 70.6872 66.0685L70.6727 28.8276H70.6872C70.6872 25.7246 71.9826 24.8643 74.5394 24.2843Z" fill="#141414"/>
</g>
<defs>
<clipPath id="clip0_3400_542">
<rect width="88" height="88" fill="white" transform="translate(3 3)"/>
</clipPath>
</defs>
</svg>
