<svg width="40" height="40" viewBox="0 0 40 40" fill="none" xmlns="http://www.w3.org/2000/svg">
<g clip-path="url(#clip0_3361_22)">
<path d="M8.38438 2.4502H31.6438C35.1594 2.4502 38.0281 5.29082 38.0281 8.83457V31.1939C38.0281 34.7096 35.1875 37.5783 31.6438 37.5783H8.38438C4.84063 37.5502 2 34.7096 2 31.1658V8.83457C2 5.29082 4.84063 2.4502 8.38438 2.4502Z" fill="#330000"/>
<path d="M19.4099 23.4595H13.813L12.688 26.9751C12.6599 27.1157 12.5474 27.2001 12.4068 27.172H9.59427C9.42552 27.172 9.39739 27.0876 9.42552 26.8907L14.263 12.997C14.3193 12.8563 14.3474 12.6876 14.4036 12.4907C14.4599 12.1813 14.488 11.8438 14.488 11.5063C14.4599 11.422 14.5443 11.3657 14.6005 11.3376H18.4818C18.5943 11.3376 18.6505 11.3938 18.6786 11.4501L24.163 26.8907C24.2193 27.0595 24.163 27.1438 24.0224 27.1438H20.8724C20.7599 27.172 20.6755 27.0876 20.6193 26.9751L19.4099 23.4595ZM14.6849 20.3938H18.4818C18.3974 20.0845 18.2849 19.6907 18.1443 19.3251C18.0036 18.9313 17.863 18.4813 17.7505 18.0313C17.6099 17.5532 17.4693 17.1032 17.3286 16.6532C17.188 16.1751 17.0474 15.7532 16.9349 15.3313C16.8224 14.9095 16.7099 14.5157 16.5974 14.1501H16.5693C16.4286 14.797 16.2599 15.4438 16.063 16.0907C15.838 16.822 15.613 17.5532 15.3599 18.3126C15.1349 19.072 14.9099 19.7751 14.6849 20.3938ZM27.5099 14.0095C27.0036 14.0376 26.5255 13.8407 26.188 13.4751C25.8505 13.1095 25.6536 12.6032 25.6818 12.097C25.6536 11.5907 25.8505 11.1126 26.2161 10.7751C26.5818 10.4376 27.0599 10.2407 27.538 10.2407C28.1286 10.2407 28.5786 10.4095 28.9161 10.7751C29.2536 11.1407 29.4224 11.6188 29.4224 12.097C29.4505 12.6032 29.2536 13.1095 28.888 13.4751C28.5224 13.8407 28.0161 14.0376 27.5099 14.0095ZM25.8224 27.0313V15.472C25.8224 15.3313 25.8786 15.2751 26.0193 15.2751H29.0005C29.1411 15.2751 29.1974 15.3595 29.1974 15.472V27.0313C29.1974 27.2001 29.1411 27.2845 29.0005 27.2845H26.0474C25.9068 27.2563 25.8224 27.172 25.8224 27.0313Z" fill="#FF9A00"/>
</g>
<defs>
<clipPath id="clip0_3361_22">
<rect width="36" height="36" fill="white" transform="translate(2 2)"/>
</clipPath>
</defs>
</svg>
