<svg width="40" height="40" viewBox="0 0 40 40" fill="none" xmlns="http://www.w3.org/2000/svg">
<path d="M15.9977 15.9281C15.9977 14.0754 14.7376 14.0754 14.7376 14.0754H9.5625V18.0473H14.4167C15.2551 18.0473 15.9977 17.7782 15.9977 15.9281ZM14.7376 20.7927H9.5625V25.5486H14.5047C15.2473 25.5279 16.6213 25.2898 16.6213 23.2353C16.6135 20.7771 14.7376 20.7927 14.7376 20.7927ZM28.0038 18.0473C25.2533 18.0473 24.8703 20.7901 24.8703 20.7901H30.7181C30.7181 20.7901 30.7544 18.0473 28.0038 18.0473Z" fill="#B5B5B5"/>
<path d="M32.2274 4H7.77521C6.77396 4 5.81372 4.39774 5.10573 5.10573C4.39774 5.81372 4 6.77396 4 7.77521V32.2248C4 33.226 4.39774 34.1863 5.10573 34.8943C5.81372 35.6023 6.77396 36 7.77521 36H32.2248C33.226 36 34.1863 35.6023 34.8943 34.8943C35.6023 34.1863 36 33.226 36 32.2248V7.77521C36 6.77441 35.6026 5.81456 34.8952 5.10665C34.1878 4.39873 33.2282 4.00069 32.2274 4ZM24.1051 11.9592H31.4485V14.1535H24.1051V11.9592ZM20.392 23.4582C20.392 28.8921 14.7383 28.7135 14.7383 28.7135H5.47489V10.9113H14.7383C17.5535 10.9113 19.7762 12.4638 19.7762 15.6517C19.7762 18.8395 17.0593 19.0387 17.0593 19.0387C20.6404 19.0387 20.392 23.4582 20.392 23.4582ZM34.1292 23.1684H24.9176C24.9176 26.4753 28.0511 26.2735 28.0511 26.2735C31.0087 26.2735 30.8974 24.3587 30.8974 24.3587H34.0257C34.0257 29.4406 27.9347 29.0913 27.9347 29.0913C20.6249 29.0913 21.0958 22.2861 21.0958 22.2861C21.0958 22.2861 21.0958 15.4472 27.9347 15.4472C35.1409 15.4421 34.1318 23.1684 34.1318 23.1684H34.1292Z" fill="#B5B5B5"/>
</svg>
