<svg width="32" height="32" viewBox="0 0 32 32" fill="none" xmlns="http://www.w3.org/2000/svg">
<path d="M16.001 17.8667L9.46771 24.4001C9.22326 24.6445 8.91215 24.7667 8.53437 24.7667C8.1566 24.7667 7.84549 24.6445 7.60104 24.4001C7.3566 24.1556 7.23438 23.8445 7.23438 23.4667C7.23438 23.089 7.3566 22.7778 7.60104 22.5334L14.1344 16.0001L7.60104 9.46673C7.3566 9.22229 7.23438 8.91118 7.23438 8.5334C7.23438 8.15562 7.3566 7.84451 7.60104 7.60006C7.84549 7.35562 8.1566 7.2334 8.53437 7.2334C8.91215 7.2334 9.22326 7.35562 9.46771 7.60006L16.001 14.1334L22.5344 7.60006C22.7788 7.35562 23.0899 7.2334 23.4677 7.2334C23.8455 7.2334 24.1566 7.35562 24.401 7.60006C24.6455 7.84451 24.7677 8.15562 24.7677 8.5334C24.7677 8.91118 24.6455 9.22229 24.401 9.46673L17.8677 16.0001L24.401 22.5334C24.6455 22.7778 24.7677 23.089 24.7677 23.4667C24.7677 23.8445 24.6455 24.1556 24.401 24.4001C24.1566 24.6445 23.8455 24.7667 23.4677 24.7667C23.0899 24.7667 22.7788 24.6445 22.5344 24.4001L16.001 17.8667Z" fill="#B5B5B5"/>
</svg>
