<svg width="24" height="24" viewBox="0 0 24 24" fill="none" xmlns="http://www.w3.org/2000/svg">
<path fill-rule="evenodd" clip-rule="evenodd" d="M14.25 2.5C14.25 2.4337 14.2237 2.37011 14.1768 2.32322C14.1299 2.27634 14.0663 2.25 14 2.25H7C6.27065 2.25 5.57118 2.53973 5.05546 3.05546C4.53973 3.57118 4.25 4.27065 4.25 5V19C4.25 19.7293 4.53973 20.4288 5.05546 20.9445C5.57118 21.4603 6.27065 21.75 7 21.75H17C17.7293 21.75 18.4288 21.4603 18.9445 20.9445C19.4603 20.4288 19.75 19.7293 19.75 19V9.147C19.75 9.0807 19.7237 9.01711 19.6768 8.97022C19.6299 8.92334 19.5663 8.897 19.5 8.897H15C14.8011 8.897 14.6103 8.81798 14.4697 8.67733C14.329 8.53668 14.25 8.34591 14.25 8.147V2.5ZM14.031 13.164C14.1864 13.0396 14.3849 12.9821 14.5827 13.004C14.7806 13.0259 14.9616 13.1256 15.086 13.281C15.2104 13.4364 15.2679 13.6349 15.246 13.8327C15.2241 14.0306 15.1244 14.2116 14.969 14.336L12.475 16.331C12.3414 16.44 12.1744 16.4997 12.002 16.5H11.994C11.8247 16.4987 11.6608 16.4402 11.529 16.334L9.032 14.336C8.87658 14.2117 8.77689 14.0308 8.75486 13.8331C8.73282 13.6353 8.79025 13.4369 8.9145 13.2815C9.03875 13.1261 9.21966 13.0264 9.41741 13.0044C9.61517 12.9823 9.81358 13.0397 9.969 13.164L11.25 14.19V10.75C11.25 10.6515 11.2694 10.554 11.3071 10.463C11.3448 10.372 11.4 10.2893 11.4697 10.2197C11.5393 10.15 11.622 10.0948 11.713 10.0571C11.804 10.0194 11.9015 10 12 10C12.0985 10 12.196 10.0194 12.287 10.0571C12.378 10.0948 12.4607 10.15 12.5303 10.2197C12.6 10.2893 12.6552 10.372 12.6929 10.463C12.7306 10.554 12.75 10.6515 12.75 10.75V14.19L14.031 13.164Z" fill="#B5B5B5"/>
<path d="M15.75 2.824C15.75 2.64 15.943 2.523 16.086 2.638C16.2073 2.736 16.315 2.85 16.409 2.98L19.422 7.177C19.49 7.273 19.416 7.397 19.298 7.397H16C15.9337 7.397 15.8701 7.37066 15.8232 7.32378C15.7763 7.27689 15.75 7.2133 15.75 7.147V2.824Z" fill="#B5B5B5"/>
</svg>
