<svg width="40" height="40" viewBox="0 0 40 40" fill="none" xmlns="http://www.w3.org/2000/svg">
<g clip-path="url(#clip0_3361_14)">
<path d="M15.375 36.25C18.35 36.25 20.75 33.85 20.75 30.875V25.5H15.375C12.4 25.5 10 27.9 10 30.875C10 33.85 12.4 36.25 15.375 36.25Z" fill="#0ACF83"/>
<path d="M10 20.125C10 17.15 12.4 14.75 15.375 14.75H20.75V25.5H15.375C12.4 25.5 10 23.1 10 20.125Z" fill="#A259FF"/>
<path d="M10 9.375C10 6.4 12.4 4 15.375 4H20.75V14.75H15.375C12.4 14.75 10 12.35 10 9.375Z" fill="#F24E1E"/>
<path d="M20.75 4H26.125C29.1 4 31.5 6.4 31.5 9.375C31.5 12.35 29.1 14.75 26.125 14.75H20.75V4Z" fill="#FF7262"/>
<path d="M31.5 20.125C31.5 23.1 29.1 25.5 26.125 25.5C23.15 25.5 20.75 23.1 20.75 20.125C20.75 17.15 23.15 14.75 26.125 14.75C29.1 14.75 31.5 17.15 31.5 20.125Z" fill="#1ABCFE"/>
</g>
<defs>
<clipPath id="clip0_3361_14">
<rect width="32" height="32" fill="white" transform="translate(4 4)"/>
</clipPath>
</defs>
</svg>
