<svg width="40" height="40" viewBox="0 0 40 40" fill="none" xmlns="http://www.w3.org/2000/svg">
<path d="M20 16.032C19.2152 16.032 18.448 16.2647 17.7955 16.7007C17.143 17.1367 16.6344 17.7565 16.334 18.4815C16.0337 19.2066 15.9551 20.0044 16.1082 20.7741C16.2614 21.5438 16.6393 22.2509 17.1942 22.8058C17.7491 23.3607 18.4562 23.7386 19.2259 23.8918C19.9956 24.0449 20.7934 23.9663 21.5185 23.666C22.2435 23.3656 22.8633 22.857 23.2993 22.2045C23.7353 21.552 23.968 20.7848 23.968 20C23.968 19.4789 23.8654 18.9629 23.666 18.4815C23.4665 18.0001 23.1743 17.5627 22.8058 17.1942C22.4373 16.8257 21.9999 16.5335 21.5185 16.334C21.0371 16.1346 20.5211 16.032 20 16.032ZM35.888 12.112C35.8806 10.8763 35.653 9.65184 35.216 8.496C34.8949 7.65002 34.398 6.88175 33.7581 6.2419C33.1182 5.60204 32.35 5.10515 31.504 4.784C30.3482 4.34696 29.1237 4.1194 27.888 4.112C25.824 4 25.216 4 20 4C14.784 4 14.176 4 12.112 4.112C10.8763 4.1194 9.65184 4.34696 8.496 4.784C7.65002 5.10515 6.88175 5.60204 6.2419 6.2419C5.60204 6.88175 5.10515 7.65002 4.784 8.496C4.34696 9.65184 4.1194 10.8763 4.112 12.112C4 14.176 4 14.784 4 20C4 25.216 4 25.824 4.112 27.888C4.13045 29.1278 4.35763 30.3557 4.784 31.52C5.10193 32.363 5.59864 33.1272 6.24 33.76C6.87743 34.4033 7.64725 34.9001 8.496 35.216C9.65184 35.653 10.8763 35.8806 12.112 35.888C14.176 36 14.784 36 20 36C25.216 36 25.824 36 27.888 35.888C29.1237 35.8806 30.3482 35.653 31.504 35.216C32.3527 34.9001 33.1226 34.4033 33.76 33.76C34.4014 33.1272 34.8981 32.363 35.216 31.52C35.6516 30.3582 35.8791 29.1287 35.888 27.888C36 25.824 36 25.216 36 20C36 14.784 36 14.176 35.888 12.112ZM31.824 24.912C31.7735 25.8995 31.5627 26.8722 31.2 27.792C30.8894 28.5595 30.4276 29.2567 29.8422 29.8422C29.2567 30.4276 28.5595 30.8894 27.792 31.2C26.8634 31.5426 25.8853 31.7317 24.896 31.76H15.104C14.1147 31.7317 13.1366 31.5426 12.208 31.2C11.4143 30.9056 10.6977 30.4352 10.112 29.824C9.53187 29.2503 9.08409 28.5568 8.8 27.792C8.45719 26.8641 8.27328 25.885 8.256 24.896V15.104C8.27328 14.115 8.45719 13.1359 8.8 12.208C9.09435 11.4143 9.56481 10.6977 10.176 10.112C10.7528 9.53578 11.4454 9.08859 12.208 8.8C13.1366 8.45743 14.1147 8.26829 15.104 8.24H24.896C25.8853 8.26829 26.8634 8.45743 27.792 8.8C28.5857 9.09435 29.3023 9.56481 29.888 10.176C30.4681 10.7497 30.9159 11.4432 31.2 12.208C31.5426 13.1366 31.7317 14.1147 31.76 15.104V20C31.76 23.296 31.872 23.632 31.824 24.896V24.912ZM29.264 13.008C29.0735 12.4912 28.7731 12.0218 28.3837 11.6323C27.9942 11.2429 27.5248 10.9425 27.008 10.752C26.2984 10.506 25.551 10.3869 24.8 10.4H15.2C14.4452 10.4074 13.6977 10.5482 12.992 10.816C12.4831 10.9979 12.0187 11.2859 11.6297 11.6611C11.2408 12.0363 10.9361 12.49 10.736 12.992C10.5045 13.7048 10.391 14.4506 10.4 15.2V24.8C10.4167 25.5538 10.5573 26.2998 10.816 27.008C11.0065 27.5248 11.3069 27.9942 11.6963 28.3837C12.0858 28.7731 12.5552 29.0735 13.072 29.264C13.7549 29.5143 14.4731 29.6547 15.2 29.68H24.8C25.5548 29.6726 26.3023 29.5318 27.008 29.264C27.5248 29.0735 27.9942 28.7731 28.3837 28.3837C28.7731 27.9942 29.0735 27.5248 29.264 27.008C29.5318 26.3023 29.6726 25.5548 29.68 24.8V15.2C29.6797 14.4445 29.5386 13.6958 29.264 12.992V13.008ZM20 26.112C19.1981 26.112 18.4041 25.9538 17.6635 25.6464C16.9228 25.3391 16.2501 24.8886 15.6838 24.3209C15.1175 23.7531 14.6688 23.0792 14.3634 22.3378C14.058 21.5963 13.9019 20.8019 13.904 20C13.904 18.7905 14.2629 17.6082 14.9352 16.6027C15.6075 15.5972 16.563 14.8139 17.6807 14.3517C18.7985 13.8896 20.0282 13.7695 21.2143 14.0066C22.4003 14.2438 23.4894 14.8275 24.3435 15.6839C25.1976 16.5402 25.7785 17.6308 26.0125 18.8174C26.2465 20.0041 26.1232 21.2335 25.6581 22.3501C25.1931 23.4666 24.4072 24.4201 23.4 25.0897C22.3928 25.7594 21.2095 26.1152 20 26.112ZM26.4 15.088C26.0463 15.0506 25.719 14.8836 25.4811 14.6192C25.2432 14.3548 25.1116 14.0117 25.1116 13.656C25.1116 13.3003 25.2432 12.9572 25.4811 12.6928C25.719 12.4284 26.0463 12.2614 26.4 12.224C26.7537 12.2614 27.081 12.4284 27.3189 12.6928C27.5568 12.9572 27.6884 13.3003 27.6884 13.656C27.6884 14.0117 27.5568 14.3548 27.3189 14.6192C27.081 14.8836 26.7537 15.0506 26.4 15.088Z" fill="#B5B5B5"/>
</svg>
