<svg width="40" height="40" viewBox="0 0 40 40" fill="none" xmlns="http://www.w3.org/2000/svg">
<path d="M5.91797 16.0332C5.91797 8.619 11.8386 2.58452 19.167 2.58398L19.168 2.58301V2.58398C20.0586 2.5831 20.947 2.67198 21.8193 2.85156C22.2249 2.93511 22.4857 3.33171 22.4023 3.7373C22.3188 4.14301 21.9223 4.40481 21.5166 4.32129C20.7442 4.16227 19.9576 4.08219 19.1689 4.08301H19.168C12.6901 4.08301 7.41797 9.4244 7.41797 16.0332C7.41803 20.067 9.26811 23.1491 12.2627 25.1973L12.7656 25.543C12.9172 25.6491 13.0519 25.7469 13.1689 25.8379C13.4024 26.0195 13.6225 26.2176 13.7832 26.4688C13.9377 26.7103 14.024 26.9661 14.0879 27.2314C14.1188 27.3597 14.1464 27.5028 14.1748 27.6592L14.2627 28.1689V28.1719L14.3594 28.7568L14.5098 29.6191C14.5552 29.8566 14.5988 30.0494 14.6475 30.2129C14.7388 30.5196 14.8244 30.6316 14.9043 30.6992C14.9847 30.7672 15.1093 30.8335 15.4258 30.873C15.7638 30.9153 16.2148 30.916 16.9082 30.916H21.2617C21.9549 30.916 22.4053 30.9153 22.7432 30.873C23.0596 30.8335 23.1842 30.7671 23.2646 30.6992C23.3449 30.6313 23.4313 30.5189 23.5225 30.2129C23.6196 29.8867 23.6945 29.4424 23.8076 28.7588L23.8086 28.7559L23.9082 28.167C23.9689 27.7998 24.0213 27.4853 24.084 27.2275C24.1488 26.9609 24.236 26.7061 24.3896 26.4658C24.5513 26.2127 24.7713 26.0145 25.0059 25.833C25.24 25.6519 25.5445 25.4459 25.9111 25.1982L26.1934 25.0029C29.0743 22.9469 30.9179 19.9262 30.918 16.0332C30.918 15.619 31.2538 15.2832 31.668 15.2832C32.0822 15.2832 32.418 15.619 32.418 16.0332C32.4179 20.6143 30.1495 24.1418 26.752 26.4404L26.751 26.4414C26.3678 26.7002 26.1099 26.8749 25.9229 27.0195C25.8299 27.0914 25.7687 27.1457 25.7275 27.1865L25.6533 27.2734C25.6237 27.3197 25.5867 27.3983 25.542 27.582C25.4953 27.7742 25.4518 28.0273 25.3877 28.415V28.4189L25.2871 29.0029C25.1802 29.6492 25.0902 30.2031 24.96 30.6406C24.8237 31.0982 24.6207 31.5167 24.2344 31.8438C23.8481 32.1707 23.4021 32.3022 22.9287 32.3613C22.4764 32.4178 21.9163 32.416 21.2617 32.416H16.9082C16.2533 32.416 15.6927 32.4178 15.2402 32.3613C14.7669 32.3022 14.3218 32.1706 13.9355 31.8438C13.5488 31.5164 13.3461 31.0976 13.21 30.6406C13.0799 30.204 12.9882 29.6511 12.8799 29.0059V29.0029L12.7832 28.417C12.7179 28.028 12.6754 27.7759 12.6289 27.583C12.5846 27.3992 12.5483 27.3224 12.5195 27.2773C12.4969 27.2419 12.4366 27.1682 12.248 27.0215C12.0598 26.875 11.8009 26.6977 11.417 26.4355H11.416C8.04088 24.1271 5.91803 20.5957 5.91797 16.0332Z" fill="#9C9C9C"/>
<path d="M15.0859 33.333V31.666H16.5859V33.333C16.5859 34.1399 16.5879 34.6694 16.6406 35.0615C16.6904 35.4317 16.7729 35.5657 16.8545 35.6475C16.9362 35.7292 17.0701 35.8125 17.4404 35.8623C17.8325 35.915 18.3621 35.916 19.169 35.916C19.976 35.916 20.5063 35.9151 20.8984 35.8623C21.2686 35.8125 21.4027 35.7291 21.4844 35.6475C21.566 35.5657 21.6485 35.4314 21.6982 35.0615C21.751 34.6694 21.7529 34.1399 21.7529 33.333V31.666H23.2529V33.333C23.2529 34.0976 23.2539 34.7463 23.1846 35.2617C23.1123 35.7987 22.9513 36.3014 22.5449 36.708C22.1383 37.1146 21.6348 37.2764 21.0977 37.3486C20.5823 37.4179 19.9334 37.416 19.169 37.416C18.4045 37.416 17.7555 37.418 17.2402 37.3486C16.7033 37.2764 16.2005 37.1146 15.794 36.708C15.3874 36.3014 15.2256 35.7987 15.1533 35.2617C15.084 34.7464 15.0859 34.0976 15.0859 33.333ZM27.5029 2.58301C27.8165 2.58314 28.0971 2.77825 28.2061 3.07227L28.6357 4.23438L29.0176 5.24805C29.3487 6.0976 29.5545 6.49592 29.8633 6.80469C30.2767 7.21788 30.8475 7.44629 32.4346 8.0332L33.5967 8.46289C33.8907 8.57187 34.0858 8.85246 34.0859 9.16602C34.0859 9.47974 33.8909 9.76113 33.5967 9.87012L32.4346 10.2998C30.8467 10.887 30.276 11.1147 29.8643 11.5264C29.4509 11.9397 29.2227 12.5104 28.6357 14.0977V14.0986L28.2061 15.2598C28.0972 15.554 27.8166 15.7499 27.5029 15.75C27.1891 15.75 26.9078 15.5541 26.7988 15.2598L26.3691 14.0986V14.0977C25.7821 12.5103 25.5541 11.94 25.1426 11.5283C24.7292 11.1149 24.1585 10.8868 22.5713 10.2998H22.5703L21.4092 9.87012C21.1149 9.76118 20.919 9.47982 20.919 9.16602C20.9191 8.85235 21.115 8.57179 21.4092 8.46289L22.5703 8.0332H22.5713C24.1589 7.44611 24.729 7.21732 25.1406 6.80566C25.5539 6.39227 25.7822 5.82167 26.3691 4.23438L26.7988 3.07227L26.8477 2.9668C26.9787 2.73234 27.2284 2.58301 27.5029 2.58301ZM27.502 5.48438C27.1031 6.54308 26.7767 7.29057 26.2012 7.86621C25.6269 8.44045 24.8796 8.76732 23.8213 9.16602C24.88 9.56486 25.6275 9.89215 26.2031 10.4678C26.7771 11.0418 27.1035 11.7889 27.502 12.8467C27.9007 11.7884 28.2282 11.0413 28.8037 10.4658C29.3779 9.89159 30.1253 9.5647 31.1836 9.16602C30.1254 8.76734 29.3782 8.44056 28.8027 7.86523C28.2283 7.29083 27.9008 6.5432 27.502 5.48438Z" fill="#9C9C9C"/>
</svg>
