<svg width="40" height="40" viewBox="0 0 40 40" fill="none" xmlns="http://www.w3.org/2000/svg">
<path d="M28.7024 4H11.2976C9.36219 4 7.506 4.76886 6.13743 6.13743C4.76886 7.506 4 9.36219 4 11.2976V28.7024C4 30.6378 4.76886 32.494 6.13743 33.8626C7.506 35.2311 9.36219 36 11.2976 36H28.7024C30.6378 36 32.494 35.2311 33.8626 33.8626C35.2311 32.494 36 30.6378 36 28.7024V11.2976C36 9.36219 35.2311 7.506 33.8626 6.13743C32.494 4.76886 30.6378 4 28.7024 4ZM14.8193 29.833C14.8244 29.9223 14.8113 30.0118 14.7806 30.0958C14.7499 30.1799 14.7024 30.2568 14.6409 30.3218C14.5794 30.3868 14.5053 30.4385 14.4231 30.4739C14.3409 30.5092 14.2523 30.5273 14.1629 30.5272H11.2418C11.0657 30.5229 10.8983 30.4497 10.7755 30.3232C10.6528 30.1968 10.5845 30.0273 10.5854 29.8511V17.7026C10.583 17.6149 10.5982 17.5276 10.6301 17.4458C10.662 17.3641 10.71 17.2896 10.7712 17.2267C10.8324 17.1638 10.9056 17.1138 10.9864 17.0797C11.0672 17.0456 11.1541 17.0281 11.2418 17.0281H14.1629C14.2506 17.0281 14.3375 17.0456 14.4183 17.0797C14.4991 17.1138 14.5723 17.1638 14.6335 17.2267C14.6947 17.2896 14.7427 17.3641 14.7746 17.4458C14.8065 17.5276 14.8217 17.6149 14.8193 17.7026V29.833ZM12.6482 14.473C12.332 14.4707 12.0193 14.406 11.728 14.2828C11.4367 14.1596 11.1726 13.9802 10.9506 13.7549C10.7287 13.5296 10.5533 13.2628 10.4345 12.9697C10.3156 12.6766 10.2557 12.363 10.2581 12.0468C10.2604 11.7305 10.3251 11.4178 10.4483 11.1266C10.5715 10.8353 10.7509 10.5711 10.9762 10.3492C11.2015 10.1273 11.4683 9.95185 11.7614 9.83302C12.0544 9.71419 12.3681 9.65424 12.6843 9.65662C13.312 9.67703 13.9069 9.94195 14.342 10.3948C14.7772 10.8477 15.0181 11.4527 15.0134 12.0808C15.0087 12.7088 14.7587 13.3101 14.3168 13.7565C13.875 14.2028 13.2762 14.4587 12.6482 14.4697M30.3992 29.8133C30.3984 29.9791 30.3333 30.1382 30.2176 30.257C30.1019 30.3757 29.9446 30.445 29.7789 30.4501H26.6954C26.5294 30.4449 26.3718 30.3755 26.2561 30.2564C26.1403 30.1372 26.0754 29.9778 26.0751 29.8117V24.1928C26.0751 23.3543 26.3311 20.5448 23.8498 20.5448C21.9151 20.5448 21.5327 22.5141 21.4589 23.3904V29.9397C21.459 30.1061 21.3942 30.2659 21.2784 30.3854C21.1626 30.5049 21.0049 30.5746 20.8386 30.5797H17.847C17.6775 30.5793 17.5152 30.5116 17.3955 30.3917C17.2758 30.2717 17.2086 30.1091 17.2086 29.9397V17.6435C17.2137 17.4772 17.2834 17.3194 17.4029 17.2036C17.5224 17.0878 17.6822 17.0231 17.8486 17.0232H20.8386C21.0049 17.0231 21.1648 17.0878 21.2843 17.2036C21.4038 17.3194 21.4734 17.4772 21.4786 17.6435V18.7019C21.9151 18.063 22.5179 17.5553 23.2218 17.2337C23.9257 16.9121 24.704 16.7888 25.4728 16.8771C30.4533 16.8771 30.4353 21.5294 30.4353 24.1748L30.3992 29.8133Z" fill="#B5B5B5"/>
</svg>
