<svg width="163" height="33" viewBox="0 0 163 33" fill="none" xmlns="http://www.w3.org/2000/svg">
<g clip-path="url(#clip0_947_217)">
<path d="M27.0719 8.17383L7.18078 27.805C7.18078 27.805 1.73815 22.8812 2.06226 15.236C2.38637 7.59083 16.4455 -6.33886 27.0719 8.17383Z" fill="#E0E3E6"/>
<path d="M15.8339 18.1441C15.409 18.1441 14.9851 17.982 14.661 17.6579L8.38533 11.3823C7.73712 10.7341 7.73712 9.6837 8.38533 9.03647C9.03354 8.38825 10.0839 8.38825 10.7312 9.03647L17.0068 15.3121C17.655 15.9603 17.655 17.0107 17.0068 17.6579C16.6827 17.982 16.2578 18.1441 15.8339 18.1441Z" fill="#191B1E"/>
<path d="M15.6798 18.3288H6.88441C5.96842 18.3288 5.22534 17.5858 5.22534 16.6698C5.22534 15.7538 5.96842 15.0107 6.88441 15.0107H15.6798C16.5958 15.0107 17.3388 15.7538 17.3388 16.6698C17.3388 17.5858 16.5958 18.3288 15.6798 18.3288Z" fill="#191B1E"/>
<path d="M16.0187 17.8901C15.1027 17.8901 14.3596 17.147 14.3596 16.231V7.5345C14.3596 6.6185 15.1027 5.87543 16.0187 5.87543C16.9347 5.87543 17.6778 6.6185 17.6778 7.5345V16.231C17.6778 17.147 16.9347 17.8901 16.0187 17.8901Z" fill="#191B1E"/>
<path d="M20.985 32.97C20.1282 32.97 19.2854 32.9473 18.484 32.9255C17.7557 32.9058 17.068 32.887 16.4435 32.887C15.5463 32.887 14.82 32.1597 14.82 31.2635C14.82 30.3673 15.5473 29.64 16.4435 29.64C17.1125 29.64 17.8219 29.6598 18.5729 29.6795C21.7656 29.7665 25.7398 29.8752 27.4256 28.3811C28.388 27.5284 28.5718 25.2991 28.7349 23.3318C28.8357 22.1094 28.9404 20.8456 29.224 19.7429C29.4108 19.0176 30.0669 18.5136 30.8169 18.5235L32.4087 18.5433L26.8386 8.31513C25.642 6.78748 24.0995 5.52267 22.3723 4.65212C20.5245 3.7213 18.5294 3.24898 16.4435 3.24898C12.9188 3.24898 9.60563 4.62149 7.11257 7.11356C4.6205 9.60563 3.24799 12.9198 3.24799 16.4445C3.24799 18.6421 3.79838 20.816 4.83987 22.733C5.16398 23.3308 5.53551 23.9029 5.94855 24.4444L21.3298 9.06216C21.9642 8.42778 22.9918 8.42778 23.6262 9.06216C24.2606 9.69654 24.2606 10.7242 23.6262 11.3586L7.36059 27.6242L7.07305 27.9365C6.77167 28.2635 6.34973 28.4523 5.90507 28.4602C5.46239 28.4681 5.03255 28.2922 4.72129 27.975C4.56319 27.8139 4.40608 27.6479 4.2549 27.4809C3.37348 26.5086 2.61064 25.4325 1.98516 24.2823C0.686752 21.8911 0 19.1806 0 16.4435C0 12.0513 1.71046 7.92185 4.81615 4.81615C7.92185 1.71046 12.0513 0 16.4435 0C19.0423 0 21.5284 0.588926 23.8337 1.75097C26.0313 2.85768 27.9869 4.47722 29.4898 6.43274C29.5412 6.49993 29.5876 6.57108 29.6281 6.64519L36.5866 19.4237C36.8623 19.9296 36.8494 20.5442 36.551 21.0383C36.2526 21.5324 35.719 21.8308 35.1399 21.8239L32.1449 21.7873C32.0728 22.3515 32.0224 22.9652 31.97 23.5986C31.7576 26.1746 31.5155 29.0945 29.5777 30.8109C27.4958 32.6558 24.1499 32.969 20.985 32.969V32.97Z" fill="#E0E3E6"/>
</g>
<path d="M45.4642 16.723H44.4142V13.573H47.8792V15.043H48.1942C48.5722 14.567 49.0132 14.203 49.5172 13.951C50.0352 13.699 50.5812 13.573 51.1552 13.573H53.2762V16.408H51.0292C49.2792 16.408 48.4042 17.472 48.4042 19.6V25.123H45.4642V16.723ZM65.5618 21.448C65.4498 22.022 65.2258 22.547 64.8898 23.023C64.5678 23.499 64.1548 23.912 63.6508 24.262C63.1608 24.598 62.6008 24.864 61.9708 25.06C61.3408 25.242 60.6688 25.333 59.9548 25.333C59.0448 25.333 58.2118 25.186 57.4558 24.892C56.6998 24.598 56.0488 24.192 55.5028 23.674C54.9708 23.142 54.5508 22.512 54.2428 21.784C53.9488 21.042 53.8018 20.23 53.8018 19.348C53.8018 18.466 53.9488 17.661 54.2428 16.933C54.5368 16.205 54.9498 15.575 55.4818 15.043C56.0138 14.511 56.6438 14.098 57.3718 13.804C58.0998 13.51 58.9048 13.363 59.7868 13.363C60.5708 13.363 61.2988 13.461 61.9708 13.657C62.6428 13.853 63.2308 14.133 63.7348 14.497C64.2528 14.861 64.6728 15.295 64.9948 15.799C65.3308 16.303 65.5478 16.87 65.6458 17.5H62.3278C62.2298 17.094 61.9568 16.779 61.5088 16.555C61.0748 16.317 60.5148 16.198 59.8288 16.198C58.9468 16.198 58.2328 16.485 57.6868 17.059C57.1408 17.633 56.8608 18.382 56.8468 19.306C56.8468 19.754 56.9238 20.174 57.0778 20.566C57.2318 20.944 57.4418 21.28 57.7078 21.574C57.9878 21.854 58.3098 22.078 58.6738 22.246C59.0518 22.414 59.4508 22.498 59.8708 22.498C60.5008 22.498 61.0118 22.407 61.4038 22.225C61.8098 22.029 62.0688 21.77 62.1808 21.448H65.5618ZM67.2033 17.563C67.2033 16.933 67.3223 16.359 67.5603 15.841C67.8123 15.323 68.1623 14.882 68.6103 14.518C69.0583 14.14 69.5973 13.853 70.2273 13.657C70.8573 13.461 71.5573 13.363 72.3273 13.363C74.0353 13.363 75.3583 13.797 76.2963 14.665C77.2343 15.519 77.7033 16.73 77.7033 18.298V21.994H78.7533V25.123H75.2883V23.674H74.9733C74.4553 24.206 73.8673 24.619 73.2093 24.913C72.5513 25.193 71.8443 25.333 71.0883 25.333C70.4583 25.333 69.8773 25.249 69.3453 25.081C68.8133 24.913 68.3583 24.675 67.9803 24.367C67.6023 24.059 67.3083 23.695 67.0983 23.275C66.8883 22.841 66.7833 22.372 66.7833 21.868C66.7833 21.196 66.8953 20.643 67.1193 20.209C67.3433 19.761 67.6303 19.397 67.9803 19.117C68.3443 18.823 68.7573 18.606 69.2193 18.466C69.6953 18.312 70.1713 18.2 70.6473 18.13C71.1373 18.06 71.6133 18.018 72.0753 18.004C72.5373 17.976 72.9433 17.948 73.2933 17.92C73.6573 17.878 73.9513 17.822 74.1753 17.752C74.3993 17.668 74.5113 17.542 74.5113 17.374C74.5113 17.024 74.3083 16.737 73.9023 16.513C73.5103 16.289 73.0063 16.177 72.3903 16.177C71.7603 16.177 71.2423 16.31 70.8363 16.576C70.4443 16.828 70.2483 17.157 70.2483 17.563H67.2033ZM69.9963 21.595C69.9963 21.833 70.1293 22.029 70.3953 22.183C70.6753 22.337 71.0183 22.414 71.4243 22.414C72.2503 22.414 72.9573 22.19 73.5453 21.742C74.1473 21.294 74.5253 20.713 74.6793 19.999C74.1893 20.055 73.6643 20.104 73.1043 20.146C72.5583 20.174 72.0543 20.237 71.5923 20.335C71.1303 20.433 70.7453 20.58 70.4373 20.776C70.1433 20.958 69.9963 21.231 69.9963 21.595ZM80.43 16.723H79.38V13.573H82.845V15.043H83.16C83.608 14.511 84.168 14.098 84.84 13.804C85.526 13.51 86.247 13.363 87.003 13.363C87.661 13.363 88.27 13.503 88.83 13.783C89.39 14.049 89.873 14.427 90.279 14.917C90.699 15.393 91.021 15.96 91.245 16.618C91.483 17.262 91.602 17.969 91.602 18.739V25.123H88.662V19.6C88.662 18.494 88.438 17.654 87.99 17.08C87.542 16.492 86.877 16.198 85.995 16.198C85.155 16.198 84.504 16.492 84.042 17.08C83.594 17.668 83.37 18.508 83.37 19.6V25.123H80.43V16.723ZM93.5968 17.563C93.5968 16.933 93.7158 16.359 93.9538 15.841C94.2058 15.323 94.5558 14.882 95.0038 14.518C95.4518 14.14 95.9908 13.853 96.6208 13.657C97.2508 13.461 97.9508 13.363 98.7208 13.363C100.429 13.363 101.752 13.797 102.69 14.665C103.628 15.519 104.097 16.73 104.097 18.298V21.994H105.147V25.123H101.682V23.674H101.367C100.849 24.206 100.261 24.619 99.6028 24.913C98.9448 25.193 98.2378 25.333 97.4818 25.333C96.8518 25.333 96.2708 25.249 95.7388 25.081C95.2068 24.913 94.7518 24.675 94.3738 24.367C93.9958 24.059 93.7018 23.695 93.4918 23.275C93.2818 22.841 93.1768 22.372 93.1768 21.868C93.1768 21.196 93.2888 20.643 93.5128 20.209C93.7368 19.761 94.0238 19.397 94.3738 19.117C94.7378 18.823 95.1508 18.606 95.6128 18.466C96.0888 18.312 96.5648 18.2 97.0408 18.13C97.5308 18.06 98.0068 18.018 98.4688 18.004C98.9308 17.976 99.3368 17.948 99.6868 17.92C100.051 17.878 100.345 17.822 100.569 17.752C100.793 17.668 100.905 17.542 100.905 17.374C100.905 17.024 100.702 16.737 100.296 16.513C99.9038 16.289 99.3998 16.177 98.7838 16.177C98.1538 16.177 97.6358 16.31 97.2298 16.576C96.8378 16.828 96.6418 17.157 96.6418 17.563H93.5968ZM96.3898 21.595C96.3898 21.833 96.5228 22.029 96.7888 22.183C97.0688 22.337 97.4118 22.414 97.8178 22.414C98.6438 22.414 99.3508 22.19 99.9388 21.742C100.541 21.294 100.919 20.713 101.073 19.999C100.583 20.055 100.058 20.104 99.4978 20.146C98.9518 20.174 98.4478 20.237 97.9858 20.335C97.5238 20.433 97.1388 20.58 96.8308 20.776C96.5368 20.958 96.3898 21.231 96.3898 21.595ZM106.824 16.723H105.774V13.573H109.239V15.043H109.554C110.002 14.511 110.562 14.098 111.234 13.804C111.92 13.51 112.641 13.363 113.397 13.363C114.055 13.363 114.664 13.503 115.224 13.783C115.784 14.049 116.267 14.427 116.673 14.917C117.093 15.393 117.415 15.96 117.639 16.618C117.877 17.262 117.996 17.969 117.996 18.739V25.123H115.056V19.6C115.056 18.494 114.832 17.654 114.384 17.08C113.936 16.492 113.271 16.198 112.389 16.198C111.549 16.198 110.898 16.492 110.436 17.08C109.988 17.668 109.764 18.508 109.764 19.6V25.123H106.824V16.723ZM128.792 19.516V19.18C128.792 18.76 128.708 18.375 128.54 18.025C128.386 17.661 128.162 17.346 127.868 17.08C127.588 16.814 127.252 16.604 126.86 16.45C126.468 16.296 126.048 16.219 125.6 16.219C124.648 16.219 123.892 16.506 123.332 17.08C122.772 17.64 122.492 18.396 122.492 19.348C122.492 20.3 122.772 21.063 123.332 21.637C123.892 22.197 124.648 22.477 125.6 22.477C126.048 22.477 126.468 22.4 126.86 22.246C127.252 22.092 127.588 21.882 127.868 21.616C128.162 21.35 128.386 21.042 128.54 20.692C128.708 20.328 128.792 19.936 128.792 19.516ZM131.732 9.37298V21.973H132.782V25.123H129.107V23.653H128.792C128.302 24.241 127.749 24.668 127.133 24.934C126.517 25.2 125.747 25.333 124.823 25.333C124.081 25.333 123.381 25.179 122.723 24.871C122.065 24.563 121.491 24.143 121.001 23.611C120.525 23.065 120.147 22.428 119.867 21.7C119.587 20.972 119.447 20.188 119.447 19.348C119.447 18.508 119.587 17.724 119.867 16.996C120.147 16.268 120.525 15.638 121.001 15.106C121.491 14.56 122.065 14.133 122.723 13.825C123.381 13.517 124.081 13.363 124.823 13.363C125.649 13.363 126.349 13.468 126.923 13.678C127.497 13.888 128.015 14.224 128.477 14.686H128.792V9.37298H131.732ZM134.033 9.37298H136.973V14.707H137.309C138.233 13.811 139.346 13.363 140.648 13.363C141.306 13.363 141.915 13.503 142.475 13.783C143.035 14.049 143.518 14.427 143.924 14.917C144.344 15.393 144.666 15.96 144.89 16.618C145.128 17.262 145.247 17.969 145.247 18.739V25.123H142.307V19.6C142.307 18.494 142.083 17.654 141.635 17.08C141.187 16.492 140.522 16.198 139.64 16.198C138.786 16.198 138.128 16.492 137.666 17.08C137.204 17.668 136.973 18.508 136.973 19.6V25.123H134.033V9.37298ZM158.084 21.994H159.134V25.123H155.669V23.674H155.354C154.906 24.192 154.339 24.598 153.653 24.892C152.981 25.186 152.267 25.333 151.511 25.333C150.853 25.333 150.244 25.2 149.684 24.934C149.124 24.654 148.634 24.276 148.214 23.8C147.808 23.324 147.486 22.757 147.248 22.099C147.024 21.441 146.912 20.734 146.912 19.978V13.594H149.852V19.117C149.852 20.223 150.076 21.063 150.524 21.637C150.972 22.211 151.637 22.498 152.519 22.498C153.401 22.498 154.059 22.197 154.493 21.595C154.927 20.993 155.144 20.167 155.144 19.117V13.594H158.084V21.994Z" fill="#E0E3E6"/>
<defs>
<clipPath id="clip0_947_217">
<rect width="36.7842" height="32.97" fill="white"/>
</clipPath>
</defs>
</svg>
