<svg width="40" height="40" viewBox="0 0 40 40" fill="none" xmlns="http://www.w3.org/2000/svg">
<path d="M9.61422 4H30.3858C31.8745 4.00094 33.3019 4.59274 34.3546 5.64541C35.4073 6.69807 35.9991 8.12553 36 9.61422V15.5982C35.855 15.589 35.7097 15.5843 35.5644 15.584C34.781 15.5799 34.0068 15.7537 33.3003 16.0925C32.5938 16.4313 31.9735 16.9261 31.4862 17.5396C30.6471 18.5813 30.1387 19.9876 30.0142 21.568C29.9881 21.8833 29.9781 22.1985 29.984 22.5138C30.0676 26.0942 32.0018 28.9564 35.4382 28.9564C35.6302 28.9564 35.8175 28.9476 36 28.9298V30.3876C35.9986 31.8759 35.4066 33.3029 34.354 34.3552C33.3013 35.4075 31.8742 35.9991 30.3858 36H9.61422C8.12553 35.9991 6.69807 35.4073 5.64541 34.3546C4.59274 33.3019 4.00094 31.8745 4 30.3858V9.61422C4.00094 8.12553 4.59274 6.69807 5.64541 5.64541C6.69807 4.59274 8.12553 4.00094 9.61422 4ZM36 26.0231V21.1769H33.0613C32.9298 23.5164 34.2098 25.4969 36 26.0231ZM36 20.4996V16.3964C35.8516 16.3561 35.6986 16.3352 35.5449 16.3342C34.096 16.3644 33.2338 18.0978 33.1271 20.4996H36ZM30.128 11.6444L30.1547 11.6391V11.4436H24.9991L20.2169 22.6898L15.4311 11.4436H9.87733V11.6391L9.90222 11.6444C10.8427 11.8578 11.3191 12.1742 11.3191 13.3156V26.6844C11.3191 27.8258 10.8391 28.1422 9.90044 28.3556L9.87556 28.3591V28.5547H13.6444V28.3591L13.6178 28.3556C12.6773 28.1422 12.1991 27.8258 12.1991 26.6844V14.0907L18.3467 28.5564H18.6951L25.0222 13.6871V27.0133C24.9404 27.9164 24.4676 28.1956 23.616 28.3876L23.5911 28.3929V28.5867H30.1547V28.3911L30.128 28.3876C29.2747 28.1956 28.7911 27.9164 28.7111 27.0133L28.7058 13.3156H28.7111C28.7111 12.1742 29.1876 11.8578 30.128 11.6444Z" fill="#B5B5B5"/>
</svg>
