<svg width="40" height="40" viewBox="0 0 40 40" fill="none" xmlns="http://www.w3.org/2000/svg">
<g clip-path="url(#clip0_3361_58)">
<path d="M4 12C4 7.58175 7.58175 4 12 4H28C32.4183 4 36 7.58175 36 12V28C36 32.4183 32.4183 36 28 36H12C7.58175 36 4 32.4183 4 28V12Z" fill="#FFDD33"/>
<path d="M25.2744 10.1001H22.3695L24.7903 14.3533L19.4646 10.1001H16.5598L19.2226 15.2986L13.6549 10.1001H10.75L13.6549 16.7172L10.75 29.9501H13.6549L19.2226 15.7718L16.5598 29.9501H19.4646L24.7903 14.8266L22.3695 29.9501H25.2744L30.6 13.408L25.2744 10.1001Z" fill="black"/>
</g>
<defs>
<clipPath id="clip0_3361_58">
<rect width="32" height="32" fill="white" transform="translate(4 4)"/>
</clipPath>
</defs>
</svg>
