<svg width="40" height="40" viewBox="0 0 40 40" fill="none" xmlns="http://www.w3.org/2000/svg">
<g clip-path="url(#clip0_3361_91)">
<path d="M23.063 4.0625L26.3277 4.084C26.3892 4.13175 26.439 4.163 26.4917 4.1865C27.0835 4.454 27.725 4.6455 28.2582 5.001C29.8042 6.0285 31.314 7.11125 32.8227 8.1935C33.524 8.69525 34.2152 9.21775 34.8617 9.786C35.3422 10.208 35.558 10.8068 35.5592 11.4453L35.558 31.538C35.5572 31.8183 35.5092 32.1065 35.4312 32.376C35.0767 33.6045 34.2905 34.4453 33.0532 34.7735C32.4007 34.9463 31.7115 35 31.0347 35.0557C29.979 35.1435 28.9195 35.1865 27.8617 35.25L25.8607 35.375L22.6567 35.5635L20.687 35.6865L17.4517 35.874L15.7797 35.9425C15.726 35.9452 15.6762 36.0205 15.6255 36.0625C14.353 36.0625 13.0815 36.0625 11.7982 36.042C11.7367 35.9932 11.69 35.954 11.6352 35.9385C10.8597 35.7137 10.2095 35.2853 9.70947 34.663C9.01697 33.8028 8.35897 32.916 7.69297 32.0352C6.87447 30.953 6.03472 29.8868 5.26122 28.7735C4.80657 28.123 4.56306 27.3484 4.56372 26.5548C4.56154 20.6205 4.56229 14.6862 4.56597 8.752C4.56597 8.581 4.59597 8.40825 4.62547 8.23825C4.93597 6.41125 6.28847 5.4365 7.89697 5.25575C8.73197 5.162 9.57272 5.12 10.4117 5.0645L12.6292 4.9365L13.5825 4.874L16.4575 4.626L18.0512 4.501L20.691 4.3135L22.9085 4.1825C22.9625 4.17875 23.0122 4.1045 23.063 4.0625ZM10.4867 32.546C10.6197 32.7187 10.768 32.8827 10.8842 33.0665C11.4477 33.9482 12.2555 34.2685 13.2817 34.2003L20.234 33.7862L28.058 33.3135L31.9535 33.0625C33.108 32.9698 33.6655 32.3457 33.688 31.1875V30.9375L33.6967 11.9717C33.6977 11.4005 33.5005 11.001 33.0435 10.6817L27.5375 6.80175C26.6517 6.15725 25.7115 5.8565 24.6225 5.9425L18.4565 6.3985L12.0092 6.874L7.96247 7.1895C7.14497 7.2645 6.63822 7.7645 6.49172 8.5665C6.4561 8.77122 6.43878 8.97871 6.43997 9.1865L6.42322 25.747C6.41747 26.832 6.74947 27.7345 7.39897 28.5645L10.4867 32.546Z" fill="white"/>
<path d="M10.4709 32.5294L7.3977 28.5644C6.7482 27.7344 6.4162 26.8321 6.42195 25.7471L6.4387 9.18663C6.4387 8.97963 6.4542 8.76963 6.49045 8.56663C6.63695 7.76488 7.1437 7.26488 7.9612 7.18963L12.0079 6.87413L18.4554 6.39862L24.6212 5.94262C25.7102 5.85662 26.6505 6.15737 27.5362 6.80187C29.3517 8.12312 31.2012 9.39762 33.0422 10.6819C33.4992 11.0011 33.6965 11.4006 33.6955 11.9719L33.6867 30.9386V31.1886C33.6642 32.3459 33.1067 32.9699 31.9522 33.0626C30.6555 33.1671 29.3557 33.2346 28.0567 33.3136L20.2327 33.7861L13.2804 34.2004C12.2542 34.2686 11.4464 33.9484 10.8829 33.0666C10.7667 32.8829 10.6184 32.7189 10.4709 32.5294ZM12.0724 21.0314V29.4034L12.0744 30.9649C12.0879 31.6651 12.4309 32.0139 13.1309 32.0539C13.3067 32.0636 13.4844 32.0576 13.6612 32.0469L19.5217 31.7014L30.713 31.0616C31.4105 31.0226 31.7327 30.7169 31.798 30.0256C31.8107 29.9014 31.8067 29.7756 31.8067 29.6506L31.8077 13.5314C31.8077 13.4376 31.8107 13.3439 31.805 13.2501C31.763 12.6086 31.4875 12.3469 30.85 12.3809L25.0822 12.7131C22.3806 12.8703 19.6791 13.0285 16.9777 13.1876L12.9259 13.4309C12.4094 13.4639 12.1759 13.6866 12.0979 14.1916C12.0795 14.3256 12.0713 14.4607 12.0734 14.5959L12.0724 21.0314ZM26.3655 7.84962C25.8762 7.58412 25.345 7.49612 24.798 7.52637C23.9572 7.57237 23.1165 7.64162 22.2755 7.70237L10.2882 8.57337C9.92595 8.59962 9.5617 8.62587 9.2042 8.69062C9.0842 8.71212 8.9327 8.83313 8.8957 8.94263C8.8682 9.01963 8.98945 9.17513 9.0782 9.26013C9.24245 9.41713 9.4317 9.54887 9.6107 9.69062C10.0354 10.0256 10.4874 10.3311 10.8772 10.7014C11.6164 11.4034 12.4767 11.5656 13.4622 11.4944L21.2209 11.0079L29.5735 10.5069C29.6497 10.5031 29.726 10.4796 29.8937 10.4484C29.7405 10.2891 29.6515 10.1671 29.5355 10.0811C29.1263 9.77892 28.7131 9.48206 28.2962 9.19062C27.6556 8.73929 27.012 8.29228 26.3655 7.84962Z" fill="black"/>
<path d="M12.0716 21.0004L12.0726 14.5961C12.0726 14.4611 12.0766 14.3246 12.0971 14.1919C12.1751 13.6869 12.4086 13.4644 12.9251 13.4311L16.9768 13.1879L25.0813 12.7134L30.8488 12.3811C31.4866 12.3471 31.7621 12.6096 31.8038 13.2504C31.8098 13.3441 31.8068 13.4379 31.8068 13.5316L31.8058 29.6509L31.7971 30.0259C31.7318 30.7171 31.4096 31.0229 30.7121 31.0619L19.5208 31.7016L13.6603 32.0471L13.1303 32.0541C12.4301 32.0141 12.0871 31.6654 12.0736 30.9661L12.0716 29.4036V21.0004ZM23.5131 21.0169L20.2961 16.1156C20.1838 15.9446 20.0736 15.8881 19.8666 15.9106L18.4953 16.0031L15.9728 16.1879C15.3528 16.2446 14.9778 16.8276 15.1496 17.4321L16.4856 17.5464V28.3696L15.5756 28.6264C15.1721 28.7454 14.9993 29.0854 15.1351 29.5199L18.2121 29.3431L19.4241 29.2436C19.9466 29.1576 20.2278 28.8374 20.2981 28.3149L18.6156 27.9311V19.7904L18.7406 19.9654L22.6076 26.0034C23.176 26.8851 23.7598 27.7569 24.3586 28.6184C24.7853 29.2309 25.4143 29.4184 26.1213 29.2659C26.5638 29.1714 26.9886 28.9916 27.4221 28.8519C27.6478 28.7786 27.7248 28.6439 27.7238 28.3909L27.7163 17.2659C27.7163 16.6156 27.7163 16.6156 28.3596 16.4859C29.0101 16.3549 29.1731 16.0951 29.0246 15.3999L25.1371 15.6361C24.7141 15.6664 24.3938 16.0199 24.3296 16.4311C24.2981 16.6294 24.3391 16.7386 24.5763 16.7524L25.7533 16.8824V24.4271C25.0078 23.2899 24.2611 22.1534 23.5131 21.0179V21.0169ZM26.3858 7.8606C27.024 8.30129 27.6604 8.74463 28.2948 9.1906C28.7119 9.48211 29.1251 9.77906 29.5343 10.0814C29.6503 10.1674 29.7393 10.2894 29.8926 10.4486L29.5723 10.5071L21.2198 11.0081L13.4611 11.4946C12.4756 11.5659 11.6153 11.4036 10.8761 10.7016C10.4863 10.3316 10.0343 10.0259 9.60935 9.69085C9.4306 9.5491 9.24135 9.41735 9.0771 9.2601C8.98835 9.1751 8.86709 9.0201 8.89459 8.9426C8.93159 8.83335 9.0841 8.71235 9.2031 8.69085C9.5606 8.62635 9.92485 8.59985 10.2871 8.5736L22.2746 7.7026L24.7971 7.5266C25.3438 7.4966 25.8751 7.5841 26.3858 7.8606Z" fill="white"/>
<path d="M23.527 21.0349L25.7538 24.4267V16.8817L24.577 16.7517C24.3395 16.7382 24.2985 16.6289 24.3298 16.4307C24.3943 16.0194 24.7148 15.6659 25.1373 15.6357L29.025 15.3994C29.1735 16.0944 29.0105 16.3544 28.36 16.4852C27.7165 16.6142 27.7165 16.6142 27.7165 17.2654L27.7243 28.3904C27.7253 28.6434 27.6483 28.7782 27.4225 28.8514L26.1218 29.2654C25.4148 29.4169 24.7858 29.2304 24.3593 28.6179C23.7607 27.7563 23.1769 26.8845 22.6083 26.0029L18.7408 19.9647C18.7135 19.9217 18.6823 19.8817 18.6158 19.7899V27.9307L20.2985 28.3144C20.2283 28.8369 19.947 29.1569 19.4245 29.2432C19.026 29.3084 18.617 29.3182 18.2125 29.3427L15.1355 29.5194C14.9998 29.0849 15.1725 28.7449 15.576 28.6259L16.486 28.3692V17.5459L15.15 17.4317C14.9783 16.8272 15.3533 16.2442 15.9733 16.1874C16.8123 16.1092 17.655 16.0614 18.4958 16.0029C18.9528 15.9717 19.4118 15.9599 19.867 15.9102C20.074 15.8877 20.1845 15.9442 20.2965 16.1152L23.527 21.0349Z" fill="black"/>
</g>
<defs>
<clipPath id="clip0_3361_91">
<rect width="32" height="32" fill="white" transform="translate(4 4)"/>
</clipPath>
</defs>
</svg>
