<svg width="40" height="40" viewBox="0 0 40 40" fill="none" xmlns="http://www.w3.org/2000/svg">
<path d="M20.002 3.44629C20.7224 3.44632 21.4309 3.63174 22.0586 3.98535C22.6862 4.33892 23.2117 4.84881 23.585 5.46484L37.0977 28.0293C37.1005 28.034 37.1037 28.0392 37.1065 28.0439C37.4716 28.6772 37.6651 29.395 37.667 30.126C37.6688 30.8571 37.4793 31.5767 37.1172 32.2119C36.7551 32.8471 36.2326 33.3761 35.6026 33.7471C34.9726 34.118 34.2564 34.3177 33.5254 34.3262L33.5137 34.3271L6.47853 34.3262C5.74724 34.3179 5.03068 34.119 4.40041 33.748C3.76999 33.3769 3.24794 32.8465 2.88576 32.2109C2.52367 31.5754 2.33388 30.8564 2.33595 30.125C2.33805 29.3936 2.53177 28.6754 2.89748 28.042L2.90529 28.0273L16.4063 5.48633C16.4103 5.47932 16.4138 5.47179 16.418 5.46484C16.7913 4.84868 17.3176 4.33897 17.9453 3.98535C18.573 3.6318 19.2816 3.44629 20.002 3.44629ZM20.002 5.44629C19.6254 5.44629 19.2549 5.54367 18.9268 5.72852C18.5998 5.91277 18.3249 6.17738 18.1299 6.49805L18.1309 6.49902L4.62892 29.041C4.43772 29.3721 4.33705 29.7485 4.33595 30.1309C4.33491 30.513 4.43394 30.8887 4.62306 31.2207C4.81237 31.5529 5.08556 31.8305 5.41506 32.0244C5.74132 32.2164 6.11185 32.32 6.49025 32.3262H33.5137C33.8917 32.3198 34.262 32.2163 34.5879 32.0244C34.9171 31.8306 35.1897 31.5536 35.3789 31.2217C35.5681 30.8898 35.6679 30.5139 35.667 30.1318C35.6661 29.7497 35.5649 29.374 35.374 29.043L21.875 6.50195L21.7979 6.38379C21.6101 6.11456 21.3641 5.89028 21.0772 5.72852C20.7491 5.54371 20.3785 5.44632 20.002 5.44629ZM20.0186 25.667C20.5708 25.6671 21.0186 26.1147 21.0186 26.667C21.0184 27.2191 20.5707 27.6669 20.0186 27.667H20.002C19.4498 27.667 19.0022 27.2191 19.002 26.667C19.002 26.1147 19.4497 25.667 20.002 25.667H20.0186ZM19.002 21.667V15C19.002 14.4477 19.4497 14 20.002 14C20.5542 14.0001 21.002 14.4478 21.002 15V21.667C21.0018 22.2191 20.5541 22.6669 20.002 22.667C19.4498 22.667 19.0022 22.2191 19.002 21.667Z" fill="#9C9C9C"/>
</svg>
