<svg width="40" height="40" viewBox="0 0 40 40" fill="none" xmlns="http://www.w3.org/2000/svg">
<g clip-path="url(#clip0_3361_67)">
<path d="M8.37509 2.44971H31.6249C35.1501 2.44971 38 5.29961 38 8.8248V31.1746C38 34.6998 35.1501 37.5497 31.6249 37.5497H8.37509C4.84991 37.5497 2 34.6998 2 31.1746V8.8248C2 5.29961 4.84991 2.44971 8.37509 2.44971Z" fill="#001E36"/>
<path d="M14.8997 11.375C14.4497 11.375 13.9997 11.375 13.5348 11.3902C13.0696 11.4051 12.6345 11.4051 12.2295 11.4203C11.8245 11.4352 11.4496 11.4352 11.0896 11.4501C10.7445 11.465 10.5046 11.465 10.2495 11.465C10.1446 11.465 10.0996 11.5249 10.0996 11.6301V27.0651C10.0996 27.2001 10.1595 27.2603 10.2796 27.2603H13.1897C13.2946 27.2451 13.3697 27.1551 13.3545 27.0502V22.2352C13.6394 22.2352 13.8495 22.2352 13.9997 22.2501C14.1496 22.265 14.3895 22.265 14.7495 22.265C15.9797 22.265 17.1047 22.13 18.1245 21.7551C19.0996 21.3951 19.9397 20.7651 20.5396 19.925C21.1396 19.085 21.4396 18.02 21.4396 16.73C21.4396 16.055 21.3198 15.4101 21.0948 14.7801C20.8564 14.1383 20.4829 13.5551 19.9996 13.0701C19.4292 12.5159 18.7425 12.0957 17.9895 11.8399C17.1494 11.5249 16.1296 11.375 14.8997 11.375ZM15.2344 14.3295C15.7688 14.3397 16.2891 14.433 16.7745 14.6299C17.2096 14.795 17.5696 15.0951 17.8247 15.4849C18.0639 15.8883 18.1836 16.3514 18.1698 16.8203C18.1698 17.4801 18.0196 17.9903 17.7046 18.3652C17.3744 18.7401 16.9545 19.0253 16.4747 19.1603C15.9195 19.3403 15.3345 19.43 14.7495 19.43H13.9544C13.7744 19.43 13.5798 19.4151 13.3697 19.4002V14.3602C13.4746 14.345 13.6847 14.3301 13.9848 14.3453C14.2697 14.3301 14.6145 14.3301 15.0046 14.3301C15.0815 14.3282 15.1581 14.328 15.2344 14.3295ZM27.8147 15.0954C26.7496 15.0954 25.8645 15.2602 25.1597 15.6202C24.5148 15.9203 23.9596 16.4001 23.5847 17C23.2548 17.5552 23.0745 18.17 23.0745 18.8152C23.0617 19.3458 23.1802 19.8714 23.4196 20.3452C23.7001 20.8497 24.0897 21.2852 24.5598 21.6201C25.2196 22.0714 25.9357 22.4345 26.6897 22.7001C27.4246 22.985 27.9196 23.21 28.1598 23.4049C28.3997 23.6001 28.5198 23.795 28.5198 24.0051C28.5198 24.2751 28.3547 24.5302 28.1148 24.6351C27.8448 24.7701 27.4398 24.8452 26.8697 24.8452C26.2698 24.8452 25.6696 24.7701 25.0995 24.6202C24.4449 24.474 23.8173 24.226 23.2396 23.8853C23.1946 23.8552 23.1496 23.8403 23.1046 23.8704C23.0596 23.9002 23.0447 23.9601 23.0447 24.0051V26.6151C23.0298 26.7352 23.1046 26.8401 23.2098 26.9C23.6962 27.1272 24.2107 27.2887 24.7398 27.3801C25.4148 27.5151 26.0895 27.575 26.7794 27.575C27.8594 27.575 28.7597 27.4102 29.4946 27.0952C30.1696 26.8252 30.7546 26.3603 31.1745 25.7601C31.5678 25.1701 31.7718 24.4742 31.7595 23.7652C31.7743 23.2296 31.6558 22.6987 31.4147 22.2203C31.1295 21.7101 30.7245 21.2902 30.2295 20.9752C29.5054 20.5204 28.73 20.1528 27.9196 19.88C27.5577 19.7302 27.2023 19.5651 26.8545 19.385C26.6596 19.2801 26.4796 19.1451 26.3446 18.98C26.2546 18.8599 26.1947 18.7252 26.1947 18.5902C26.1947 18.4552 26.2397 18.3053 26.3145 18.1852C26.4197 18.0353 26.5845 17.9301 26.7794 17.8851C27.0646 17.8103 27.3796 17.765 27.6794 17.7799C28.2495 17.7799 28.8044 17.855 29.3596 17.9751C29.8698 18.08 30.3496 18.2451 30.7996 18.4853C30.8595 18.5151 30.9346 18.5151 31.0696 18.4853C31.093 18.4679 31.1121 18.4453 31.1251 18.4192C31.1382 18.3931 31.1449 18.3643 31.1447 18.3351V15.8902C31.1447 15.83 31.1295 15.7701 31.1146 15.7102C31.0845 15.6503 31.0246 15.5901 30.9647 15.5752C30.551 15.4061 30.1175 15.2901 29.6746 15.2301C29.0587 15.1404 28.4371 15.0956 27.8147 15.0954Z" fill="#31A8FF"/>
</g>
<defs>
<clipPath id="clip0_3361_67">
<rect width="36" height="36" fill="white" transform="translate(2 2)"/>
</clipPath>
</defs>
</svg>
