<svg width="40" height="40" viewBox="0 0 40 40" fill="none" xmlns="http://www.w3.org/2000/svg">
<path d="M20.001 3.4176C20.7534 3.4176 21.4967 3.58578 22.1758 3.90979L22.4062 4.02991C22.942 4.33299 23.4823 4.80009 24.2988 5.49573L24.6289 5.7594C25.4 6.33281 26.1904 6.6229 27.2168 6.70374H27.2178C28.4418 6.80185 29.1963 6.85759 29.8408 7.08459H29.8418C31.2777 7.59324 32.4096 8.72243 32.917 10.1617L32.9941 10.4088C33.1583 11.001 33.2111 11.7127 33.2969 12.7848V12.7858C33.3893 13.9591 33.7549 14.822 34.5039 15.7018H34.5029C35.3001 16.6356 35.7972 17.2082 36.0918 17.8258H36.0908C36.748 19.2012 36.7481 20.7991 36.0908 22.1735L36.0918 22.1744C35.7974 22.7917 35.3012 23.365 34.5059 24.2985C34.5022 24.3027 34.4978 24.307 34.4941 24.3112C33.7811 25.1115 33.3601 26.1297 33.2988 27.1998C33.2985 27.2054 33.2973 27.2109 33.2969 27.2164C33.1988 28.4404 33.144 29.1949 32.917 29.8395V29.8405C32.6657 30.5498 32.2588 31.1942 31.7266 31.7262C31.1942 32.2582 30.5494 32.6648 29.8398 32.9156C29.1965 33.143 28.4411 33.1974 27.2158 33.2955L27.2148 33.2965C26.0417 33.3889 25.1785 33.7528 24.2988 34.5016L24.2998 34.5026C23.3661 35.2997 22.7933 35.7959 22.1758 36.0905C21.4967 36.4145 20.7534 36.5826 20.001 36.5826C19.2486 36.5826 18.5052 36.4145 17.8262 36.0905V36.0895C17.2092 35.795 16.6362 35.2994 15.7031 34.5045C15.6989 34.5009 15.6945 34.4974 15.6904 34.4938C14.8901 33.7805 13.8721 33.3588 12.8018 33.2975C12.7961 33.2972 12.7899 33.296 12.7842 33.2955C11.5605 33.1974 10.8066 33.1426 10.1621 32.9156H10.1611C9.45183 32.6644 8.80736 32.2574 8.27539 31.7252C7.7434 31.1929 7.33681 30.548 7.08594 29.8385C6.85864 29.1952 6.80317 28.4398 6.70508 27.2145C6.70464 27.209 6.70442 27.2034 6.7041 27.1979C6.64291 26.1282 6.22224 25.1104 5.50977 24.3102C5.5063 24.3063 5.50241 24.3024 5.49902 24.2985C4.70152 23.3643 4.20611 22.7926 3.91016 22.1764L3.90918 22.1744C3.62587 21.58 3.46208 20.9366 3.42578 20.2809L3.41797 19.9996C3.41831 19.2471 3.58679 18.5038 3.91113 17.8248H3.91211C4.13296 17.3622 4.46643 16.924 4.95508 16.3405L5.49707 15.7018C6.26057 14.8045 6.61413 13.9339 6.70508 12.7838L6.77441 11.9479C6.84194 11.1893 6.91569 10.6441 7.08594 10.1608V10.1598C7.33723 9.45039 7.74405 8.80606 8.27637 8.27405C8.80874 7.74201 9.45347 7.33546 10.1631 7.08459L10.4102 7.00745C11.0023 6.84326 11.714 6.78956 12.7861 6.70374C12.7918 6.70328 12.798 6.70308 12.8037 6.70276C13.8725 6.64155 14.8898 6.21923 15.6904 5.50647C15.6945 5.50284 15.699 5.49927 15.7031 5.49573C16.6362 4.70078 17.2092 4.20524 17.8262 3.91077C18.5052 3.58677 19.2486 3.41764 20.001 3.4176ZM20.001 4.9176C19.4722 4.91764 18.9499 5.03562 18.4727 5.26331C18.0783 5.45142 17.6814 5.77887 16.6875 6.62561L16.6885 6.62659C15.6361 7.56362 14.2968 8.12026 12.8887 8.20081L12.8877 8.19983C11.5869 8.30403 11.0744 8.3534 10.6631 8.49866C10.1643 8.67497 9.71112 8.9607 9.33691 9.33459C8.96267 9.7086 8.67667 10.162 8.5 10.6608L8.49902 10.6598C8.3895 10.9712 8.33624 11.3397 8.27148 12.0573L8.2002 12.903C8.08443 14.3658 7.60814 15.5353 6.63867 16.6744C5.89051 17.5526 5.5442 17.9667 5.34277 18.3219L5.26465 18.4713C5.03664 18.9486 4.91821 19.4716 4.91797 20.0006C4.91779 20.5287 5.03578 21.0501 5.2627 21.527L5.34082 21.6774C5.54277 22.0317 5.88804 22.4441 6.62988 23.3131L6.80078 23.5133C7.6345 24.5331 8.12661 25.7924 8.20215 27.1119H8.20117C8.30549 28.4142 8.3546 28.9269 8.5 29.3385L8.57129 29.5231C8.74921 29.9492 9.00865 30.3372 9.33594 30.6647C9.70933 31.0383 10.1614 31.3239 10.6592 31.5006H10.6602C11.0756 31.6469 11.5918 31.6952 12.9043 31.8004H12.9033C14.3003 31.884 15.6285 32.4345 16.6758 33.3629L17.3242 33.9108C17.7853 34.2959 18.0687 34.5139 18.3223 34.6578L18.4727 34.736V34.7369C18.9499 34.9646 19.4722 35.0826 20.001 35.0826C20.53 35.0826 21.0528 34.9647 21.5303 34.7369V34.736C21.9259 34.5472 22.3237 34.2168 23.3262 33.361H23.3271C24.4437 32.4103 25.6039 31.9181 27.0967 31.8004L27.9434 31.7301C28.6623 31.6653 29.0298 31.6111 29.3398 31.5016C29.8386 31.3252 30.2918 31.0396 30.666 30.6656C31.04 30.2919 31.3253 29.8388 31.502 29.3405C31.6482 28.925 31.6966 28.4086 31.8018 27.0963C31.8856 25.6999 32.4353 24.3717 33.3633 23.3248C34.2178 22.3219 34.5484 21.9249 34.7373 21.5289L34.7383 21.528C35.2002 20.5629 35.2006 19.4386 34.7383 18.4713H34.7373C34.5485 18.0756 34.2183 17.6782 33.3623 16.6754V16.6744C32.4116 15.5579 31.9195 14.3976 31.8018 12.9049L31.7314 12.0582C31.6666 11.3391 31.6115 10.9718 31.502 10.6617V10.6608C31.1459 9.65052 30.3513 8.85658 29.3408 8.49866V8.49768C28.9257 8.35181 28.4092 8.30391 27.0986 8.19885C25.6053 8.08117 24.4435 7.58781 23.3271 6.63733H23.3262C22.3233 5.78289 21.9263 5.45219 21.5303 5.26331C21.0528 5.03552 20.53 4.9176 20.001 4.9176Z" fill="#9C9C9C"/>
<path d="M24.9473 15.0606C25.1898 14.7251 25.6585 14.6495 25.9942 14.8917C26.33 15.1342 26.4057 15.6037 26.1631 15.9395L20.169 24.2403C19.9562 24.5353 19.6793 24.779 19.3594 24.9522C19.0396 25.1254 18.6846 25.2233 18.3214 25.2403C17.958 25.2572 17.5954 25.1925 17.2608 25.0499C16.968 24.925 16.7035 24.7435 16.4815 24.5167L16.3887 24.417L13.8809 21.5489C13.6083 21.2371 13.6396 20.763 13.9512 20.4903C14.263 20.2176 14.7372 20.2498 15.0098 20.5616L17.5186 23.4297L17.5909 23.504C17.6669 23.5733 17.7546 23.6295 17.8497 23.67C17.9764 23.7239 18.1135 23.7486 18.251 23.7422C18.3889 23.7358 18.5242 23.6986 18.6456 23.6329C18.7667 23.5672 18.8716 23.475 18.9522 23.3633V23.3624L24.9473 15.0606Z" fill="#9C9C9C"/>
</svg>
