<svg width="40" height="40" viewBox="0 0 40 40" fill="none" xmlns="http://www.w3.org/2000/svg">
<g clip-path="url(#clip0_3361_33)">
<path d="M20 4.5L10.4182 5.51926L3 15.538L20 35.4548L37 15.538L29.5819 5.51926L20 4.5Z" fill="#FDB300"/>
<path d="M3 15.5381L20 35.4548L9.8858 15.5381H3ZM30.1141 15.5381L20 35.4548L36.9999 15.5381H30.1141Z" fill="#EB6C00"/>
<path d="M9.88477 15.5381L19.999 35.4548L30.1132 15.5381H9.88477Z" fill="#FDAD00"/>
<path d="M10.4172 5.51926L9.88477 15.538L19.999 4.5L10.4172 5.51926ZM30.113 15.5381L29.5807 5.51926L19.999 4.50013L30.113 15.5381Z" fill="#FDD231"/>
<path d="M30.1142 15.5384H36.9999L29.5818 5.51953L30.1142 15.5384ZM3 15.5384H9.8858L10.4182 5.51953L3 15.5384Z" fill="#FDAD00"/>
<path d="M19.999 4.5L9.88477 15.538H30.1132L19.999 4.5Z" fill="#FEEEB7"/>
</g>
<defs>
<clipPath id="clip0_3361_33">
<rect width="34" height="31" fill="white" transform="translate(3 4.5)"/>
</clipPath>
</defs>
</svg>
