<svg width="40" height="40" viewBox="0 0 40 40" fill="none" xmlns="http://www.w3.org/2000/svg">
<path d="M5.91797 16.0336C5.91797 8.61937 11.8386 2.58489 19.167 2.58435L19.168 2.58337V2.58435C20.0586 2.58346 20.947 2.67235 21.8193 2.85193C22.2249 2.93548 22.4857 3.33207 22.4023 3.73767C22.3188 4.14338 21.9223 4.40518 21.5166 4.32166C20.7442 4.16264 19.9576 4.08255 19.1689 4.08337H19.168C12.6901 4.08337 7.41797 9.42477 7.41797 16.0336C7.41803 20.0674 9.26811 23.1494 12.2627 25.1976L12.7656 25.5433C12.9172 25.6495 13.0519 25.7472 13.1689 25.8383C13.4024 26.0199 13.6225 26.2179 13.7832 26.4691C13.9377 26.7107 14.024 26.9665 14.0879 27.2318C14.1188 27.3601 14.1464 27.5031 14.1748 27.6595L14.2627 28.1693V28.1722L14.3594 28.7572L14.5098 29.6195C14.5552 29.857 14.5988 30.0498 14.6475 30.2133C14.7388 30.5199 14.8244 30.6319 14.9043 30.6996C14.9847 30.7675 15.1093 30.8338 15.4258 30.8734C15.7638 30.9156 16.2148 30.9164 16.9082 30.9164H21.2617C21.9549 30.9164 22.4053 30.9156 22.7432 30.8734C23.0596 30.8339 23.1842 30.7675 23.2646 30.6996C23.3449 30.6316 23.4313 30.5193 23.5225 30.2133C23.6196 29.8871 23.6945 29.4427 23.8076 28.7592L23.8086 28.7562L23.9082 28.1674C23.9689 27.8001 24.0213 27.4857 24.084 27.2279C24.1488 26.9612 24.236 26.7064 24.3896 26.4662C24.5513 26.2131 24.7713 26.0148 25.0059 25.8334C25.24 25.6523 25.5445 25.4463 25.9111 25.1986L26.1934 25.0033C29.0743 22.9473 30.9179 19.9265 30.918 16.0336C30.918 15.6194 31.2538 15.2836 31.668 15.2836C32.0822 15.2836 32.418 15.6194 32.418 16.0336C32.4179 20.6146 30.1495 24.1422 26.752 26.4408L26.751 26.4418C26.3678 26.7006 26.1099 26.8752 25.9229 27.0199C25.8299 27.0918 25.7687 27.1461 25.7275 27.1869L25.6533 27.2738C25.6237 27.32 25.5867 27.3986 25.542 27.5824C25.4953 27.7746 25.4518 28.0276 25.3877 28.4154V28.4193L25.2871 29.0033C25.1802 29.6495 25.0902 30.2035 24.96 30.641C24.8237 31.0986 24.6207 31.5171 24.2344 31.8441C23.8481 32.1711 23.4021 32.3026 22.9287 32.3617C22.4764 32.4182 21.9163 32.4164 21.2617 32.4164H16.9082C16.2533 32.4164 15.6927 32.4182 15.2402 32.3617C14.7669 32.3026 14.3218 32.1709 13.9355 31.8441C13.5488 31.5168 13.3461 31.098 13.21 30.641C13.0799 30.2043 12.9882 29.6515 12.8799 29.0062V29.0033L12.7832 28.4174C12.7179 28.0284 12.6754 27.7763 12.6289 27.5834C12.5846 27.3995 12.5483 27.3228 12.5195 27.2777C12.4969 27.2423 12.4366 27.1685 12.248 27.0219C12.0598 26.8754 11.8009 26.6981 11.417 26.4359H11.416C8.04088 24.1275 5.91803 20.5961 5.91797 16.0336Z" fill="#9C9C9C"/>
<path d="M15.0859 33.3334V31.6664H16.5859V33.3334C16.5859 34.1403 16.5879 34.6698 16.6406 35.0619C16.6904 35.432 16.7729 35.5661 16.8545 35.6478C16.9362 35.7295 17.0701 35.8128 17.4404 35.8627C17.8325 35.9154 18.3621 35.9164 19.169 35.9164C19.976 35.9164 20.5063 35.9154 20.8984 35.8627C21.2686 35.8128 21.4027 35.7295 21.4844 35.6478C21.566 35.5661 21.6485 35.4318 21.6982 35.0619C21.751 34.6698 21.7529 34.1403 21.7529 33.3334V31.6664H23.2529V33.3334C23.2529 34.098 23.2539 34.7467 23.1846 35.2621C23.1123 35.799 22.9513 36.3018 22.5449 36.7084C22.1383 37.115 21.6348 37.2767 21.0977 37.349C20.5823 37.4183 19.9334 37.4164 19.169 37.4164C18.4045 37.4164 17.7555 37.4183 17.2402 37.349C16.7033 37.2767 16.2005 37.1149 15.794 36.7084C15.3874 36.3018 15.2256 35.7991 15.1533 35.2621C15.084 34.7467 15.0859 34.0979 15.0859 33.3334ZM27.5029 2.58337C27.8165 2.58351 28.0971 2.77862 28.2061 3.07263L28.6357 4.23474L29.0176 5.24841C29.3487 6.09797 29.5545 6.49629 29.8633 6.80505C30.2767 7.21825 30.8475 7.44666 32.4346 8.03357L33.5967 8.46326C33.8907 8.57223 34.0858 8.85282 34.0859 9.16638C34.0859 9.48011 33.8909 9.7615 33.5967 9.87048L32.4346 10.3002C30.8467 10.8874 30.276 11.115 29.8643 11.5267C29.4509 11.9401 29.2227 12.5108 28.6357 14.098V14.099L28.2061 15.2601C28.0972 15.5543 27.8166 15.7502 27.5029 15.7504C27.1891 15.7504 26.9078 15.5544 26.7988 15.2601L26.3691 14.099V14.098C25.7821 12.5107 25.5541 11.9403 25.1426 11.5287C24.7292 11.1153 24.1585 10.8871 22.5713 10.3002H22.5703L21.4092 9.87048C21.1149 9.76155 20.919 9.48018 20.919 9.16638C20.9191 8.85271 21.115 8.57215 21.4092 8.46326L22.5703 8.03357H22.5713C24.1589 7.44647 24.729 7.21769 25.1406 6.80603C25.5539 6.39263 25.7822 5.82203 26.3691 4.23474L26.7988 3.07263L26.8477 2.96716C26.9787 2.73271 27.2284 2.58337 27.5029 2.58337ZM27.502 5.48474C27.1031 6.54345 26.7767 7.29093 26.2012 7.86658C25.6269 8.44082 24.8796 8.76769 23.8213 9.16638C24.88 9.56522 25.6275 9.89251 26.2031 10.4681C26.7771 11.0422 27.1035 11.7893 27.502 12.847C27.9007 11.7888 28.2282 11.0417 28.8037 10.4662C29.3779 9.89196 30.1253 9.56506 31.1836 9.16638C30.1254 8.7677 29.3782 8.44092 28.8027 7.8656C28.2283 7.2912 27.9008 6.54357 27.502 5.48474Z" fill="#9C9C9C"/>
</svg>
