<svg width="24" height="24" viewBox="0 0 24 24" fill="none" xmlns="http://www.w3.org/2000/svg">
<path d="M20.1705 6.7499H18.3095L13.7435 11.3139C13.9008 11.7147 13.9152 12.1574 13.7845 12.5676C13.6537 12.9778 13.3857 13.3305 13.0255 13.5663C12.6653 13.8021 12.2348 13.9067 11.8066 13.8625C11.3783 13.8183 10.9783 13.628 10.6739 13.3235C10.3694 13.0191 10.1791 12.6191 10.1349 12.1908C10.0907 11.7626 10.1953 11.3322 10.4311 10.9719C10.6669 10.6117 11.0196 10.3437 11.4298 10.2129C11.84 10.0822 12.2827 10.0966 12.6835 10.2539L17.2485 5.6889V3.8279C17.2486 3.57888 17.3475 3.34007 17.5235 3.1639L19.2535 1.4339C19.2855 1.40168 19.3257 1.37879 19.3698 1.36769C19.4138 1.35659 19.4601 1.3577 19.5035 1.3709C19.5925 1.3969 19.6585 1.4709 19.6765 1.5619L20.1365 3.8629L22.4365 4.3229C22.5265 4.3409 22.6005 4.4069 22.6265 4.4959C22.6396 4.53913 22.6408 4.58511 22.6299 4.62896C22.619 4.6728 22.5964 4.71287 22.5645 4.7449L20.8335 6.4749C20.6576 6.65065 20.4192 6.74954 20.1705 6.7499Z" fill="#7EDFA5"/>
<path d="M2.625 12C2.625 14.4864 3.61272 16.871 5.37087 18.6291C7.12903 20.3873 9.5136 21.375 12 21.375C13.2311 21.375 14.4502 21.1325 15.5877 20.6614C16.7251 20.1902 17.7586 19.4997 18.6291 18.6291C19.4997 17.7586 20.1902 16.7251 20.6614 15.5877C21.1325 14.4502 21.375 13.2311 21.375 12C21.375 11.102 21.249 10.234 21.014 9.41301C20.9673 9.2245 20.9955 9.02522 21.0928 8.8571C21.19 8.68899 21.3487 8.56515 21.5353 8.51164C21.722 8.45813 21.9222 8.47913 22.0937 8.57021C22.2653 8.6613 22.3948 8.81537 22.455 9.00001C22.729 9.95401 22.875 10.96 22.875 12C22.875 18.006 18.006 22.875 12 22.875C5.994 22.875 1.125 18.006 1.125 12C1.125 5.99401 5.994 1.12501 12 1.12501C13.015 1.12401 14.024 1.26501 15 1.54401C15.0952 1.5707 15.1841 1.61594 15.2617 1.67713C15.3393 1.73831 15.4041 1.81423 15.4523 1.90053C15.5005 1.98683 15.5311 2.0818 15.5425 2.17998C15.5538 2.27816 15.5457 2.37762 15.5184 2.47264C15.4912 2.56765 15.4455 2.65635 15.3839 2.73364C15.3223 2.81092 15.246 2.87527 15.1595 2.92297C15.0729 2.97068 14.9778 3.00081 14.8795 3.01163C14.7813 3.02244 14.6819 3.01374 14.587 2.98601C13.7457 2.74586 12.8749 2.62436 12 2.62501C9.5136 2.62501 7.12903 3.61273 5.37087 5.37088C3.61272 7.12903 2.625 9.5136 2.625 12Z" fill="#7EDFA5"/>
<path d="M7.12376 12C7.12656 12.6624 7.26431 13.3172 7.52861 13.9245C7.79292 14.5318 8.17823 15.0789 8.66101 15.5323C9.1438 15.9857 9.71394 16.336 10.3366 16.5617C10.9593 16.7874 11.6214 16.8839 12.2826 16.8452C12.9438 16.8064 13.5902 16.6334 14.1823 16.3365C14.7744 16.0396 15.2997 15.6252 15.7263 15.1186C16.1529 14.6119 16.4717 14.0236 16.6633 13.3896C16.8549 12.7556 16.9153 12.0892 16.8408 11.431C16.8198 11.2977 16.8352 11.1613 16.8855 11.036C16.9357 10.9108 17.0189 10.8015 17.1262 10.7197C17.2335 10.6379 17.361 10.5867 17.495 10.5714C17.6291 10.5562 17.7648 10.5775 17.8878 10.633C18.1388 10.745 18.3078 10.984 18.3298 11.258C18.485 12.5733 18.2267 13.9042 17.5907 15.0659C16.9546 16.2275 15.9725 17.1622 14.7807 17.7399C13.589 18.3176 12.2469 18.5097 10.941 18.2895C9.63502 18.0692 8.43013 17.4476 7.49376 16.511C6.55766 15.5755 5.93589 14.3718 5.71469 13.0669C5.49349 11.7621 5.68382 10.4207 6.25929 9.22888C6.83475 8.03706 7.76683 7.05385 8.92625 6.41562C10.0857 5.77739 11.415 5.51577 12.7298 5.66703C12.8292 5.67626 12.9257 5.70523 13.0138 5.75225C13.1018 5.79927 13.1796 5.8634 13.2425 5.94087C13.3055 6.01834 13.3523 6.1076 13.3804 6.20341C13.4084 6.29923 13.417 6.39967 13.4056 6.49885C13.3943 6.59803 13.3633 6.69395 13.3145 6.78099C13.2656 6.86803 13.1998 6.94444 13.1211 7.00574C13.0423 7.06705 12.952 7.112 12.8557 7.13798C12.7593 7.16396 12.6587 7.17044 12.5598 7.15704C11.8768 7.07807 11.1848 7.14444 10.5293 7.35177C9.87382 7.5591 9.26956 7.90272 8.75621 8.36006C8.24287 8.81741 7.83205 9.37814 7.55071 10.0055C7.26937 10.6328 7.12387 11.3125 7.12376 12Z" fill="#7EDFA5"/>
</svg>
