<svg width="40" height="40" viewBox="0 0 40 40" fill="none" xmlns="http://www.w3.org/2000/svg">
<g clip-path="url(#clip0_3361_83)">
<path d="M7.92969 5H32.0703C33.6934 5 35 6.30664 35 7.92969V32.0703C35 33.6934 33.6934 35 32.0703 35H7.92969C6.30664 35 5 33.6934 5 32.0703V7.92969C5 6.30664 6.30664 5 7.92969 5Z" fill="url(#paint0_linear_3361_83)"/>
<path d="M23.3566 8.8999H29.6941C30.4732 8.8999 31.1004 9.52709 31.1004 10.3062V20.6187C31.1004 21.3977 30.4732 22.0249 29.6941 22.0249H23.3566C22.5776 22.0249 21.9504 21.3977 21.9504 20.6187V10.3062C21.9504 9.52709 22.5776 8.8999 23.3566 8.8999ZM10.3066 8.8999H16.6441C17.4232 8.8999 18.0504 9.52709 18.0504 10.3062V28.1187C18.0504 28.8977 17.4232 29.5249 16.6441 29.5249H10.3066C9.52758 29.5249 8.90039 28.8977 8.90039 28.1187V10.3062C8.90039 9.52709 9.52758 8.8999 10.3066 8.8999Z" fill="white"/>
</g>
<defs>
<linearGradient id="paint0_linear_3361_83" x1="20" y1="5" x2="20" y2="35" gradientUnits="userSpaceOnUse">
<stop stop-color="#2684FF"/>
<stop offset="1" stop-color="#0052CC"/>
</linearGradient>
<clipPath id="clip0_3361_83">
<rect width="30" height="30" fill="white" transform="translate(5 5)"/>
</clipPath>
</defs>
</svg>
