<svg width="40" height="40" viewBox="0 0 40 40" fill="none" xmlns="http://www.w3.org/2000/svg">
<g clip-path="url(#clip0_3361_75)">
<path d="M32.0234 2H7.97656C4.6758 2 2 4.74002 2 8.12V31.8224C2 35.2024 4.6758 37.9424 7.97656 37.9424H32.0234C35.3242 37.9424 38 35.2024 38 31.8224V8.12C38 4.74002 35.3242 2 32.0234 2Z" fill="#470137"/>
<path d="M20.924 11.4521L16.432 19.0442L21.2379 27.106C21.2688 27.1624 21.2774 27.2287 21.2621 27.2915C21.2546 27.3183 21.2386 27.3249 21.214 27.3259L21.1867 27.3255L21.1535 27.3246C21.1355 27.3246 21.1154 27.3255 21.093 27.3292H17.628L17.56 27.328C17.3732 27.323 17.2387 27.2956 17.1567 27.1554C16.8361 26.5158 16.514 25.877 16.1906 25.2389C15.9013 24.6698 15.604 24.1049 15.299 23.5444L15.1643 23.2976C14.7995 22.6337 14.4412 21.966 14.0896 21.2946H14.0655C13.7408 21.959 13.4066 22.6185 13.0632 23.2729C12.7168 23.9324 12.3747 24.5877 12.0368 25.2389C11.6987 25.8904 11.3525 26.5376 10.9984 27.1802C10.9415 27.3112 10.8468 27.3386 10.7151 27.343L10.6602 27.3439H7.35174L7.33739 27.3443L7.29014 27.3486C7.26385 27.3502 7.2481 27.3445 7.24303 27.3039C7.23402 27.2436 7.24693 27.182 7.27931 27.1308L11.9402 19.2914L7.39997 11.4276C7.35178 11.3619 7.34372 11.3083 7.37578 11.2669C7.39361 11.2457 7.41598 11.2291 7.44114 11.2184C7.46631 11.2077 7.49357 11.203 7.52077 11.2049H10.9259C11.0001 11.2008 11.0743 11.2135 11.1433 11.2421C11.2009 11.2757 11.2506 11.3222 11.2881 11.3782C11.5779 12.0377 11.8999 12.6971 12.2542 13.3565C12.6057 14.0115 12.9639 14.6628 13.3289 15.3101C13.6882 15.9474 14.0225 16.5991 14.3311 17.2637H14.3553C14.6715 16.5993 14.9976 15.9398 15.3333 15.2855C15.6631 14.6425 16.0012 13.9953 16.3475 13.3441C16.6893 12.7013 17.0234 12.0542 17.3498 11.4029C17.3683 11.3419 17.4015 11.2866 17.4464 11.2421C17.506 11.2112 17.573 11.1983 17.6396 11.2049H20.8032C20.8323 11.1975 20.863 11.2 20.8906 11.2119C20.9182 11.2239 20.9413 11.2447 20.9563 11.2712C20.9714 11.2978 20.9776 11.3286 20.9741 11.3591C20.9706 11.3895 20.9575 11.418 20.9368 11.4402L20.924 11.4521ZM28.0214 27.6482L27.8549 27.65C26.7433 27.6674 25.6419 27.4309 24.6308 26.9577C23.6888 26.5113 22.9014 25.7826 22.3727 24.868C21.8396 23.9612 21.5661 22.8316 21.5522 21.4789L21.5516 21.3688C21.5426 20.2338 21.8258 19.1164 22.3729 18.1292C22.9204 17.1521 23.7185 16.3471 24.6808 15.8013L24.7636 15.7552C25.8099 15.1616 27.0737 14.8648 28.5552 14.8648L28.6199 14.8656L28.6938 14.868L28.7768 14.8718L28.869 14.8772L29.024 14.8885L29.1995 14.9029L29.3279 14.9144V10.0426C29.3279 9.92728 29.3762 9.86959 29.4728 9.86949H32.5157C32.5354 9.8666 32.5555 9.86844 32.5743 9.87488C32.5932 9.88131 32.6103 9.89215 32.6244 9.90654C32.6385 9.92094 32.649 9.93849 32.6553 9.9578C32.6616 9.97712 32.6634 9.99766 32.6606 10.0178V24.6331C32.6606 24.8786 32.6699 25.1428 32.6884 25.4257L32.7334 26.0672L32.7573 26.4383C32.7603 26.4897 32.7481 26.5408 32.7222 26.5849C32.6963 26.6291 32.658 26.6642 32.6123 26.6857C31.8273 27.0209 31.0097 27.2695 30.1732 27.4274C29.4631 27.5617 28.7434 27.6355 28.0214 27.6482ZM29.3279 24.5836V17.8324C29.1974 17.7962 29.0641 17.7714 28.9295 17.7582C28.765 17.7412 28.5997 17.733 28.4344 17.7335C27.8483 17.7274 27.2692 17.863 26.7439 18.1292C26.2324 18.3898 25.7955 18.7817 25.476 19.2668C25.1572 19.7443 24.9923 20.3678 24.9815 21.1373L24.9809 21.2204C24.9692 21.7595 25.0552 22.296 25.2345 22.803C25.3805 23.2115 25.6112 23.5828 25.9109 23.8912C26.1976 24.1749 26.5448 24.3866 26.925 24.5094C27.3267 24.6425 27.7465 24.7094 28.1687 24.7074C28.394 24.7074 28.6033 24.6991 28.7966 24.6825C28.9508 24.6706 29.1037 24.6446 29.2534 24.6047L29.3279 24.5836Z" fill="#FF61F6"/>
</g>
<defs>
<clipPath id="clip0_3361_75">
<rect width="36" height="36" fill="white" transform="translate(2 2)"/>
</clipPath>
</defs>
</svg>
